SplineFontDB: 3.0
FontName: Strobrod-Bold
FullName: Strobrod Bold
FamilyName: Strobrod
Weight: Bold
Copyright: CC, Aaron Christianson, Nicolas Mercier
UComments: "2017-3-27: Created with FontForge (http://fontforge.org)"
Version: 001.000
StrokeWidth: 600
ItalicAngle: 0
UnderlinePosition: -100
UnderlineWidth: 0
Ascent: 800
Descent: 700
InvalidEm: 0
LayerCount: 2
Layer: 0 0 "Back" 1
Layer: 1 0 "Fore" 0
StrokedFont: 1
HasVMetrics: 1
XUID: [1021 68 1269985762 15680502]
StyleMap: 0x0020
FSType: 0
OS2Version: 0
OS2_WeightWidthSlopeOnly: 0
OS2_UseTypoMetrics: 1
CreationTime: 1490615230
ModificationTime: 1495896181
PfmFamily: 49
TTFWeight: 700
TTFWidth: 5
LineGap: -500
VLineGap: 0
Panose: 2 11 8 9 0 0 0 0 0 0
OS2TypoAscent: 800
OS2TypoAOffset: 0
OS2TypoDescent: -200
OS2TypoDOffset: 0
OS2TypoLinegap: 0
OS2WinAscent: 800
OS2WinAOffset: 0
OS2WinDescent: 200
OS2WinDOffset: 0
HheadAscent: 800
HheadAOffset: 0
HheadDescent: -200
HheadDOffset: 0
OS2Vendor: 'PfEd'
MacStyle: 1
MarkAttachClasses: 1
DEI: 91125
LangName: 1033
GaspTable: 2 0 1 65535 1 1
Encoding: iso8859-15
UnicodeInterp: none
NameList: AGL For New Fonts
DisplaySize: 10
AntiAlias: 1
FitToEm: 0
WinInfo: 0 61 21
BeginPrivate: 0
EndPrivate
TeXData: 1 0 0 628097 314049 209365 524288 1048576 209365 783286 444596 497025 792723 393216 433062 380633 303038 157286 324010 404750 52429 2506097 1059062 262144
BeginChars: 545 545

StartChar: exclam
Encoding: 33 33 1
Width: 600
VWidth: 0
Flags: W
HStem: 0 100<209 417> 600 0G<209 417>
VStem: 200 200<0 104 209 625>
LayerCount: 2
Back
Fore
SplineSet
200 100 m 25
 400 100 l 25
 400 0 l 25
 200 0 l 25
 200 100 l 25
200 600 m 25
 400 600 l 25
 400 200 l 25
 200 200 l 25
 200 600 l 25
EndSplineSet
EndChar

StartChar: quotedbl
Encoding: 34 34 2
Width: 600
VWidth: 0
Flags: W
HStem: 500 200<104 312 417 521>
VStem: 100 200<521 729> 400 100<521 729>
LayerCount: 2
Back
Fore
SplineSet
400 700 m 25
 500 700 l 25
 500 500 l 25
 400 500 l 25
 400 700 l 25
100 700 m 25
 300 700 l 25
 300 500 l 25
 100 500 l 25
 100 700 l 25
EndSplineSet
EndChar

StartChar: numbersign
Encoding: 35 35 3
Width: 600
VWidth: 0
Flags: W
HStem: 200 100<0 104 312 417 521 625> 400 100<0 104 312 417 521 625> 600 0G<104 312 417 521>
VStem: 100 200<104 209 312 417 521 625> 400 100<104 209 312 417 521 625>
LayerCount: 2
Back
Fore
SplineSet
300 400 m 25
 300 300 l 25
 400 300 l 25
 400 400 l 25
 300 400 l 25
100 600 m 25
 300 600 l 25
 300 500 l 25
 400 500 l 25
 400 600 l 25
 500 600 l 25
 500 500 l 25
 600 500 l 25
 600 400 l 25
 500 400 l 25
 500 300 l 25
 600 300 l 25
 600 200 l 25
 500 200 l 25
 500 100 l 25
 400 100 l 25
 400 200 l 25
 300 200 l 25
 300 100 l 25
 100 100 l 25
 100 200 l 25
 0 200 l 25
 0 300 l 25
 100 300 l 25
 100 400 l 25
 0 400 l 25
 0 500 l 25
 100 500 l 25
 100 600 l 25
EndSplineSet
EndChar

StartChar: dollar
Encoding: 36 36 4
Width: 600
VWidth: 0
Flags: W
HStem: -100 200<209 417> 0 100<104 209> 100 100<521 625> 200 100<209 417> 300 100<0 104> 400 200<209 417> 400 100<417 521>
VStem: 100 400<0 104 209 312 417 521> 200 200<-104 0 521 625>
LayerCount: 2
Back
Fore
SplineSet
100 500 m 25x03
 200 500 l 25x0280
 200 600 l 25
 400 600 l 25x0480
 400 500 l 25x0280
 500 500 l 25
 500 400 l 25x03
 200 400 l 25
 200 300 l 25x1480
 500 300 l 25
 500 200 l 25
 600 200 l 25
 600 100 l 25
 500 100 l 25x29
 500 0 l 25x41
 400 0 l 25x4080
 400 -100 l 25
 200 -100 l 25x8080
 200 0 l 25x4080
 100 0 l 25
 100 100 l 25x41
 400 100 l 25
 400 200 l 25x9080
 100 200 l 25x91
 100 300 l 25
 0 300 l 25
 0 400 l 25
 100 400 l 25x09
 100 500 l 25x03
EndSplineSet
EndChar

StartChar: percent
Encoding: 37 37 5
Width: 600
VWidth: 0
Flags: W
HStem: 100 100<417 521> 500 100<104 209>
VStem: 100 100<104 209 521 625> 400 100<104 209 521 625>
LayerCount: 2
Back
Fore
SplineSet
400 200 m 25
 500 200 l 25
 500 100 l 25
 400 100 l 25
 400 200 l 25
100 300 m 25
 200 300 l 25
 200 400 l 25
 300 400 l 25
 300 500 l 25
 400 500 l 25
 400 600 l 25
 500 600 l 25
 500 400 l 25
 400 400 l 25
 400 300 l 25
 300 300 l 25
 300 200 l 25
 200 200 l 25
 200 100 l 25
 100 100 l 25
 100 300 l 25
100 600 m 25
 200 600 l 25
 200 500 l 25
 100 500 l 25
 100 600 l 25
EndSplineSet
EndChar

StartChar: ampersand
Encoding: 38 38 6
Width: 600
VWidth: 0
Flags: W
HStem: 0 100<312 417 521 625> 100 200<104 209 417 521> 300 100<521 625> 600 100<417 521>
VStem: 100 200<104 312> 200 200<0 104 312 625> 400 100<104 312> 500 100<0 104 312 417>
LayerCount: 2
Back
Fore
SplineSet
300 700 m 25x58
 500 700 l 25
 500 600 l 25
 400 600 l 25
 400 300 l 25x55
 300 300 l 25
 300 100 l 25xb8
 400 100 l 25xb4
 400 300 l 25x54
 500 300 l 25x52
 500 400 l 25
 600 400 l 25
 600 300 l 25x31
 500 300 l 25x52
 500 100 l 25x92
 600 100 l 25
 600 0 l 25
 500 0 l 25x91
 500 100 l 25x92
 400 100 l 25
 400 0 l 25
 200 0 l 25x94
 200 100 l 25x54
 100 100 l 25
 100 300 l 25x58
 200 300 l 25
 200 600 l 25x54
 300 600 l 25
 300 700 l 25x58
EndSplineSet
EndChar

StartChar: quotesingle
Encoding: 39 39 7
Width: 600
VWidth: 0
Flags: W
HStem: 500 200<209 417>
VStem: 200 200<521 729>
LayerCount: 2
Back
Fore
SplineSet
200 700 m 25
 400 700 l 25
 400 500 l 25
 200 500 l 25
 200 700 l 25
EndSplineSet
EndChar

StartChar: parenleft
Encoding: 40 40 8
Width: 600
VWidth: 0
Flags: W
HStem: -100 100<312 417> 600 100<312 417>
VStem: 100 200<0 625> 200 200<-104 0 625 729>
LayerCount: 2
Back
Fore
SplineSet
200 700 m 25xd0
 400 700 l 25
 400 600 l 25xd0
 300 600 l 25
 300 0 l 25xe0
 400 0 l 25
 400 -100 l 25
 200 -100 l 25
 200 0 l 25xd0
 100 0 l 25
 100 600 l 25xe0
 200 600 l 25
 200 700 l 25xd0
EndSplineSet
EndChar

StartChar: parenright
Encoding: 41 41 9
Width: 600
VWidth: 0
Flags: W
HStem: -100 100<104 209> 600 100<104 209>
VStem: 100 200<-104 0 625 729> 200 200<0 625>
LayerCount: 2
Back
Fore
SplineSet
100 700 m 25xe0
 300 700 l 25
 300 600 l 25xe0
 400 600 l 25
 400 0 l 25xd0
 300 0 l 25
 300 -100 l 25
 100 -100 l 25
 100 0 l 25xe0
 200 0 l 25
 200 600 l 25xd0
 100 600 l 25
 100 700 l 25xe0
EndSplineSet
EndChar

StartChar: asterisk
Encoding: 42 42 10
Width: 600
VWidth: 0
Flags: W
HStem: 200 100<0 104 521 625> 400 100<0 104 521 625> 600 0G<209 417>
VStem: 200 200<104 209 521 625>
LayerCount: 2
Back
Fore
SplineSet
0 500 m 25
 200 500 l 25
 200 600 l 25
 400 600 l 25
 400 500 l 25
 600 500 l 25
 600 400 l 25
 500 400 l 25
 500 300 l 25
 600 300 l 25
 600 200 l 25
 400 200 l 25
 400 100 l 25
 200 100 l 25
 200 200 l 25
 0 200 l 25
 0 300 l 25
 100 300 l 25
 100 400 l 25
 0 400 l 25
 0 500 l 25
EndSplineSet
EndChar

StartChar: plus
Encoding: 43 43 11
Width: 600
VWidth: 0
Flags: W
HStem: 0 0G<209 417> 200 100<0 209 417 625> 500 0G<209 417>
VStem: 200 200<0 209 312 521>
LayerCount: 2
Back
Fore
SplineSet
200 500 m 25
 400 500 l 25
 400 300 l 25
 600 300 l 25
 600 200 l 25
 400 200 l 25
 400 0 l 25
 200 0 l 25
 200 200 l 25
 0 200 l 25
 0 300 l 25
 200 300 l 25
 200 500 l 25
EndSplineSet
EndChar

StartChar: comma
Encoding: 44 44 12
Width: 600
VWidth: 0
Flags: W
HStem: -100 100<104 209>
VStem: 200 200<0 209>
LayerCount: 2
Back
Fore
SplineSet
200 200 m 25
 400 200 l 25
 400 0 l 25
 300 0 l 25
 300 -100 l 25
 100 -100 l 25
 100 0 l 25
 200 0 l 25
 200 200 l 25
EndSplineSet
EndChar

StartChar: hyphen
Encoding: 45 45 13
Width: 600
VWidth: 0
Flags: W
HStem: 200 100<104 625>
LayerCount: 2
Back
Fore
SplineSet
100 300 m 25
 600 300 l 25
 600 200 l 25
 100 200 l 25
 100 300 l 25
EndSplineSet
EndChar

StartChar: period
Encoding: 46 46 14
Width: 600
VWidth: 0
Flags: W
HStem: 0 200<209 417>
VStem: 200 200<0 209>
LayerCount: 2
Back
Fore
SplineSet
200 200 m 25
 400 200 l 25
 400 0 l 25
 200 0 l 25
 200 200 l 25
EndSplineSet
EndChar

StartChar: slash
Encoding: 47 47 15
Width: 600
VWidth: 0
Flags: W
HStem: -100 0G<104 312> 700 0G<417 625>
VStem: 100 200<-104 104> 200 200<104 312> 300 200<312 521> 400 200<521 729>
LayerCount: 2
Back
Fore
SplineSet
100 100 m 25xe0
 200 100 l 25
 200 300 l 25xd0
 300 300 l 25
 300 500 l 25xc8
 400 500 l 25
 400 700 l 25
 600 700 l 25
 600 500 l 25xc4
 500 500 l 25
 500 300 l 25xc8
 400 300 l 25
 400 100 l 25xd0
 300 100 l 25
 300 -100 l 25
 100 -100 l 25
 100 100 l 25xe0
EndSplineSet
EndChar

StartChar: zero
Encoding: 48 48 16
Width: 600
VWidth: 0
Flags: W
HStem: 0 100<312 417> 300 100<312 417> 500 0G<417 521> 500 100<312 417>
VStem: 100 200<104 312 417 521> 200 200<0 104 521 625> 400 100<104 312 417 521>
LayerCount: 2
Back
Fore
SplineSet
100 500 m 25xd8
 200 500 l 25
 200 600 l 25
 400 600 l 25xd4
 400 500 l 25xe4
 300 500 l 25
 300 400 l 25
 400 400 l 25xda
 400 500 l 25xe4
 500 500 l 25
 500 100 l 25xe2
 400 100 l 25xe4
 400 300 l 25
 300 300 l 25
 300 100 l 25xea
 400 100 l 25
 400 0 l 25
 200 0 l 25
 200 100 l 25xe4
 100 100 l 25
 100 500 l 25xd8
EndSplineSet
EndChar

StartChar: one
Encoding: 49 49 17
Width: 600
VWidth: 0
Flags: W
HStem: 0 0G<209 417> 400 100<104 209> 600 0G<209 417>
VStem: 200 200<0 417 521 625>
LayerCount: 2
Back
Fore
SplineSet
100 500 m 25
 200 500 l 25
 200 600 l 25
 400 600 l 25
 400 0 l 25
 200 0 l 25
 200 400 l 25
 100 400 l 25
 100 500 l 25
EndSplineSet
EndChar

StartChar: two
Encoding: 50 50 18
Width: 600
VWidth: 0
Flags: W
HStem: 0 100<312 521> 400 100<104 209> 500 100<209 312>
VStem: 100 100<417 521> 200 200<209 312 521 625> 300 200<312 521>
LayerCount: 2
Back
Fore
SplineSet
100 500 m 25xd4
 200 500 l 25xd4
 200 600 l 25
 400 600 l 25
 400 500 l 25xa8
 500 500 l 25
 500 300 l 25xa4
 400 300 l 25
 400 200 l 25xa8
 300 200 l 25
 300 100 l 25
 500 100 l 25
 500 0 l 25
 100 0 l 25
 100 200 l 25xb4
 200 200 l 25
 200 300 l 25xa8
 300 300 l 25
 300 500 l 25xa4
 200 500 l 25
 200 400 l 25
 100 400 l 25
 100 500 l 25xd4
EndSplineSet
EndChar

StartChar: three
Encoding: 51 51 19
Width: 600
VWidth: 0
Flags: W
HStem: 0 100<104 312> 300 100<209 312> 500 100<104 312>
VStem: 300 200<104 312 417 521>
LayerCount: 2
Back
Fore
SplineSet
100 600 m 25
 500 600 l 25
 500 400 l 25
 400 400 l 25
 400 300 l 25
 500 300 l 25
 500 100 l 25
 400 100 l 25
 400 0 l 25
 100 0 l 25
 100 100 l 25
 300 100 l 25
 300 300 l 25
 200 300 l 25
 200 400 l 25
 300 400 l 25
 300 500 l 25
 100 500 l 25
 100 600 l 25
EndSplineSet
EndChar

StartChar: four
Encoding: 52 52 20
Width: 600
VWidth: 0
Flags: W
HStem: 0 0G<312 521> 100 100<209 312> 300 100<209 312> 600 0G<417 521>
VStem: 100 100<209 312> 300 200<0 104 209 312 417 521> 400 100<521 625>
LayerCount: 2
Back
Fore
SplineSet
400 600 m 25xfa
 500 600 l 25xfa
 500 0 l 25
 300 0 l 25
 300 100 l 25
 100 100 l 25
 100 300 l 25
 200 300 l 25
 200 200 l 25
 300 200 l 25
 300 300 l 25
 200 300 l 25
 200 400 l 25
 300 400 l 25
 300 500 l 25xfc
 400 500 l 25
 400 600 l 25xfa
EndSplineSet
EndChar

StartChar: five
Encoding: 53 53 21
Width: 600
VWidth: 0
Flags: W
HStem: 0 100<104 312> 300 300<104 312> 500 100<312 521>
VStem: 100 300<0 104 312 417> 300 200<104 312>
LayerCount: 2
Back
Fore
SplineSet
100 600 m 25xd0
 500 600 l 25
 500 500 l 25
 300 500 l 25
 300 400 l 25xa8
 400 400 l 25
 400 300 l 25xd0
 500 300 l 25
 500 100 l 25xc8
 400 100 l 25
 400 0 l 25
 100 0 l 25
 100 100 l 25xd0
 300 100 l 25
 300 300 l 25xc8
 100 300 l 25
 100 600 l 25xd0
EndSplineSet
EndChar

StartChar: six
Encoding: 54 54 22
Width: 600
VWidth: 0
Flags: W
HStem: 0 100<312 417> 300 100<312 417> 500 100<312 417>
VStem: 100 200<104 312 417 521> 200 200<0 104 521 625> 400 100<104 312>
LayerCount: 2
Back
Fore
SplineSet
200 600 m 25xe8
 400 600 l 25
 400 500 l 25xe8
 300 500 l 25
 300 400 l 25
 400 400 l 25
 400 300 l 25
 300 300 l 25
 300 100 l 25xf4
 400 100 l 25xe8
 400 300 l 25
 500 300 l 25
 500 100 l 25xe4
 400 100 l 25
 400 0 l 25
 200 0 l 25
 200 100 l 25xe8
 100 100 l 25
 100 500 l 25xf0
 200 500 l 25
 200 600 l 25xe8
EndSplineSet
EndChar

StartChar: seven
Encoding: 55 55 23
Width: 600
VWidth: 0
Flags: W
HStem: 0 0G<104 312> 500 100<104 312>
VStem: 100 200<0 209> 300 200<312 521>
LayerCount: 2
Back
Fore
SplineSet
100 600 m 25xe0
 500 600 l 25
 500 300 l 25xd0
 400 300 l 25
 400 200 l 25
 300 200 l 25
 300 0 l 25
 100 0 l 25
 100 200 l 25xe0
 200 200 l 25
 200 300 l 25
 300 300 l 25
 300 500 l 25xd0
 100 500 l 25
 100 600 l 25xe0
EndSplineSet
EndChar

StartChar: eight
Encoding: 56 56 24
Width: 600
VWidth: 0
Flags: W
HStem: 0 100<312 417> 100 200<104 209 417 521> 300 100<312 417> 400 100<104 209 417 521> 500 100<312 417>
VStem: 100 200<104 312 417 521> 200 200<0 104 312 417 521 625> 400 100<104 312 417 521>
LayerCount: 2
Back
Fore
SplineSet
200 600 m 25x0a
 400 600 l 25x0a
 400 500 l 25x12
 300 500 l 25
 300 400 l 25x2c
 400 400 l 25x2a
 400 500 l 25x12
 500 500 l 25
 500 400 l 25x11
 400 400 l 25x22
 400 300 l 25x42
 300 300 l 25
 300 100 l 25xa4
 400 100 l 25xa2
 400 300 l 25x42
 500 300 l 25
 500 100 l 25x41
 400 100 l 25
 400 0 l 25
 200 0 l 25x82
 200 100 l 25x42
 100 100 l 25
 100 300 l 25x44
 200 300 l 25
 200 400 l 25x52
 100 400 l 25
 100 500 l 25x54
 200 500 l 25x52
 200 600 l 25x0a
EndSplineSet
EndChar

StartChar: nine
Encoding: 57 57 25
Width: 600
VWidth: 0
Flags: W
HStem: 0 100<209 312> 200 100<209 312> 500 100<209 312>
VStem: 100 100<312 521> 200 200<0 104 521 625> 300 200<104 209 312 521>
LayerCount: 2
Back
Fore
SplineSet
200 600 m 25xe8
 400 600 l 25
 400 500 l 25xe8
 500 500 l 25
 500 100 l 25xe4
 400 100 l 25
 400 0 l 25
 200 0 l 25
 200 100 l 25xe8
 300 100 l 25
 300 200 l 25xe4
 200 200 l 25xe8
 200 300 l 25
 300 300 l 25
 300 500 l 25
 200 500 l 25
 200 300 l 25
 100 300 l 25
 100 500 l 25
 200 500 l 25xf4
 200 600 l 25xe8
EndSplineSet
EndChar

StartChar: colon
Encoding: 58 58 26
Width: 600
VWidth: 0
Flags: W
HStem: 100 100<209 417> 300 100<209 417>
VStem: 200 200<104 209 312 417>
LayerCount: 2
Back
Fore
SplineSet
200 200 m 25
 400 200 l 25
 400 100 l 25
 200 100 l 25
 200 200 l 25
200 400 m 25
 400 400 l 25
 400 300 l 25
 200 300 l 25
 200 400 l 25
EndSplineSet
EndChar

StartChar: semicolon
Encoding: 59 59 27
Width: 600
VWidth: 0
Flags: W
HStem: -100 100<104 209> 300 100<209 417>
VStem: 200 200<0 209 312 417>
LayerCount: 2
Back
Fore
SplineSet
200 200 m 25
 400 200 l 25
 400 0 l 25
 300 0 l 25
 300 -100 l 25
 100 -100 l 25
 100 0 l 25
 200 0 l 25
 200 200 l 25
200 400 m 25
 400 400 l 25
 400 300 l 25
 200 300 l 25
 200 400 l 25
EndSplineSet
EndChar

StartChar: less
Encoding: 60 60 28
Width: 600
VWidth: 0
Flags: W
HStem: 0 100<417 521> 200 100<104 209> 400 100<417 521>
VStem: 200 200<104 209 312 417> 300 200<0 104 417 521>
CounterMasks: 1 e0
LayerCount: 2
Back
Fore
SplineSet
100 300 m 25xf0
 200 300 l 25
 200 400 l 25xf0
 300 400 l 25
 300 500 l 25
 500 500 l 25
 500 400 l 25xe8
 400 400 l 25
 400 300 l 25xf0
 300 300 l 25
 300 200 l 25xe8
 400 200 l 25
 400 100 l 25xf0
 500 100 l 25
 500 0 l 25
 300 0 l 25
 300 100 l 25xe8
 200 100 l 25
 200 200 l 25
 100 200 l 25
 100 300 l 25xf0
EndSplineSet
EndChar

StartChar: equal
Encoding: 61 61 29
Width: 600
VWidth: 0
Flags: W
HStem: 100 100<104 521> 300 100<104 521>
LayerCount: 2
Back
Fore
SplineSet
100 200 m 25
 500 200 l 25
 500 100 l 25
 100 100 l 25
 100 200 l 25
100 400 m 25
 500 400 l 25
 500 300 l 25
 100 300 l 25
 100 400 l 25
EndSplineSet
EndChar

StartChar: greater
Encoding: 62 62 30
Width: 600
VWidth: 0
Flags: W
HStem: 0 100<104 209> 200 100<417 521> 400 100<104 209>
VStem: 100 200<0 104 417 521> 200 200<104 209 312 417>
CounterMasks: 1 e0
LayerCount: 2
Back
Fore
SplineSet
100 500 m 25xf0
 300 500 l 25
 300 400 l 25xf0
 400 400 l 25
 400 300 l 25
 500 300 l 25
 500 200 l 25
 400 200 l 25
 400 100 l 25xe8
 300 100 l 25
 300 0 l 25
 100 0 l 25
 100 100 l 25xf0
 200 100 l 25
 200 200 l 25xe8
 300 200 l 25
 300 300 l 25xf0
 200 300 l 25
 200 400 l 25xe8
 100 400 l 25
 100 500 l 25xf0
EndSplineSet
EndChar

StartChar: question
Encoding: 63 63 31
Width: 600
VWidth: 0
Flags: W
HStem: -100 100<209 417> 400 100<0 104> 500 100<104 312>
VStem: 0 100<417 521> 200 200<-104 0 104 312> 300 200<312 521>
LayerCount: 2
Back
Fore
SplineSet
200 0 m 25x98
 400 0 l 25
 400 -100 l 25
 200 -100 l 25
 200 0 l 25x98
0 400 m 25xd4
 0 500 l 25
 100 500 l 25xd4
 100 600 l 25
 400 600 l 25
 400 500 l 25xb8
 500 500 l 25
 500 300 l 25xb4
 400 300 l 25
 400 100 l 25
 200 100 l 25
 200 300 l 25xb8
 300 300 l 25
 300 500 l 25xb4
 100 500 l 25
 100 400 l 25
 0 400 l 25xd4
EndSplineSet
EndChar

StartChar: at
Encoding: 64 64 32
Width: 600
VWidth: 0
Flags: W
HStem: -100 100<312 417> 100 100<312 417> 400 100<312 417> 600 0G<417 521> 600 100<312 417>
VStem: 100 200<0 104 209 417 521 625> 200 200<-104 0 625 729> 400 100<209 417 521 625>
LayerCount: 2
Back
Fore
SplineSet
300 400 m 25xe5
 300 200 l 25
 400 200 l 25
 400 400 l 25
 300 400 l 25xe5
100 600 m 25xec
 200 600 l 25
 200 700 l 25
 400 700 l 25xea
 400 600 l 25xf2
 300 600 l 25
 300 500 l 25
 400 500 l 25xed
 400 600 l 25xf2
 500 600 l 25
 500 100 l 25
 300 100 l 25
 300 0 l 25xf5
 400 0 l 25
 400 -100 l 25
 200 -100 l 25
 200 0 l 25xf2
 100 0 l 25
 100 600 l 25xec
EndSplineSet
EndChar

StartChar: A
Encoding: 65 65 33
Width: 600
VWidth: 0
Flags: W
HStem: 0 0G<104 312 417 521> 200 100<312 417> 500 0G<417 521> 500 100<312 417>
VStem: 100 200<0 209 312 521> 400 100<0 209 312 521>
LayerCount: 2
Back
Fore
SplineSet
100 500 m 25xdc
 200 500 l 25
 200 600 l 25
 400 600 l 25xdc
 400 500 l 25xec
 300 500 l 25xdc
 300 300 l 25
 400 300 l 25
 400 500 l 25
 500 500 l 25xec
 500 0 l 25
 400 0 l 25
 400 200 l 25
 300 200 l 25
 300 0 l 25
 100 0 l 25
 100 500 l 25xdc
EndSplineSet
EndChar

StartChar: B
Encoding: 66 66 34
Width: 600
VWidth: 0
Flags: W
HStem: 0 100<312 417> 300 100<312 417> 400 100<417 521> 500 100<312 417>
VStem: 100 300<0 104 312 417 521 625> 100 200<104 312 417 521> 400 100<104 312 417 521>
LayerCount: 2
Back
Fore
SplineSet
100 600 m 25xd8
 400 600 l 25xd8
 400 500 l 25xa8
 300 500 l 25
 300 400 l 25xd4
 400 400 l 25xd8
 400 500 l 25xa8
 500 500 l 25
 500 400 l 25xa2
 400 400 l 25
 400 300 l 25xc8
 300 300 l 25
 300 100 l 25xc4
 400 100 l 25
 400 300 l 25xc8
 500 300 l 25
 500 100 l 25xc2
 400 100 l 25
 400 0 l 25
 100 0 l 25
 100 600 l 25xd8
EndSplineSet
EndChar

StartChar: C
Encoding: 67 67 35
Width: 600
VWidth: 0
Flags: W
HStem: 0 100<312 521> 500 100<312 521>
VStem: 100 200<104 521> 200 300<0 104 521 625>
LayerCount: 2
Back
Fore
SplineSet
200 600 m 25xd0
 500 600 l 25
 500 500 l 25xd0
 300 500 l 25
 300 100 l 25xe0
 500 100 l 25
 500 0 l 25
 200 0 l 25
 200 100 l 25xd0
 100 100 l 25
 100 500 l 25xe0
 200 500 l 25
 200 600 l 25xd0
EndSplineSet
EndChar

StartChar: D
Encoding: 68 68 36
Width: 600
VWidth: 0
Flags: W
HStem: 0 100<312 417> 500 0G<417 521> 500 100<312 417>
VStem: 100 300<0 104 521 625> 100 200<104 521> 400 100<104 521>
LayerCount: 2
Back
Fore
SplineSet
100 600 m 25xb0
 400 600 l 25xb0
 400 500 l 25xd0
 300 500 l 25
 300 100 l 25xa8
 400 100 l 25
 400 500 l 25xd0
 500 500 l 25
 500 100 l 25xc4
 400 100 l 25
 400 0 l 25
 100 0 l 25
 100 600 l 25xb0
EndSplineSet
EndChar

StartChar: E
Encoding: 69 69 37
Width: 600
VWidth: 0
Flags: W
HStem: 0 100<312 521> 300 100<312 417> 500 100<312 521>
VStem: 100 200<104 312 417 521>
LayerCount: 2
Back
Fore
SplineSet
100 600 m 25
 500 600 l 25
 500 500 l 25
 300 500 l 25
 300 400 l 25
 400 400 l 25
 400 300 l 25
 300 300 l 25
 300 100 l 25
 500 100 l 25
 500 0 l 25
 100 0 l 25
 100 600 l 25
EndSplineSet
EndChar

StartChar: F
Encoding: 70 70 38
Width: 600
VWidth: 0
Flags: W
HStem: 0 0G<104 312> 300 100<312 417> 500 100<312 521>
VStem: 100 200<0 312 417 521>
LayerCount: 2
Back
Fore
SplineSet
100 600 m 25
 500 600 l 25
 500 500 l 25
 300 500 l 25
 300 400 l 25
 400 400 l 25
 400 300 l 25
 300 300 l 25
 300 0 l 25
 100 0 l 25
 100 600 l 25
EndSplineSet
EndChar

StartChar: G
Encoding: 71 71 39
Width: 600
VWidth: 0
Flags: W
HStem: 0 100<312 417> 500 100<312 521>
VStem: 100 200<104 521> 200 300<0 104 521 625> 400 100<104 312>
LayerCount: 2
Back
Fore
SplineSet
200 600 m 25xd0
 500 600 l 25
 500 500 l 25xd0
 300 500 l 25
 300 100 l 25
 400 100 l 25
 400 300 l 25
 500 300 l 25xe8
 500 0 l 25
 200 0 l 25
 200 100 l 25xd0
 100 100 l 25
 100 500 l 25xe0
 200 500 l 25
 200 600 l 25xd0
EndSplineSet
EndChar

StartChar: H
Encoding: 72 72 40
Width: 600
VWidth: 0
Flags: W
HStem: 0 0G<104 312 417 521> 200 100<312 417> 600 0G<104 312 417 521>
VStem: 100 200<0 209 312 625> 400 100<0 209 312 625>
LayerCount: 2
Back
Fore
SplineSet
100 600 m 25
 300 600 l 25
 300 300 l 25
 400 300 l 25
 400 600 l 25
 500 600 l 25
 500 0 l 25
 400 0 l 25
 400 200 l 25
 300 200 l 25
 300 0 l 25
 100 0 l 25
 100 600 l 25
EndSplineSet
EndChar

StartChar: I
Encoding: 73 73 41
Width: 600
VWidth: 0
Flags: W
HStem: 0 0G<209 417> 600 0G<209 417>
VStem: 200 200<0 625>
LayerCount: 2
Back
Fore
SplineSet
200 600 m 25
 400 600 l 25
 400 0 l 25
 200 0 l 25
 200 600 l 25
EndSplineSet
EndChar

StartChar: J
Encoding: 74 74 42
Width: 600
VWidth: 0
Flags: W
HStem: 0 100<104 312> 600 0G<312 521>
VStem: 300 200<104 625>
LayerCount: 2
Back
Fore
SplineSet
300 600 m 25
 500 600 l 25
 500 100 l 25
 400 100 l 25
 400 0 l 25
 100 0 l 25
 100 100 l 25
 300 100 l 25
 300 600 l 25
EndSplineSet
EndChar

StartChar: K
Encoding: 75 75 43
Width: 600
VWidth: 0
Flags: W
HStem: 0 100<521 625> 100 100<417 521> 400 100<417 521> 500 100<521 625>
VStem: 100 300<209 417> 100 200<0 209 417 625> 400 100<104 209 417 521> 500 100<0 104 521 625>
LayerCount: 2
Back
Fore
SplineSet
100 600 m 25x94
 300 600 l 25x94
 300 400 l 25x24
 400 400 l 25x28
 400 500 l 25
 500 500 l 25x22
 500 600 l 25
 600 600 l 25
 600 500 l 25x11
 500 500 l 25
 500 400 l 25x22
 400 400 l 25
 400 200 l 25x68
 500 200 l 25x62
 500 100 l 25x82
 600 100 l 25
 600 0 l 25
 500 0 l 25x81
 500 100 l 25x82
 400 100 l 25x42
 400 200 l 25x48
 300 200 l 25x44
 300 0 l 25
 100 0 l 25
 100 600 l 25x94
EndSplineSet
EndChar

StartChar: L
Encoding: 76 76 44
Width: 600
VWidth: 0
Flags: W
HStem: 0 100<312 521> 600 0G<104 312>
VStem: 100 200<104 625>
LayerCount: 2
Back
Fore
SplineSet
100 600 m 25
 300 600 l 25
 300 100 l 25
 500 100 l 25
 500 0 l 25
 100 0 l 25
 100 600 l 25
EndSplineSet
EndChar

StartChar: M
Encoding: 77 77 45
Width: 600
VWidth: 0
Flags: W
HStem: 0 0G<0 209 521 625> 500 100<209 312 417 521>
VStem: 0 200<0 521> 300 100<312 521> 500 100<0 521>
LayerCount: 2
Back
Fore
SplineSet
0 600 m 25
 300 600 l 25
 300 500 l 25
 400 500 l 25
 400 600 l 25
 600 600 l 25
 600 0 l 25
 500 0 l 25
 500 500 l 25
 400 500 l 25
 400 300 l 25
 300 300 l 25
 300 500 l 25
 200 500 l 25
 200 0 l 25
 0 0 l 25
 0 600 l 25
EndSplineSet
EndChar

StartChar: N
Encoding: 78 78 46
Width: 600
VWidth: 0
Flags: W
HStem: 0 0G<104 312 521 625> 200 100<417 521> 300 100<312 417> 600 0G<104 312 521 625>
VStem: 100 200<0 312 417 625> 500 100<0 209 312 625>
LayerCount: 2
Back
Fore
SplineSet
100 600 m 25xbc
 300 600 l 25
 300 400 l 25
 400 400 l 25xbc
 400 300 l 25
 500 300 l 25
 500 600 l 25
 600 600 l 25
 600 0 l 25
 500 0 l 25
 500 200 l 25
 400 200 l 25
 400 300 l 25xdc
 300 300 l 25
 300 0 l 25
 100 0 l 25
 100 600 l 25xbc
EndSplineSet
EndChar

StartChar: O
Encoding: 79 79 47
Width: 600
VWidth: 0
Flags: W
HStem: 0 100<312 417> 500 0G<417 521> 500 100<312 417>
VStem: 100 200<104 521> 200 200<0 104 521 625> 400 100<104 521>
LayerCount: 2
Back
Fore
SplineSet
100 500 m 25xb0
 200 500 l 25
 200 600 l 25
 400 600 l 25xa8
 400 500 l 25xc8
 300 500 l 25
 300 100 l 25xb0
 400 100 l 25
 400 500 l 25xc8
 500 500 l 25
 500 100 l 25xc4
 400 100 l 25
 400 0 l 25
 200 0 l 25
 200 100 l 25xc8
 100 100 l 25
 100 500 l 25xb0
EndSplineSet
EndChar

StartChar: P
Encoding: 80 80 48
Width: 600
VWidth: 0
Flags: W
HStem: 0 0G<104 312> 200 100<312 417> 500 0G<417 521> 500 100<312 417>
VStem: 100 300<209 312 521 625> 100 200<0 209 312 521> 400 100<312 521>
LayerCount: 2
Back
Fore
SplineSet
100 600 m 25xd8
 400 600 l 25xd8
 400 500 l 25xe8
 300 500 l 25
 300 300 l 25xd4
 400 300 l 25
 400 500 l 25xe8
 500 500 l 25
 500 300 l 25xe2
 400 300 l 25
 400 200 l 25xe8
 300 200 l 25
 300 0 l 25
 100 0 l 25xe4
 100 600 l 25xd8
EndSplineSet
EndChar

StartChar: Q
Encoding: 81 81 49
Width: 600
VWidth: 0
Flags: W
HStem: -100 100<417 521> 500 0G<417 521> 500 100<312 417>
VStem: 100 200<104 521> 200 200<0 104 521 625> 400 100<104 521>
LayerCount: 2
Back
Fore
SplineSet
100 500 m 25xb0
 200 500 l 25
 200 600 l 25
 400 600 l 25xa8
 400 500 l 25xc8
 300 500 l 25
 300 100 l 25xb0
 400 100 l 25
 400 500 l 25xc8
 500 500 l 25
 500 100 l 25xc4
 400 100 l 25
 400 0 l 25xc8
 500 0 l 25
 500 -100 l 25
 300 -100 l 25
 300 0 l 25xd4
 200 0 l 25
 200 100 l 25xc8
 100 100 l 25
 100 500 l 25xb0
EndSplineSet
EndChar

StartChar: R
Encoding: 82 82 50
Width: 600
VWidth: 0
Flags: W
HStem: 0 100<417 521> 500 0G<417 521> 500 100<312 417>
VStem: 100 300<104 312 521 625> 100 200<0 104 312 521> 400 100<0 104 312 521>
LayerCount: 2
Back
Fore
SplineSet
100 600 m 25xb0
 400 600 l 25xb0
 400 500 l 25xd0
 300 500 l 25
 300 300 l 25xa8
 400 300 l 25
 400 500 l 25xd0
 500 500 l 25
 500 300 l 25xc4
 400 300 l 25
 400 100 l 25xd0
 500 100 l 25
 500 0 l 25
 400 0 l 25xc4
 400 100 l 25xd0
 300 100 l 25
 300 0 l 25
 100 0 l 25xc8
 100 600 l 25xb0
EndSplineSet
EndChar

StartChar: S
Encoding: 83 83 51
Width: 600
VWidth: 0
Flags: W
HStem: 0 100<104 312> 400 100<104 209> 500 100<312 521>
VStem: 300 200<104 312>
LayerCount: 2
Back
Fore
SplineSet
100 500 m 25xd0
 200 500 l 25xd0
 200 600 l 25
 500 600 l 25
 500 500 l 25
 300 500 l 25xb0
 300 400 l 25
 400 400 l 25
 400 300 l 25
 500 300 l 25
 500 100 l 25
 400 100 l 25
 400 0 l 25
 100 0 l 25
 100 100 l 25
 300 100 l 25
 300 300 l 25
 200 300 l 25
 200 400 l 25
 100 400 l 25
 100 500 l 25xd0
EndSplineSet
EndChar

StartChar: T
Encoding: 84 84 52
Width: 600
VWidth: 0
Flags: W
HStem: 0 0G<209 417> 500 100<0 209 417 625>
VStem: 200 200<0 521>
LayerCount: 2
Back
Fore
SplineSet
0 600 m 25
 600 600 l 25
 600 500 l 25
 400 500 l 25
 400 0 l 25
 200 0 l 25
 200 500 l 25
 0 500 l 25
 0 600 l 25
EndSplineSet
EndChar

StartChar: U
Encoding: 85 85 53
Width: 600
VWidth: 0
Flags: W
HStem: 0 100<312 417> 600 0G<104 312 417 521>
VStem: 100 200<104 625> 400 100<104 625>
LayerCount: 2
Back
Fore
SplineSet
100 600 m 25
 300 600 l 25
 300 100 l 25
 400 100 l 25
 400 600 l 25
 500 600 l 25
 500 0 l 25
 200 0 l 25
 200 100 l 25
 100 100 l 25
 100 600 l 25
EndSplineSet
EndChar

StartChar: V
Encoding: 86 86 54
Width: 600
VWidth: 0
Flags: W
HStem: 0 0G<104 312> 100 100<312 417> 600 0G<0 209 417 521>
VStem: 0 200<209 625> 400 100<209 625>
LayerCount: 2
Back
Fore
SplineSet
0 600 m 25
 200 600 l 25
 200 200 l 25
 400 200 l 25
 400 600 l 25
 500 600 l 25
 500 200 l 25
 400 200 l 25
 400 100 l 25
 300 100 l 25
 300 0 l 25
 100 0 l 25
 100 200 l 25
 0 200 l 25
 0 600 l 25
EndSplineSet
EndChar

StartChar: W
Encoding: 87 87 55
Width: 600
VWidth: 0
Flags: W
HStem: 0 100<209 312 417 521> 600 0G<0 209 521 625>
VStem: 0 200<104 625> 300 100<104 312> 500 100<104 625>
LayerCount: 2
Back
Fore
SplineSet
0 600 m 25
 200 600 l 25
 200 100 l 25
 300 100 l 25
 300 300 l 25
 400 300 l 25
 400 100 l 25
 500 100 l 25
 500 600 l 25
 600 600 l 25
 600 100 l 25
 500 100 l 25
 500 0 l 25
 100 0 l 25
 100 100 l 25
 0 100 l 25
 0 600 l 25
EndSplineSet
EndChar

StartChar: X
Encoding: 88 88 56
Width: 600
VWidth: 0
Flags: W
HStem: 0 200<0 104 417 521> 400 200<0 104 417 521>
VStem: 0 200<417 625> 0 100<0 209> 300 200<0 209> 400 100<417 625>
LayerCount: 2
Back
Fore
SplineSet
0 600 m 25xe0
 200 600 l 25
 200 400 l 25
 400 400 l 25
 400 600 l 25
 500 600 l 25
 500 400 l 25
 400 400 l 25
 400 200 l 25xe4
 500 200 l 25
 500 0 l 25
 300 0 l 25
 300 200 l 25
 100 200 l 25
 100 0 l 25
 0 0 l 25
 0 200 l 25
 100 200 l 25
 100 400 l 25xd8
 0 400 l 25
 0 600 l 25xe0
EndSplineSet
EndChar

StartChar: Y
Encoding: 89 89 57
Width: 600
VWidth: 0
Flags: W
HStem: 0 0G<209 417> 300 100<417 521> 400 200<0 104 521 625>
VStem: 0 200<417 625> 400 100<312 417> 500 100<417 625>
LayerCount: 2
Back
Fore
SplineSet
0 600 m 25xb8
 200 600 l 25
 200 400 l 25
 300 400 l 25xb8
 300 300 l 25
 400 300 l 25
 400 400 l 25
 500 400 l 25xd8
 500 600 l 25
 600 600 l 25
 600 400 l 25xb4
 500 400 l 25
 500 300 l 25
 400 300 l 25
 400 0 l 25
 200 0 l 25
 200 300 l 25
 100 300 l 25xd8
 100 400 l 25
 0 400 l 25
 0 600 l 25xb8
EndSplineSet
EndChar

StartChar: Z
Encoding: 90 90 58
Width: 600
VWidth: 0
Flags: W
HStem: 0 100<312 521> 500 100<104 312>
VStem: 100 200<104 312>
LayerCount: 2
Back
Fore
SplineSet
100 600 m 25
 500 600 l 25
 500 400 l 25
 400 400 l 25
 400 300 l 25
 300 300 l 25
 300 100 l 25
 500 100 l 25
 500 0 l 25
 100 0 l 25
 100 300 l 25
 200 300 l 25
 200 400 l 25
 300 400 l 25
 300 500 l 25
 100 500 l 25
 100 600 l 25
EndSplineSet
EndChar

StartChar: bracketleft
Encoding: 91 91 59
Width: 600
VWidth: 0
Flags: W
HStem: 0 100<312 417> 600 100<312 417>
VStem: 100 300<0 104 625 729> 100 200<104 625>
LayerCount: 2
Back
Fore
SplineSet
100 700 m 25xe0
 400 700 l 25
 400 600 l 25xe0
 300 600 l 25
 300 100 l 25xd0
 400 100 l 25
 400 0 l 25
 100 0 l 25
 100 700 l 25xe0
EndSplineSet
EndChar

StartChar: backslash
Encoding: 92 92 60
Width: 600
VWidth: 0
Flags: W
HStem: -100 0G<417 625> 700 0G<104 312>
VStem: 100 200<521 729> 200 200<312 521> 300 200<104 312> 400 200<-104 104>
LayerCount: 2
Back
Fore
SplineSet
100 700 m 25xe0
 300 700 l 25
 300 500 l 25xe0
 400 500 l 25
 400 300 l 25xd0
 500 300 l 25
 500 100 l 25xc8
 600 100 l 25
 600 -100 l 25
 400 -100 l 25
 400 100 l 25xc4
 300 100 l 25
 300 300 l 25xc8
 200 300 l 25
 200 500 l 25xd0
 100 500 l 25
 100 700 l 25xe0
EndSplineSet
EndChar

StartChar: bracketright
Encoding: 93 93 61
Width: 600
VWidth: 0
Flags: W
HStem: 0 100<209 312> 600 100<209 312>
VStem: 200 300<0 104 625 729> 300 200<104 625>
LayerCount: 2
Back
Fore
SplineSet
200 700 m 25xe0
 500 700 l 25
 500 0 l 25
 200 0 l 25
 200 100 l 25xe0
 300 100 l 25
 300 600 l 25xd0
 200 600 l 25
 200 700 l 25xe0
EndSplineSet
EndChar

StartChar: asciicircum
Encoding: 94 94 62
Width: 600
VWidth: 0
Flags: W
HStem: 400 100<0 104 521 625> 500 100<417 521> 600 100<312 417>
VStem: 400 100<521 625> 500 100<417 521>
LayerCount: 2
Back
Fore
SplineSet
200 700 m 25xb0
 400 700 l 25xb0
 400 600 l 25
 500 600 l 25x50
 500 500 l 25x90
 600 500 l 25
 600 400 l 25
 500 400 l 25x88
 500 500 l 25x90
 400 500 l 25
 400 600 l 25x50
 300 600 l 25x30
 300 500 l 25
 200 500 l 25x50
 200 400 l 25
 0 400 l 25
 0 500 l 25
 100 500 l 25
 100 600 l 25
 200 600 l 25
 200 700 l 25xb0
EndSplineSet
EndChar

StartChar: underscore
Encoding: 95 95 63
Width: 600
VWidth: 0
Flags: W
HStem: -100 100<104 625>
LayerCount: 2
Back
Fore
SplineSet
100 0 m 25
 600 0 l 25
 600 -100 l 25
 100 -100 l 25
 100 0 l 25
EndSplineSet
EndChar

StartChar: grave
Encoding: 96 96 64
Width: 600
VWidth: 0
Flags: W
HStem: 400 100<312 417> 700 0G<104 312>
VStem: 100 200<521 729>
LayerCount: 2
Back
Fore
SplineSet
100 700 m 25
 300 700 l 25
 300 500 l 25
 400 500 l 25
 400 400 l 25
 200 400 l 25
 200 500 l 25
 100 500 l 25
 100 700 l 25
EndSplineSet
EndChar

StartChar: a
Encoding: 97 97 65
Width: 600
VWidth: 0
Flags: W
HStem: 0 100<209 312 521 625> 400 100<209 312>
VStem: 100 100<104 417> 300 200<104 417> 500 100<0 104>
LayerCount: 2
Back
Fore
SplineSet
200 500 m 25xf0
 500 500 l 25xe8
 500 100 l 25xf0
 600 100 l 25
 600 0 l 25
 500 0 l 25xe8
 500 100 l 25
 400 100 l 25
 400 0 l 25
 200 0 l 25
 200 100 l 25
 300 100 l 25
 300 400 l 25
 200 400 l 25
 200 100 l 25
 100 100 l 25
 100 400 l 25
 200 400 l 25
 200 500 l 25xf0
EndSplineSet
EndChar

StartChar: b
Encoding: 98 98 66
Width: 600
VWidth: 0
Flags: W
HStem: 0 100<312 417> 400 100<312 417> 700 0G<104 312>
VStem: 100 300<0 104 417 521> 100 200<104 417 521 729> 400 100<104 417>
LayerCount: 2
Back
Fore
SplineSet
100 700 m 25xe8
 300 700 l 25
 300 500 l 25xe8
 400 500 l 25
 400 400 l 25xf0
 300 400 l 25
 300 100 l 25xe8
 400 100 l 25
 400 400 l 25xf0
 500 400 l 25
 500 100 l 25xe4
 400 100 l 25
 400 0 l 25
 100 0 l 25xf0
 100 700 l 25xe8
EndSplineSet
EndChar

StartChar: c
Encoding: 99 99 67
Width: 600
VWidth: 0
Flags: W
HStem: 0 100<312 521> 400 100<312 521>
VStem: 100 200<104 417> 200 300<0 104 417 521>
LayerCount: 2
Back
Fore
SplineSet
100 400 m 25xe0
 200 400 l 25
 200 500 l 25
 500 500 l 25
 500 400 l 25xd0
 300 400 l 25
 300 100 l 25xe0
 500 100 l 25
 500 0 l 25
 200 0 l 25
 200 100 l 25xd0
 100 100 l 25
 100 400 l 25xe0
EndSplineSet
EndChar

StartChar: d
Encoding: 100 100 68
Width: 600
VWidth: 0
Flags: W
HStem: 0 100<209 312> 400 100<209 312> 700 0G<312 521>
VStem: 100 100<104 417> 200 300<0 104 417 521> 300 200<104 417 521 729>
LayerCount: 2
Back
Fore
SplineSet
200 500 m 25xe8
 300 500 l 25
 300 700 l 25
 500 700 l 25xe4
 500 0 l 25
 200 0 l 25xe8
 200 100 l 25
 300 100 l 25
 300 400 l 25
 200 400 l 25
 200 100 l 25
 100 100 l 25
 100 400 l 25
 200 400 l 25xf4
 200 500 l 25xe8
EndSplineSet
EndChar

StartChar: e
Encoding: 101 101 69
Width: 600
VWidth: 0
Flags: W
HStem: 0 100<312 521> 200 100<312 417> 400 100<312 417>
VStem: 100 200<104 209 312 417> 400 100<312 417>
CounterMasks: 1 e0
LayerCount: 2
Back
Fore
SplineSet
200 500 m 25
 400 500 l 25
 400 400 l 25
 300 400 l 25
 300 300 l 25
 400 300 l 25
 400 400 l 25
 500 400 l 25
 500 200 l 25
 300 200 l 25
 300 100 l 25
 500 100 l 25
 500 0 l 25
 200 0 l 25
 200 100 l 25
 100 100 l 25
 100 400 l 25
 200 400 l 25
 200 500 l 25
EndSplineSet
EndChar

StartChar: f
Encoding: 102 102 70
Width: 600
VWidth: 0
Flags: W
HStem: 0 0G<104 312> 400 100<312 521> 600 100<312 521>
VStem: 100 200<0 417 521 625>
LayerCount: 2
Back
Fore
SplineSet
100 600 m 25
 200 600 l 25
 200 700 l 25
 500 700 l 25
 500 600 l 25
 300 600 l 25
 300 500 l 25
 500 500 l 25
 500 400 l 25
 300 400 l 25
 300 0 l 25
 100 0 l 25
 100 600 l 25
EndSplineSet
EndChar

StartChar: g
Encoding: 103 103 71
Width: 600
VWidth: 0
Flags: W
HStem: -100 100<104 312> 100 100<209 312> 400 100<209 312>
VStem: 100 100<209 417> 200 300<104 209 417 521> 300 200<0 104 209 417>
LayerCount: 2
Back
Fore
SplineSet
100 400 m 25xf4
 200 400 l 25xf4
 200 500 l 25
 500 500 l 25xe8
 500 0 l 25
 400 0 l 25
 400 -100 l 25
 100 -100 l 25
 100 0 l 25
 300 0 l 25
 300 100 l 25xf4
 200 100 l 25xe8
 200 200 l 25
 300 200 l 25
 300 400 l 25
 200 400 l 25
 200 200 l 25
 100 200 l 25
 100 400 l 25xf4
EndSplineSet
EndChar

StartChar: h
Encoding: 104 104 72
Width: 600
VWidth: 0
Flags: W
HStem: 0 0G<104 312 417 521> 400 100<312 417> 700 0G<104 312>
VStem: 100 200<0 417 521 729> 400 100<0 417>
LayerCount: 2
Back
Fore
SplineSet
100 700 m 25
 300 700 l 25
 300 500 l 25
 400 500 l 25
 400 400 l 25
 500 400 l 25
 500 0 l 25
 400 0 l 25
 400 400 l 25
 300 400 l 25
 300 0 l 25
 100 0 l 25
 100 700 l 25
EndSplineSet
EndChar

StartChar: i
Encoding: 105 105 73
Width: 600
VWidth: 0
Flags: W
HStem: 0 0G<209 417> 500 0G<209 417> 600 100<209 417>
VStem: 200 200<0 521 625 729>
LayerCount: 2
Back
Fore
SplineSet
200 500 m 25
 400 500 l 25
 400 0 l 25
 200 0 l 25
 200 500 l 25
200 700 m 25
 400 700 l 25
 400 600 l 25
 200 600 l 25
 200 700 l 25
EndSplineSet
EndChar

StartChar: j
Encoding: 106 106 74
Width: 600
VWidth: 0
Flags: W
HStem: -100 100<104 209> 500 0G<209 417> 600 100<209 417>
VStem: 200 200<0 521 625 729>
LayerCount: 2
Back
Fore
SplineSet
200 500 m 25
 400 500 l 25
 400 0 l 25
 300 0 l 25
 300 -100 l 25
 100 -100 l 25
 100 0 l 25
 200 0 l 25
 200 500 l 25
200 700 m 25
 400 700 l 25
 400 600 l 25
 200 600 l 25
 200 700 l 25
EndSplineSet
EndChar

StartChar: k
Encoding: 107 107 75
Width: 600
VWidth: 0
Flags: W
HStem: 0 100<521 625> 100 100<417 521> 300 100<417 521> 400 100<521 625> 700 0G<104 312>
VStem: 100 200<0 209 312 729> 400 100<104 209 312 417> 500 100<0 104 417 521>
LayerCount: 2
Back
Fore
SplineSet
100 700 m 25x8e
 300 700 l 25
 300 300 l 25
 400 300 l 25
 400 400 l 25
 500 400 l 25xae
 500 500 l 25
 600 500 l 25
 600 400 l 25x1d
 500 400 l 25
 500 300 l 25
 400 300 l 25
 400 200 l 25
 500 200 l 25x6e
 500 100 l 25x8e
 600 100 l 25
 600 0 l 25
 500 0 l 25x8d
 500 100 l 25x8e
 400 100 l 25
 400 200 l 25
 300 200 l 25x4e
 300 0 l 25
 100 0 l 25
 100 700 l 25x8e
EndSplineSet
EndChar

StartChar: l
Encoding: 108 108 76
Width: 600
VWidth: 0
Flags: W
HStem: 0 100<312 521> 700 0G<104 312>
VStem: 100 200<104 729>
LayerCount: 2
Back
Fore
SplineSet
100 700 m 25
 300 700 l 25
 300 100 l 25
 500 100 l 25
 500 0 l 25
 200 0 l 25
 200 100 l 25
 100 100 l 25
 100 700 l 25
EndSplineSet
EndChar

StartChar: m
Encoding: 109 109 77
Width: 600
VWidth: 0
Flags: W
HStem: 0 0G<0 209 521 625> 400 100<209 312 417 521>
VStem: 0 200<0 417> 300 100<104 417> 500 100<0 417>
LayerCount: 2
Back
Fore
SplineSet
0 500 m 25
 500 500 l 25
 500 400 l 25
 600 400 l 25
 600 0 l 25
 500 0 l 25
 500 400 l 25
 400 400 l 25
 400 100 l 25
 300 100 l 25
 300 400 l 25
 200 400 l 25
 200 0 l 25
 0 0 l 25
 0 500 l 25
EndSplineSet
EndChar

StartChar: n
Encoding: 110 110 78
Width: 600
VWidth: 0
Flags: W
HStem: 0 0G<104 312 417 521> 400 100<312 417>
VStem: 100 200<0 417> 400 100<0 417>
LayerCount: 2
Back
Fore
SplineSet
100 500 m 25
 400 500 l 25
 400 400 l 25
 500 400 l 25
 500 0 l 25
 400 0 l 25
 400 400 l 25
 300 400 l 25
 300 0 l 25
 100 0 l 25
 100 500 l 25
EndSplineSet
EndChar

StartChar: o
Encoding: 111 111 79
Width: 600
VWidth: 0
Flags: W
HStem: 0 100<312 417> 100 300<104 209 417 521> 400 100<312 417>
VStem: 100 200<104 417> 200 200<0 104 417 521> 400 100<104 417>
LayerCount: 2
Back
Fore
SplineSet
100 400 m 25x50
 200 400 l 25x48
 200 500 l 25
 400 500 l 25x28
 400 400 l 25x48
 300 400 l 25
 300 100 l 25xb0
 400 100 l 25xa8
 400 400 l 25x48
 500 400 l 25
 500 100 l 25x44
 400 100 l 25
 400 0 l 25
 200 0 l 25x88
 200 100 l 25x48
 100 100 l 25
 100 400 l 25x50
EndSplineSet
EndChar

StartChar: p
Encoding: 112 112 80
Width: 600
VWidth: 0
Flags: W
HStem: -100 0G<104 312> 100 100<312 417> 400 100<312 417>
VStem: 100 300<104 209 417 521> 100 200<-104 104 209 417> 400 100<209 417>
LayerCount: 2
Back
Fore
SplineSet
100 500 m 25xf0
 400 500 l 25
 400 400 l 25xf0
 300 400 l 25
 300 200 l 25xe8
 400 200 l 25
 400 400 l 25xf0
 500 400 l 25
 500 200 l 25xe4
 400 200 l 25
 400 100 l 25xf0
 300 100 l 25
 300 -100 l 25
 100 -100 l 25xe8
 100 500 l 25xf0
EndSplineSet
EndChar

StartChar: q
Encoding: 113 113 81
Width: 600
VWidth: 0
Flags: W
HStem: -100 0G<312 521> 100 100<209 312> 400 100<209 312>
VStem: 100 100<209 417> 200 300<104 209 417 521> 300 200<-104 104 209 417>
LayerCount: 2
Back
Fore
SplineSet
100 400 m 25xf4
 200 400 l 25xf4
 200 500 l 25
 500 500 l 25xe8
 500 -100 l 25
 300 -100 l 25
 300 100 l 25xe4
 200 100 l 25xe8
 200 200 l 25
 300 200 l 25
 300 400 l 25
 200 400 l 25
 200 200 l 25
 100 200 l 25
 100 400 l 25xf4
EndSplineSet
EndChar

StartChar: r
Encoding: 114 114 82
Width: 600
VWidth: 0
Flags: W
HStem: 0 0G<104 312> 400 100<312 521>
VStem: 100 200<0 417>
LayerCount: 2
Back
Fore
SplineSet
200 500 m 25
 500 500 l 25
 500 400 l 25
 300 400 l 25
 300 0 l 25
 100 0 l 25
 100 400 l 25
 200 400 l 25
 200 500 l 25
EndSplineSet
EndChar

StartChar: s
Encoding: 115 115 83
Width: 600
VWidth: 0
Flags: W
HStem: 0 100<104 312> 100 100<417 521> 300 100<104 209> 400 100<312 521>
LayerCount: 2
Back
Fore
SplineSet
200 500 m 25x10
 500 500 l 25
 500 400 l 25
 300 400 l 25x10
 300 300 l 25
 400 300 l 25
 400 200 l 25
 500 200 l 25
 500 100 l 25
 400 100 l 25x60
 400 0 l 25
 100 0 l 25
 100 100 l 25
 300 100 l 25x80
 300 200 l 25
 200 200 l 25
 200 300 l 25
 100 300 l 25
 100 400 l 25
 200 400 l 25x60
 200 500 l 25x10
EndSplineSet
EndChar

StartChar: t
Encoding: 116 116 84
Width: 600
VWidth: 0
Flags: W
HStem: 0 100<312 521> 400 100<312 521> 700 0G<104 312>
VStem: 100 200<104 417 521 729>
LayerCount: 2
Back
Fore
SplineSet
100 700 m 25
 300 700 l 25
 300 500 l 25
 500 500 l 25
 500 400 l 25
 300 400 l 25
 300 100 l 25
 500 100 l 25
 500 0 l 25
 200 0 l 25
 200 100 l 25
 100 100 l 25
 100 700 l 25
EndSplineSet
EndChar

StartChar: u
Encoding: 117 117 85
Width: 600
VWidth: 0
Flags: W
HStem: 0 100<209 312> 500 0G<104 209 312 521>
VStem: 100 100<104 521> 300 200<104 521>
LayerCount: 2
Back
Fore
SplineSet
100 500 m 25
 200 500 l 25
 200 100 l 25
 300 100 l 25
 300 500 l 25
 500 500 l 25
 500 0 l 25
 200 0 l 25
 200 100 l 25
 100 100 l 25
 100 500 l 25
EndSplineSet
EndChar

StartChar: v
Encoding: 118 118 86
Width: 600
VWidth: 0
Flags: W
HStem: 0 200<209 417> 200 300<0 104 417 521>
VStem: 0 200<209 521> 400 100<209 521>
LayerCount: 2
Back
Fore
SplineSet
0 500 m 25x70
 200 500 l 25x70
 200 200 l 25
 400 200 l 25xb0
 400 500 l 25
 500 500 l 25
 500 200 l 25x70
 400 200 l 25
 400 0 l 25
 100 0 l 25xb0
 100 200 l 25
 0 200 l 25
 0 500 l 25x70
EndSplineSet
EndChar

StartChar: w
Encoding: 119 119 87
Width: 600
VWidth: 0
Flags: W
HStem: 0 100<209 312 417 521> 500 0G<0 209 521 625>
VStem: 0 200<104 521> 300 100<104 417> 500 100<104 521>
LayerCount: 2
Back
Fore
SplineSet
0 500 m 25
 200 500 l 25
 200 100 l 25
 300 100 l 25
 300 400 l 25
 400 400 l 25
 400 100 l 25
 500 100 l 25
 500 500 l 25
 600 500 l 25
 600 0 l 25
 100 0 l 25
 100 100 l 25
 0 100 l 25
 0 500 l 25
EndSplineSet
EndChar

StartChar: x
Encoding: 120 120 88
Width: 600
VWidth: 0
Flags: W
HStem: 0 200<104 209 417 521> 300 200<104 209 417 521>
VStem: 100 200<312 521> 100 100<0 209> 300 200<0 209> 400 100<312 521>
LayerCount: 2
Back
Fore
SplineSet
100 500 m 25xe0
 300 500 l 25
 300 300 l 25
 400 300 l 25
 400 500 l 25
 500 500 l 25
 500 300 l 25
 400 300 l 25
 400 200 l 25xe4
 500 200 l 25
 500 0 l 25
 300 0 l 25
 300 200 l 25
 200 200 l 25
 200 0 l 25
 100 0 l 25
 100 200 l 25
 200 200 l 25
 200 300 l 25xd8
 100 300 l 25
 100 500 l 25xe0
EndSplineSet
EndChar

StartChar: y
Encoding: 121 121 89
Width: 600
VWidth: 0
Flags: W
HStem: -100 100<209 312> 100 100<209 312> 500 0G<104 209 312 521>
VStem: 100 100<209 521> 300 200<0 104 209 521>
LayerCount: 2
Back
Fore
SplineSet
100 500 m 25
 200 500 l 25
 200 200 l 25
 300 200 l 25
 300 500 l 25
 500 500 l 25
 500 0 l 25
 400 0 l 25
 400 -100 l 25
 200 -100 l 25
 200 0 l 25
 300 0 l 25
 300 100 l 25
 200 100 l 25
 200 200 l 25
 100 200 l 25
 100 500 l 25
EndSplineSet
EndChar

StartChar: z
Encoding: 122 122 90
Width: 600
VWidth: 0
Flags: W
HStem: 0 100<312 521> 400 100<104 312>
LayerCount: 2
Back
Fore
SplineSet
100 500 m 25
 500 500 l 25
 500 300 l 25
 400 300 l 25
 400 200 l 25
 300 200 l 25
 300 100 l 25
 500 100 l 25
 500 0 l 25
 100 0 l 25
 100 200 l 25
 200 200 l 25
 200 300 l 25
 300 300 l 25
 300 400 l 25
 100 400 l 25
 100 500 l 25
EndSplineSet
EndChar

StartChar: braceleft
Encoding: 123 123 91
Width: 600
VWidth: 0
Flags: W
HStem: 0 100<417 521> 300 100<104 209> 600 100<417 521>
VStem: 200 200<104 312 417 625> 300 200<0 104 625 729>
CounterMasks: 1 e0
LayerCount: 2
Back
Fore
SplineSet
100 400 m 25xf0
 200 400 l 25
 200 600 l 25xf0
 300 600 l 25
 300 700 l 25
 500 700 l 25
 500 600 l 25xe8
 400 600 l 25
 400 400 l 25xf0
 300 400 l 25
 300 300 l 25xe8
 400 300 l 25
 400 100 l 25xf0
 500 100 l 25
 500 0 l 25
 300 0 l 25
 300 100 l 25xe8
 200 100 l 25
 200 300 l 25
 100 300 l 25
 100 400 l 25xf0
EndSplineSet
EndChar

StartChar: bar
Encoding: 124 124 92
Width: 600
VWidth: 0
Flags: W
HStem: -100 0G<209 417> 600 0G<209 417>
VStem: 200 200<-104 625>
LayerCount: 2
Back
Fore
SplineSet
200 600 m 25
 400 600 l 25
 400 -100 l 25
 200 -100 l 25
 200 600 l 25
EndSplineSet
EndChar

StartChar: braceright
Encoding: 125 125 93
Width: 600
VWidth: 0
Flags: W
HStem: 0 100<104 209> 300 100<417 521> 600 100<104 209>
VStem: 100 200<0 104 625 729> 200 200<104 312 417 625>
CounterMasks: 1 e0
LayerCount: 2
Back
Fore
SplineSet
100 700 m 25xf0
 300 700 l 25
 300 600 l 25xf0
 400 600 l 25
 400 400 l 25
 500 400 l 25
 500 300 l 25
 400 300 l 25
 400 100 l 25xe8
 300 100 l 25
 300 0 l 25
 100 0 l 25
 100 100 l 25xf0
 200 100 l 25
 200 300 l 25xe8
 300 300 l 25
 300 400 l 25xf0
 200 400 l 25
 200 600 l 25xe8
 100 600 l 25
 100 700 l 25xf0
EndSplineSet
EndChar

StartChar: asciitilde
Encoding: 126 126 94
Width: 600
VWidth: 0
Flags: W
HStem: 200 100<104 209 417 521> 300 100<209 312 521 625>
VStem: 100 100<209 312> 500 100<312 417>
LayerCount: 2
Back
Fore
SplineSet
100 300 m 25xb0
 200 300 l 25xb0
 200 400 l 25
 400 400 l 25x70
 400 300 l 25
 500 300 l 25xb0
 500 400 l 25
 600 400 l 25
 600 300 l 25x70
 500 300 l 25
 500 200 l 25
 300 200 l 25xb0
 300 300 l 25x70
 200 300 l 25
 200 200 l 25
 100 200 l 25
 100 300 l 25xb0
EndSplineSet
EndChar

StartChar: currency
Encoding: 256 164 99
Width: 600
VWidth: 0
Flags: W
HStem: 0 100<0 104 521 625> 500 100<0 104 521 625>
VStem: 0 100<0 104 521 625> 500 100<0 104 521 625>
LayerCount: 2
Back
Fore
SplineSet
200 400 m 25
 200 200 l 25
 400 200 l 25
 400 400 l 25
 200 400 l 25
0 600 m 25
 100 600 l 25
 100 500 l 25
 500 500 l 25
 500 600 l 25
 600 600 l 25
 600 500 l 25
 500 500 l 25
 500 100 l 25
 600 100 l 25
 600 0 l 25
 500 0 l 25
 500 100 l 25
 100 100 l 25
 100 0 l 25
 0 0 l 25
 0 100 l 25
 100 100 l 25
 100 500 l 25
 0 500 l 25
 0 600 l 25
EndSplineSet
EndChar

StartChar: brokenbar
Encoding: 257 166 101
Width: 600
VWidth: 0
Flags: W
HStem: -100 0G<312 417> 600 0G<312 417>
VStem: 300 100<-104 625>
LayerCount: 2
Back
Fore
SplineSet
300 600 m 25
 400 600 l 25
 400 -100 l 25
 300 -100 l 25
 300 600 l 25
EndSplineSet
EndChar

StartChar: dieresis
Encoding: 258 168 103
Width: 600
VWidth: 0
Flags: W
HStem: 500 100<209 312 521 625>
VStem: 200 100<521 625> 500 100<521 625>
LayerCount: 2
Back
Fore
SplineSet
500 600 m 25
 600 600 l 25
 600 500 l 25
 500 500 l 25
 500 600 l 25
200 600 m 25
 300 600 l 25
 300 500 l 25
 200 500 l 25
 200 600 l 25
EndSplineSet
EndChar

StartChar: acute
Encoding: 259 180 114
Width: 600
VWidth: 0
Flags: W
HStem: 400 100<209 312> 700 0G<312 417>
VStem: 200 100<417 521> 300 100<521 729>
LayerCount: 2
Back
Fore
SplineSet
300 700 m 25xd0
 400 700 l 25
 400 500 l 25xd0
 300 500 l 25
 300 400 l 25
 200 400 l 25
 200 500 l 25
 300 500 l 25xe0
 300 700 l 25xd0
EndSplineSet
EndChar

StartChar: cedilla
Encoding: 260 184 118
Width: 600
VWidth: 0
Flags: W
HStem: -200 100<209 417> 0 100<312 417>
VStem: 300 100<0 104> 400 100<-104 0>
LayerCount: 2
Back
Fore
SplineSet
300 100 m 25xe0
 400 100 l 25
 400 0 l 25xe0
 500 0 l 25
 500 -200 l 25
 200 -200 l 25
 200 -100 l 25
 400 -100 l 25xd0
 400 0 l 25
 300 0 l 25
 300 100 l 25xe0
EndSplineSet
EndChar

StartChar: onequarter
Encoding: 261 188 122
Width: 600
VWidth: 0
Flags: W
HStem: -100 0G<417 521> 0 100<312 417 521 625> 100 100<0 104> 200 100<104 209 312 417> 300 100<209 312> 400 100<312 417> 500 100<417 521> 600 100<0 104>
VStem: 0 100<104 209> 100 100<209 312 417 625 729 833> 200 100<104 209 312 417> 300 100<417 521> 400 100<-104 0 104 209 312 417 521 625>
LayerCount: 2
Back
Fore
SplineSet
0 700 m 25x8580
 100 700 l 1
 100 800 l 1
 200 800 l 5
 200 400 l 1x8940
 300 400 l 25x8920
 300 500 l 25
 400 500 l 25x8410
 400 600 l 25
 500 600 l 25
 500 500 l 25x8208
 400 500 l 25
 400 400 l 25x8410
 500 400 l 25
 500 100 l 25
 600 100 l 25
 600 0 l 25
 500 0 l 25
 500 -100 l 25
 400 -100 l 25
 400 0 l 25
 200 0 l 25xc428
 200 200 l 25xd440
 300 200 l 25
 300 100 l 25
 400 100 l 25
 400 200 l 25
 300 200 l 25
 300 300 l 25
 400 300 l 25xd428
 400 400 l 25xd410
 300 400 l 25x8820
 300 300 l 25x9020
 200 300 l 25
 200 200 l 25x9040
 100 200 l 25
 100 100 l 25
 0 100 l 25
 0 200 l 25
 100 200 l 25xa080
 100 300 l 25
 200 300 l 25x9040
 200 400 l 25x8840
 100 400 l 25
 100 600 l 25x8540
 0 600 l 25
 0 700 l 25x8580
EndSplineSet
EndChar

StartChar: onehalf
Encoding: 262 189 123
Width: 600
VWidth: 0
Flags: W
HStem: 0 100<312 417 521 625> 100 100<0 104> 200 100<104 209 521 625> 300 100<209 312 417 521> 500 100<417 521> 600 100<0 104>
VStem: 0 100<104 209> 100 100<209 312 417 625 729 833> 300 100<417 521> 400 100<104 209 521 625> 500 100<209 312>
LayerCount: 2
Back
Fore
SplineSet
0 700 m 25x16
 100 700 l 1x15
 100 800 l 1
 200 800 l 5
 200 400 l 1
 300 400 l 25
 300 500 l 25
 400 500 l 25x1980
 400 600 l 25
 500 600 l 25
 500 500 l 25x1840
 400 500 l 25
 400 400 l 25
 500 400 l 25x18a0
 500 300 l 25
 600 300 l 25
 600 200 l 25x20a0
 500 200 l 25
 500 100 l 25xa040
 600 100 l 25
 600 0 l 25
 300 0 l 25
 300 100 l 25xa0a0
 400 100 l 25
 400 200 l 25
 500 200 l 25xa040
 500 300 l 25
 200 300 l 25
 200 200 l 25xa120
 100 200 l 25
 100 100 l 25
 0 100 l 25
 0 200 l 25
 100 200 l 25x42
 100 300 l 25
 200 300 l 25x21
 200 400 l 25
 100 400 l 25
 100 600 l 25x15
 0 600 l 25
 0 700 l 25x16
EndSplineSet
EndChar

StartChar: threequarters
Encoding: 263 190 124
Width: 600
VWidth: 0
Flags: W
HStem: -100 0G<417 521> 0 100<312 417 521 625> 100 100<0 104> 200 100<104 209 312 417> 400 100<0 209 312 417> 500 100<417 521> 700 100<0 104>
VStem: 0 100<104 209> 100 100<209 312> 200 100<104 209 312 417 521 625> 400 100<-104 0 104 209 312 417 521 625>
LayerCount: 2
Back
Fore
SplineSet
0 800 m 25x8720
 300 800 l 25
 300 500 l 25
 400 500 l 25x8b60
 400 600 l 25
 500 600 l 25
 500 500 l 25x8760
 400 500 l 25
 400 400 l 25
 500 400 l 25
 500 100 l 25
 600 100 l 25
 600 0 l 25
 500 0 l 25
 500 -100 l 25
 400 -100 l 25
 400 0 l 25
 200 0 l 25xcb60
 200 200 l 25xdaa0
 300 200 l 25
 300 100 l 25
 400 100 l 25
 400 200 l 25
 300 200 l 25
 300 300 l 25
 400 300 l 25
 400 400 l 25
 300 400 l 25
 300 300 l 25xda60
 200 300 l 25
 200 200 l 25xdaa0
 100 200 l 25
 100 100 l 25
 0 100 l 25
 0 200 l 25
 100 200 l 25xa320
 100 300 l 25
 200 300 l 25x92a0
 200 400 l 25
 0 400 l 25
 0 500 l 25
 200 500 l 25x9b60
 200 600 l 25x8760
 100 600 l 25
 100 700 l 25x86a0
 0 700 l 25
 0 800 l 25x8720
EndSplineSet
EndChar

StartChar: questiondown
Encoding: 191 191 125
Width: 600
VWidth: 0
Flags: W
HStem: -100 100<209 417> 0 100<417 521> 200 100<209 312> 300 100<312 417> 500 100<312 417>
VStem: 100 100<0 209> 200 100<209 312> 300 100<312 417 521 625> 400 100<0 104>
LayerCount: 2
Back
Fore
SplineSet
300 400 m 25x19
 400 400 l 25
 400 300 l 25x19
 300 300 l 25
 300 200 l 25x2a
 200 200 l 25
 200 0 l 25
 400 0 l 25xac80
 400 100 l 25
 500 100 l 25
 500 0 l 25x4c80
 400 0 l 25
 400 -100 l 25
 200 -100 l 25x8a80
 200 0 l 25x8c
 100 0 l 25
 100 200 l 25
 200 200 l 25x6c
 200 300 l 25
 300 300 l 25x6a
 300 400 l 25x19
300 600 m 25
 400 600 l 25
 400 500 l 25
 300 500 l 25
 300 600 l 25
EndSplineSet
EndChar

StartChar: Agrave
Encoding: 192 192 126
Width: 600
VWidth: 0
Flags: W
HStem: 0 0G<104 312 417 521> 200 100<312 417> 500 0G<417 521> 500 100<312 417>
VStem: 100 200<0 209 312 521> 400 100<0 209 312 521>
LayerCount: 2
Back
Fore
SplineSet
200 700 m 1
 200 800 l 29
 300 800 l 29
 300 700 l 1
 400 700 l 25
 400 600 l 25
 300 600 l 25
 300 700 l 25
 200 700 l 1
100 500 m 25xdc
 200 500 l 25
 200 600 l 25
 400 600 l 25xdc
 400 500 l 25xec
 300 500 l 25xdc
 300 300 l 25
 400 300 l 25
 400 500 l 25
 500 500 l 25xec
 500 0 l 25
 400 0 l 25
 400 200 l 25
 300 200 l 25
 300 0 l 25
 100 0 l 25
 100 500 l 25xdc
EndSplineSet
EndChar

StartChar: Aacute
Encoding: 193 193 127
Width: 600
VWidth: 0
Flags: W
HStem: 0 0G<104 312 417 521> 200 100<312 417> 500 0G<417 521> 500 100<312 417>
VStem: 100 200<0 209 312 521> 400 100<0 209 312 521>
LayerCount: 2
Back
Fore
SplineSet
200 600 m 25
 200 700 l 25
 300 700 l 1
 300 800 l 29
 400 800 l 29
 400 700 l 1
 300 700 l 25
 300 600 l 25
 200 600 l 25
100 500 m 25xdc
 200 500 l 25
 200 600 l 25
 400 600 l 25xdc
 400 500 l 25xec
 300 500 l 25xdc
 300 300 l 25
 400 300 l 25
 400 500 l 25
 500 500 l 25xec
 500 0 l 25
 400 0 l 25
 400 200 l 25
 300 200 l 25
 300 0 l 25
 100 0 l 25
 100 500 l 25xdc
EndSplineSet
EndChar

StartChar: Acircumflex
Encoding: 194 194 128
Width: 600
VWidth: 0
Flags: W
HStem: 0 0G<104 312 417 521> 200 100<312 417> 500 0G<417 521> 500 100<312 417>
VStem: 100 200<0 209 312 521> 400 100<0 209 312 521>
LayerCount: 2
Back
Fore
SplineSet
100 600 m 25
 100 700 l 25
 200 700 l 1
 200 800 l 29
 400 800 l 29
 400 700 l 1
 500 700 l 25
 500 600 l 25
 400 600 l 25
 400 700 l 25
 200 700 l 25
 200 600 l 25
 100 600 l 25
100 500 m 25xdc
 200 500 l 25
 200 600 l 25
 400 600 l 25xdc
 400 500 l 25xec
 300 500 l 25xdc
 300 300 l 25
 400 300 l 25
 400 500 l 25
 500 500 l 25xec
 500 0 l 25
 400 0 l 25
 400 200 l 25
 300 200 l 25
 300 0 l 25
 100 0 l 25
 100 500 l 25xdc
EndSplineSet
EndChar

StartChar: Atilde
Encoding: 195 195 129
Width: 600
VWidth: 0
Flags: W
HStem: 0 0G<104 312 417 521> 200 100<312 417> 500 0G<417 521> 500 100<312 417>
VStem: 100 200<0 209 312 521> 400 100<0 209 312 521>
LayerCount: 2
Back
Fore
SplineSet
100 700 m 1049
100 600 m 25,1,-1
 100 700 l 25,2,-1
 200 700 l 1,3,-1
 200 800 l 29,4,-1
 300 800 l 29,5,-1
 300 700 l 1,6,-1
 400 700 l 1,7,-1
 400 800 l 29,8,-1
 500 800 l 29,9,-1
 500 700 l 1,10,-1
 400 700 l 25,11,-1
 400 600 l 25,12,-1
 300 600 l 25,13,-1
 300 700 l 25,14,-1
 200 700 l 25,15,-1
 200 600 l 25,16,-1
 100 600 l 25,1,-1
100 500 m 25,0,-1
 200 500 l 25,1,-1
 200 600 l 25,2,-1
 400 600 l 25,3,-1
 400 500 l 25,4,-1
 300 500 l 25,5,-1
 300 300 l 25,6,-1
 400 300 l 25,7,-1
 400 500 l 25,8,-1
 500 500 l 25,9,-1
 500 0 l 25,10,-1
 400 0 l 25,11,-1
 400 200 l 25,12,-1
 300 200 l 25,13,-1
 300 0 l 25,14,-1
 100 0 l 25,15,-1
 100 500 l 25,0,-1
EndSplineSet
EndChar

StartChar: null.dup1
Encoding: 196 196 130
Width: 600
VWidth: 0
Flags: W
HStem: 0 0G<104 312 417 521> 200 100<312 417> 500 0G<417 521> 500 100<312 417>
VStem: 100 200<0 209 312 521> 400 100<0 209 312 521>
LayerCount: 2
Back
Fore
SplineSet
400 700 m 1
 400 800 l 29
 500 800 l 29
 500 700 l 1
 400 700 l 1
200 700 m 1
 200 800 l 29
 300 800 l 29
 300 700 l 1
 200 700 l 1
100 500 m 25xdc
 200 500 l 25
 200 600 l 25
 400 600 l 25xdc
 400 500 l 25xec
 300 500 l 25xdc
 300 300 l 25
 400 300 l 25
 400 500 l 25
 500 500 l 25xec
 500 0 l 25
 400 0 l 25
 400 200 l 25
 300 200 l 25
 300 0 l 25
 100 0 l 25
 100 500 l 25xdc
EndSplineSet
EndChar

StartChar: Aring
Encoding: 197 197 131
Width: 600
VWidth: 0
Flags: W
LayerCount: 2
Back
Fore
SplineSet
100 0 m 29
 100 400 l 25
 200 400 l 25
 200 500 l 25
 300 500 l 25
 300 600 l 25
 200 600 l 25
 200 700 l 25
 300 700 l 25
 300 800 l 25
 400 800 l 25
 400 700 l 25
 300 700 l 25
 300 600 l 25
 400 600 l 25
 400 700 l 25
 500 700 l 25
 500 600 l 25
 400 600 l 25
 400 400 l 25
 300 400 l 25
 300 300 l 25
 400 300 l 25
 400 400 l 25
 500 400 l 25
 500 0 l 25
 400 0 l 25
 400 200 l 25
 300 200 l 25
 300 0 l 25
 100 0 l 29
EndSplineSet
EndChar

StartChar: AE
Encoding: 198 198 132
Width: 600
VWidth: 0
Flags: W
HStem: 0 0G<-2 206 311 416> 200 100<206 311> 500 0G<311 416> 500 100<206 311>
VStem: 0 200<0 209 312 521> 300 100<0 209 312 521>
LayerCount: 2
Back
Fore
SplineSet
0 0 m 29
 0 400 l 25
 0 500 l 25
 100 500 l 25
 100 300 l 25
 200 300 l 25
 200 500 l 25
 100 500 l 25
 100 600 l 25
 500 600 l 25
 500 500 l 25
 400 500 l 25
 400 300 l 25
 500 300 l 25
 500 200 l 25
 400 200 l 25
 400 100 l 25
 500 100 l 25
 500 0 l 25
 200 0 l 25
 200 200 l 25
 100 200 l 25
 100 0 l 25
 0 0 l 29
EndSplineSet
EndChar

StartChar: Ccedilla
Encoding: 199 199 133
Width: 600
VWidth: 0
Flags: W
HStem: 0 100<312 521> 500 100<312 521>
VStem: 100 200<104 521> 200 300<0 104 521 625>
LayerCount: 2
Back
Fore
SplineSet
200 -200 m 29
 200 -100 l 25
 300 -100 l 25
 300 0 l 25
 400 0 l 25
 400 -100 l 25
 300 -100 l 25
 300 -200 l 25
 200 -200 l 29
200 600 m 25xd0
 500 600 l 25
 500 500 l 25xd0
 300 500 l 25
 300 100 l 25xe0
 500 100 l 25
 500 0 l 25
 200 0 l 25
 200 100 l 25xd0
 100 100 l 25
 100 500 l 25xe0
 200 500 l 25
 200 600 l 25xd0
EndSplineSet
EndChar

StartChar: Egrave
Encoding: 200 200 134
Width: 600
VWidth: 0
Flags: W
HStem: 0 100<312 521> 300 100<312 417> 500 100<312 521>
VStem: 100 200<104 312 417 521>
LayerCount: 2
Back
Fore
SplineSet
200 700 m 1
 200 800 l 29
 300 800 l 29
 300 700 l 1
 400 700 l 25
 400 600 l 25
 300 600 l 25
 300 700 l 25
 200 700 l 1
100 600 m 25
 500 600 l 25
 500 500 l 25
 300 500 l 25
 300 400 l 25
 400 400 l 25
 400 300 l 25
 300 300 l 25
 300 100 l 25
 500 100 l 25
 500 0 l 25
 100 0 l 25
 100 600 l 25
EndSplineSet
EndChar

StartChar: Eacute
Encoding: 201 201 135
Width: 600
VWidth: 0
Flags: W
HStem: 0 100<312 521> 300 100<312 417> 500 100<312 521>
VStem: 100 200<104 312 417 521>
LayerCount: 2
Back
Fore
SplineSet
200 700 m 25
 300 700 l 1
 300 800 l 29
 400 800 l 29
 400 700 l 1
 300 700 l 25
 300 600 l 25
 200 600 l 25
 200 700 l 25
100 600 m 17
 200 600 l 1
 500 600 l 9
 500 500 l 25
 300 500 l 25
 300 400 l 25
 400 400 l 25
 400 300 l 25
 300 300 l 25
 300 100 l 25
 500 100 l 25
 500 0 l 25
 100 0 l 25
 100 600 l 17
EndSplineSet
EndChar

StartChar: Ecircumflex
Encoding: 202 202 136
Width: 600
VWidth: 0
Flags: W
HStem: 0 100<312 521> 300 100<312 417> 500 100<312 521>
VStem: 100 200<104 312 417 521>
LayerCount: 2
Back
Fore
SplineSet
100 700 m 25
 200 700 l 1
 200 800 l 25
 400 800 l 25
 400 700 l 1
 500 700 l 25
 500 600 l 25
 400 600 l 25
 400 700 l 25
 200 700 l 25
 200 600 l 25
 100 600 l 25
 100 700 l 25
100 600 m 25
 500 600 l 25
 500 500 l 25
 300 500 l 25
 300 400 l 25
 400 400 l 25
 400 300 l 25
 300 300 l 25
 300 100 l 25
 500 100 l 25
 500 0 l 25
 100 0 l 25
 100 600 l 25
EndSplineSet
EndChar

StartChar: Edieresis
Encoding: 203 203 137
Width: 600
VWidth: 0
Flags: W
HStem: 0 100<312 521> 300 100<312 417> 500 100<312 521>
VStem: 100 200<104 312 417 521>
LayerCount: 2
Back
Fore
SplineSet
400 700 m 1
 400 800 l 29
 500 800 l 29
 500 700 l 1
 400 700 l 1
200 700 m 1
 200 800 l 29
 300 800 l 29
 300 700 l 1
 200 700 l 1
100 600 m 25
 500 600 l 25
 500 500 l 25
 300 500 l 25
 300 400 l 25
 400 400 l 25
 400 300 l 25
 300 300 l 25
 300 100 l 25
 500 100 l 25
 500 0 l 25
 100 0 l 25
 100 600 l 25
EndSplineSet
EndChar

StartChar: Igrave
Encoding: 204 204 138
Width: 600
VWidth: 0
Flags: W
HStem: 0 0G<209 417> 600 0G<209 417>
VStem: 200 200<0 625>
LayerCount: 2
Back
Fore
SplineSet
200 800 m 25
 300 800 l 25
 300 700 l 1
 400 700 l 25
 400 600 l 25
 300 600 l 25
 300 700 l 25
 200 700 l 1
 200 800 l 25
200 500 m 25
 400 500 l 25
 400 0 l 1
 200 0 l 1
 200 500 l 25
EndSplineSet
EndChar

StartChar: Iacute
Encoding: 205 205 139
Width: 600
VWidth: 0
Flags: W
HStem: 0 0G<209 417> 600 0G<209 417>
VStem: 200 200<0 625>
LayerCount: 2
Back
Fore
SplineSet
200 600 m 25
 200 700 l 25
 300 700 l 1
 300 800 l 29
 400 800 l 29
 400 700 l 1
 300 700 l 25
 300 600 l 25
 200 600 l 25
200 500 m 1
 400 500 l 1
 400 0 l 1
 200 0 l 1
 200 500 l 1
EndSplineSet
EndChar

StartChar: Icircumflex
Encoding: 206 206 140
Width: 600
VWidth: 0
Flags: W
HStem: 0 0G<209 417> 600 0G<209 417>
VStem: 200 200<0 625>
LayerCount: 2
Back
Fore
SplineSet
100 600 m 25
 100 700 l 25
 200 700 l 1
 200 800 l 29
 400 800 l 29
 400 700 l 1
 500 700 l 25
 500 600 l 25
 400 600 l 25
 400 700 l 25
 200 700 l 25
 200 600 l 25
 100 600 l 25
200 500 m 1
 400 500 l 1
 400 0 l 1
 200 0 l 1
 200 500 l 1
EndSplineSet
EndChar

StartChar: Idieresis
Encoding: 207 207 141
Width: 600
VWidth: 0
Flags: W
HStem: 0 0G<209 417> 600 0G<209 417>
VStem: 200 200<0 625>
LayerCount: 2
Back
Fore
SplineSet
400 600 m 29
 400 700 l 25
 500 700 l 25
 500 600 l 25
 400 600 l 29
200 600 m 25
 200 700 l 25
 300 700 l 25
 300 600 l 25
 200 600 l 25
200 500 m 1
 400 500 l 1
 400 0 l 1
 200 0 l 1
 200 500 l 1
EndSplineSet
EndChar

StartChar: Eth
Encoding: 208 208 142
Width: 600
VWidth: 0
Flags: W
HStem: 0 100<312 521> 300 100<104 209 312 417> 500 0G<521 625> 500 100<312 521>
VStem: 200 300<0 104 521 625> 200 100<104 312 417 521> 500 100<104 521>
LayerCount: 2
Back
Fore
SplineSet
0 400 m 1xe4
 100 400 l 1xe4
 100 600 l 1
 500 600 l 1xd8
 500 500 l 25xe8
 300 500 l 25
 300 400 l 25
 400 400 l 25
 400 300 l 25
 300 300 l 25
 300 100 l 25xd4
 500 100 l 25
 500 500 l 25xe8
 600 500 l 25
 600 100 l 25xe2
 500 100 l 25
 500 0 l 1
 100 0 l 5xe8
 100 300 l 1
 0 300 l 1
 0 400 l 1xe4
EndSplineSet
EndChar

StartChar: Ntilde
Encoding: 209 209 143
Width: 600
VWidth: 0
Flags: W
HStem: 0 0G<104 312 521 625> 200 100<417 521> 300 100<312 417> 600 0G<104 312 521 625>
VStem: 100 200<0 312 417 625> 500 100<0 209 312 625>
LayerCount: 2
Back
Fore
SplineSet
200 700 m 25
 300 700 l 25
 300 800 l 25
 400 800 l 25
 400 700 l 25
 500 700 l 25
 500 800 l 25
 600 800 l 25
 600 700 l 25
 500 700 l 25
 500 600 l 1
 400 600 l 1
 400 700 l 25
 300 700 l 25
 300 600 l 1
 200 600 l 1
 200 700 l 25
100 600 m 25xbc
 300 600 l 25
 300 400 l 25
 400 400 l 25xbc
 400 300 l 25
 500 300 l 25
 500 600 l 25
 600 600 l 25
 600 0 l 25
 500 0 l 25
 500 200 l 25
 400 200 l 25
 400 300 l 25xdc
 300 300 l 25
 300 0 l 25
 100 0 l 25
 100 600 l 25xbc
EndSplineSet
EndChar

StartChar: Ograve
Encoding: 210 210 144
Width: 600
VWidth: 0
Flags: W
HStem: 0 100<312 417> 500 0G<417 521> 500 100<312 417>
VStem: 100 200<104 521> 200 200<0 104 521 625> 400 100<104 521>
LayerCount: 2
Back
Fore
SplineSet
200 700 m 1
 200 800 l 29
 300 800 l 29
 300 700 l 1
 400 700 l 25
 400 600 l 25
 300 600 l 25
 300 700 l 25
 200 700 l 1
100 500 m 25xb0
 200 500 l 25
 200 600 l 25
 400 600 l 25xa8
 400 500 l 25xc8
 300 500 l 25
 300 100 l 25xb0
 400 100 l 25
 400 500 l 25xc8
 500 500 l 25
 500 100 l 25xc4
 400 100 l 25
 400 0 l 25
 200 0 l 25
 200 100 l 25xc8
 100 100 l 25
 100 500 l 25xb0
EndSplineSet
EndChar

StartChar: Oacute
Encoding: 211 211 145
Width: 600
VWidth: 0
Flags: W
HStem: 0 100<312 417> 500 0G<417 521> 500 100<312 417>
VStem: 100 200<104 521> 200 200<0 104 521 625> 400 100<104 521>
LayerCount: 2
Back
Fore
SplineSet
200 700 m 25
 300 700 l 1
 300 800 l 29
 400 800 l 29
 400 700 l 1
 300 700 l 25
 300 600 l 25
 200 600 l 25
 200 700 l 25
100 500 m 25xb0
 200 500 l 25
 200 600 l 25
 400 600 l 25xa8
 400 500 l 25xc8
 300 500 l 25
 300 100 l 25xb0
 400 100 l 25
 400 500 l 25xc8
 500 500 l 25
 500 100 l 25xc4
 400 100 l 25
 400 0 l 25
 200 0 l 25
 200 100 l 25xc8
 100 100 l 25
 100 500 l 25xb0
EndSplineSet
EndChar

StartChar: Ocircumflex
Encoding: 212 212 146
Width: 600
VWidth: 0
Flags: W
HStem: 0 100<312 417> 500 0G<417 521> 500 100<312 417>
VStem: 100 200<104 521> 200 200<0 104 521 625> 400 100<104 521>
LayerCount: 2
Back
Fore
SplineSet
100 600 m 25
 100 700 l 25
 200 700 l 1
 200 800 l 29
 400 800 l 29
 400 700 l 1
 500 700 l 25
 500 600 l 25
 400 600 l 25
 400 700 l 25
 200 700 l 25
 200 600 l 25
 100 600 l 25
100 500 m 25xb0
 200 500 l 25
 200 600 l 25
 400 600 l 25xa8
 400 500 l 25xc8
 300 500 l 25
 300 100 l 25xb0
 400 100 l 25
 400 500 l 25xc8
 500 500 l 25
 500 100 l 25xc4
 400 100 l 25
 400 0 l 25
 200 0 l 25
 200 100 l 25xc8
 100 100 l 25
 100 500 l 25xb0
EndSplineSet
EndChar

StartChar: Otilde
Encoding: 213 213 147
Width: 600
VWidth: 0
Flags: W
HStem: 0 100<312 417> 500 0G<417 521> 500 100<312 417>
VStem: 100 200<104 521> 200 200<0 104 521 625> 400 100<104 521>
LayerCount: 2
Back
Fore
SplineSet
100 600 m 25
 100 700 l 25
 200 700 l 1
 200 800 l 25
 300 800 l 25
 300 700 l 1
 400 700 l 1
 400 800 l 25
 500 800 l 25
 500 700 l 1
 400 700 l 25
 400 600 l 25
 300 600 l 25
 300 700 l 25
 200 700 l 25
 200 600 l 25
 100 600 l 25
100 500 m 25xb0
 200 500 l 25
 200 600 l 25
 400 600 l 25xa8
 400 500 l 25xc8
 300 500 l 25
 300 100 l 25xb0
 400 100 l 25
 400 500 l 25xc8
 500 500 l 25
 500 100 l 25xc4
 400 100 l 25
 400 0 l 25
 200 0 l 25
 200 100 l 25xc8
 100 100 l 25
 100 500 l 25xb0
EndSplineSet
EndChar

StartChar: Odieresis
Encoding: 214 214 148
Width: 600
VWidth: 0
Flags: W
HStem: 0 100<312 417> 500 0G<417 521> 500 100<312 417>
VStem: 100 200<104 521> 200 200<0 104 521 625> 400 100<104 521>
LayerCount: 2
Back
Fore
SplineSet
400 800 m 29
 500 800 l 29
 500 700 l 1
 400 700 l 1
 400 800 l 29
200 800 m 29
 300 800 l 29
 300 700 l 1
 200 700 l 1
 200 800 l 29
100 500 m 25xb0
 200 500 l 25
 200 600 l 25
 400 600 l 25xa8
 400 500 l 25xc8
 300 500 l 25
 300 100 l 25xb0
 400 100 l 25
 400 500 l 25xc8
 500 500 l 25
 500 100 l 25xc4
 400 100 l 25
 400 0 l 25
 200 0 l 25
 200 100 l 25xc8
 100 100 l 25
 100 500 l 25xb0
EndSplineSet
EndChar

StartChar: multiply
Encoding: 215 215 149
Width: 600
VWidth: 0
Flags: W
HStem: 200 100<209 312 417 521> 400 100<209 312 417 521>
VStem: 200 100<209 312 417 521> 400 100<209 312 417 521>
LayerCount: 2
Back
Fore
SplineSet
200 500 m 25
 300 500 l 25
 300 400 l 25
 400 400 l 25
 400 500 l 25
 500 500 l 25
 500 400 l 25
 400 400 l 25
 400 300 l 25
 500 300 l 25
 500 200 l 25
 400 200 l 25
 400 300 l 25
 300 300 l 25
 300 200 l 25
 200 200 l 25
 200 300 l 25
 300 300 l 25
 300 400 l 25
 200 400 l 25
 200 500 l 25
EndSplineSet
EndChar

StartChar: Oslash
Encoding: 216 216 150
Width: 600
VWidth: 0
Flags: W
HStem: 0 100<0 104 209 417> 300 100<312 417> 500 100<209 417 521 625>
VStem: 0 100<0 104> 100 100<104 209 312 521> 200 200<0 104 521 625> 400 100<104 312 417 521> 500 100<521 625>
LayerCount: 2
Back
Fore
SplineSet
0 0 m 29
 0 100 l 25
 100 100 l 25
 100 500 l 25
 200 500 l 25
 200 600 l 25
 400 600 l 25
 400 500 l 25
 300 500 l 25
 300 400 l 25
 400 400 l 25
 400 500 l 25
 500 500 l 25
 500 600 l 25
 600 600 l 25
 600 500 l 25
 500 500 l 25
 500 100 l 25
 400 100 l 25
 400 300 l 25
 300 300 l 25
 300 100 l 25
 400 100 l 25
 400 0 l 25
 200 0 l 25
 200 100 l 25
 100 100 l 25
 100 0 l 25
 0 0 l 29
EndSplineSet
EndChar

StartChar: Ugrave
Encoding: 217 217 151
Width: 600
VWidth: 0
Flags: W
HStem: 0 100<312 417> 600 0G<104 312 417 521>
VStem: 100 200<104 625> 400 100<104 625>
LayerCount: 2
Back
Fore
SplineSet
200 700 m 1
 200 800 l 29
 300 800 l 29
 300 700 l 1
 400 700 l 25
 400 600 l 25
 300 600 l 25
 300 700 l 25
 200 700 l 1
100 600 m 25
 300 600 l 25
 300 100 l 25
 400 100 l 25
 400 600 l 25
 500 600 l 25
 500 0 l 25
 200 0 l 25
 200 100 l 25
 100 100 l 25
 100 600 l 25
EndSplineSet
EndChar

StartChar: Uacute
Encoding: 218 218 152
Width: 600
VWidth: 0
Flags: W
HStem: 0 100<312 417> 600 0G<104 312 417 521>
VStem: 100 200<104 625> 400 100<104 625>
LayerCount: 2
Back
Fore
SplineSet
200 700 m 25
 300 700 l 1
 300 800 l 29
 400 800 l 29
 400 700 l 1
 300 700 l 25
 300 600 l 25
 200 600 l 25
 200 700 l 25
100 600 m 25
 300 600 l 25
 300 100 l 25
 400 100 l 25
 400 600 l 25
 500 600 l 25
 500 0 l 25
 200 0 l 25
 200 100 l 25
 100 100 l 25
 100 600 l 25
EndSplineSet
EndChar

StartChar: Ucircumflex
Encoding: 219 219 153
Width: 600
VWidth: 0
Flags: W
HStem: 0 100<312 417> 600 0G<104 312 417 521>
VStem: 100 200<104 625> 400 100<104 625>
LayerCount: 2
Back
Fore
SplineSet
100 600 m 5
 100 700 l 1
 200 700 l 1
 200 800 l 25
 400 800 l 25
 400 700 l 25
 500 700 l 25
 500 600 l 1
 400 600 l 1
 400 700 l 25
 200 700 l 25
 200 600 l 1
 100 600 l 5
100 600 m 25
 300 600 l 25
 300 100 l 25
 400 100 l 25
 400 600 l 25
 500 600 l 25
 500 0 l 25
 200 0 l 25
 200 100 l 25
 100 100 l 25
 100 600 l 25
EndSplineSet
EndChar

StartChar: Udieresis
Encoding: 220 220 154
Width: 600
VWidth: 0
Flags: W
HStem: 0 100<312 417> 600 0G<104 312 417 521>
VStem: 100 200<104 625> 400 100<104 625>
LayerCount: 2
Back
Fore
SplineSet
400 700 m 1
 400 800 l 29
 500 800 l 29
 500 700 l 1
 400 700 l 1
200 700 m 1
 200 800 l 29
 300 800 l 29
 300 700 l 1
 200 700 l 1
100 600 m 25
 300 600 l 25
 300 100 l 25
 400 100 l 25
 400 600 l 25
 500 600 l 25
 500 0 l 25
 200 0 l 25
 200 100 l 25
 100 100 l 25
 100 600 l 25
EndSplineSet
EndChar

StartChar: Yacute
Encoding: 221 221 155
Width: 600
VWidth: 0
Flags: W
HStem: 0 0G<209 417> 300 100<417 521> 400 200<0 104 521 625>
VStem: 0 200<417 625> 400 100<312 417> 500 100<417 625>
LayerCount: 2
Back
Fore
SplineSet
300 600 m 25
 300 700 l 25
 400 700 l 1
 400 800 l 29
 500 800 l 29
 500 700 l 1
 400 700 l 25
 400 600 l 25
 300 600 l 25
0 600 m 25xb8
 200 600 l 25
 200 400 l 25
 300 400 l 25xb8
 300 300 l 25
 400 300 l 25
 400 400 l 25
 500 400 l 25xd8
 500 600 l 25
 600 600 l 25
 600 400 l 25xb4
 500 400 l 25
 500 300 l 25
 400 300 l 25
 400 0 l 25
 200 0 l 25
 200 300 l 25
 100 300 l 25xd8
 100 400 l 25
 0 400 l 25
 0 600 l 25xb8
EndSplineSet
EndChar

StartChar: Thorn
Encoding: 222 222 156
Width: 600
VWidth: 0
Flags: W
HStem: -100 0G<104 209> 100 100<209 417> 400 100<209 417> 700 0G<104 209>
VStem: 100 300<104 209 417 521> 100 100<-104 104 209 417 521 729> 400 100<209 417>
LayerCount: 2
Back
Fore
SplineSet
100 700 m 1xf4
 300 700 l 1
 300 500 l 1xf4
 400 500 l 1
 400 400 l 1xf8
 300 400 l 1
 300 200 l 1xf4
 400 200 l 1
 400 400 l 25xf8
 500 400 l 25
 500 200 l 25xf2
 400 200 l 25
 400 100 l 1xf8
 300 100 l 1
 300 -100 l 5
 100 -100 l 1
 100 700 l 1xf4
EndSplineSet
EndChar

StartChar: germandbls
Encoding: 223 223 157
Width: 600
VWidth: 0
Flags: W
HStem: -100 0G<104 209> 0 100<312 417> 600 100<209 312>
VStem: 100 100<-104 625> 300 100<0 104 417 625> 400 100<104 417>
LayerCount: 2
Back
Fore
SplineSet
100 600 m 1xf8
 200 600 l 25
 200 700 l 1
 400 700 l 25xf4
 400 400 l 25xf8
 500 400 l 25
 500 100 l 25xf4
 400 100 l 25
 400 0 l 25
 300 0 l 25
 300 100 l 25
 400 100 l 25
 400 400 l 1
 300 400 l 5
 300 400 l 5
 300 -100 l 1
 100 -100 l 1
 100 600 l 1xf8
EndSplineSet
EndChar

StartChar: agrave
Encoding: 224 224 158
Width: 600
VWidth: 0
Flags: W
HStem: 0 100<209 312 521 625> 400 100<209 312>
VStem: 100 100<104 417> 300 200<104 417> 500 100<0 104>
LayerCount: 2
Back
Fore
SplineSet
200 700 m 1
 200 800 l 29
 300 800 l 29
 300 700 l 1
 400 700 l 25
 400 600 l 25
 300 600 l 25
 300 700 l 25
 200 700 l 1
200 500 m 25xf0
 500 500 l 25xe8
 500 100 l 25xf0
 600 100 l 25
 600 0 l 25
 500 0 l 25xe8
 500 100 l 25
 400 100 l 25
 400 0 l 25
 200 0 l 25
 200 100 l 25
 300 100 l 25
 300 400 l 25
 200 400 l 25
 200 100 l 25
 100 100 l 25
 100 400 l 25
 200 400 l 25
 200 500 l 25xf0
EndSplineSet
EndChar

StartChar: aacute
Encoding: 225 225 159
Width: 600
VWidth: 0
Flags: W
HStem: 0 100<209 312 521 625> 400 100<209 312>
VStem: 100 100<104 417> 300 200<104 417> 500 100<0 104>
LayerCount: 2
Back
Fore
SplineSet
200 600 m 25
 200 700 l 25
 300 700 l 1
 300 800 l 29
 400 800 l 29
 400 700 l 1
 300 700 l 25
 300 600 l 25
 200 600 l 25
200 500 m 25xf0
 500 500 l 25xe8
 500 100 l 25xf0
 600 100 l 25
 600 0 l 25
 500 0 l 25xe8
 500 100 l 25
 400 100 l 25
 400 0 l 25
 200 0 l 25
 200 100 l 25
 300 100 l 25
 300 400 l 25
 200 400 l 25
 200 100 l 25
 100 100 l 25
 100 400 l 25
 200 400 l 25
 200 500 l 25xf0
EndSplineSet
EndChar

StartChar: acircumflex
Encoding: 226 226 160
Width: 600
VWidth: 0
Flags: W
HStem: 0 100<209 312 521 625> 400 100<209 312>
VStem: 100 100<104 417> 300 200<104 417> 500 100<0 104>
LayerCount: 2
Back
Fore
SplineSet
100 600 m 25
 100 700 l 25
 200 700 l 1
 200 800 l 29
 400 800 l 29
 400 700 l 1
 500 700 l 25
 500 600 l 25
 400 600 l 25
 400 700 l 25
 200 700 l 25
 200 600 l 25
 100 600 l 25
200 500 m 25xf0
 500 500 l 25xe8
 500 100 l 25xf0
 600 100 l 25
 600 0 l 25
 500 0 l 25xe8
 500 100 l 25
 400 100 l 25
 400 0 l 25
 200 0 l 25
 200 100 l 25
 300 100 l 25
 300 400 l 25
 200 400 l 25
 200 100 l 25
 100 100 l 25
 100 400 l 25
 200 400 l 25
 200 500 l 25xf0
EndSplineSet
EndChar

StartChar: atilde
Encoding: 227 227 161
Width: 600
VWidth: 0
Flags: W
HStem: 0 100<209 312 521 625> 400 100<209 312>
VStem: 100 100<104 417> 300 200<104 417> 500 100<0 104>
LayerCount: 2
Back
Fore
SplineSet
100 600 m 25
 100 700 l 25
 200 700 l 1
 200 800 l 29
 300 800 l 29
 300 700 l 1
 400 700 l 1
 400 800 l 29
 500 800 l 29
 500 700 l 1
 400 700 l 25
 400 600 l 25
 300 600 l 25
 300 700 l 25
 200 700 l 25
 200 600 l 25
 100 600 l 25
200 500 m 25xf0
 500 500 l 25xe8
 500 100 l 25xf0
 600 100 l 25
 600 0 l 25
 500 0 l 25xe8
 500 100 l 25
 400 100 l 25
 400 0 l 25
 200 0 l 25
 200 100 l 25
 300 100 l 25
 300 400 l 25
 200 400 l 25
 200 100 l 25
 100 100 l 25
 100 400 l 25
 200 400 l 25
 200 500 l 25xf0
EndSplineSet
EndChar

StartChar: adieresis
Encoding: 228 228 162
Width: 600
VWidth: 0
Flags: W
HStem: 0 100<209 312 521 625> 400 100<209 312>
VStem: 100 100<104 417> 300 200<104 417> 500 100<0 104>
LayerCount: 2
Back
Fore
SplineSet
400 600 m 29
 400 700 l 25
 500 700 l 25
 500 600 l 25
 400 600 l 29
200 600 m 25
 200 700 l 25
 300 700 l 25
 300 600 l 25
 200 600 l 25
200 500 m 25xf0
 500 500 l 25xe8
 500 100 l 25xf0
 600 100 l 25
 600 0 l 25
 500 0 l 25xe8
 500 100 l 25
 400 100 l 25
 400 0 l 25
 200 0 l 25
 200 100 l 25
 300 100 l 25
 300 400 l 25
 200 400 l 25
 200 100 l 25
 100 100 l 25
 100 400 l 25
 200 400 l 25
 200 500 l 25xf0
EndSplineSet
EndChar

StartChar: aring
Encoding: 229 229 163
Width: 600
VWidth: 0
Flags: W
HStem: 0 100<209 312 521 625> 400 100<209 312>
VStem: 100 100<104 417> 300 200<104 417> 500 100<0 104>
LayerCount: 2
Back
Fore
SplineSet
200 600 m 5
 200 700 l 29
 300 700 l 29
 300 800 l 29
 400 800 l 29
 400 700 l 29
 500 700 l 29
 500 600 l 5
 400 600 l 5
 400 700 l 29
 300 700 l 29
 300 600 l 5
 400 600 l 5
 400 500 l 1
 300 500 l 1
 300 600 l 5
 200 600 l 5
200 500 m 25xf0
 500 500 l 25xe8
 500 100 l 25xf0
 600 100 l 25
 600 0 l 25
 500 0 l 25xe8
 500 100 l 25
 400 100 l 25
 400 0 l 25
 200 0 l 25
 200 100 l 25
 300 100 l 25
 300 400 l 25
 200 400 l 25
 200 100 l 25
 100 100 l 25
 100 400 l 25
 200 400 l 25
 200 500 l 25xf0
EndSplineSet
EndChar

StartChar: ae
Encoding: 230 230 164
Width: 600
VWidth: 0
Flags: W
HStem: 0 100<104 312 417 625> 100 100<0 104> 200 100<104 312 417 521> 400 100<104 312 417 521>
VStem: 0 100<104 209> 300 100<104 209 312 417> 500 100<312 417>
LayerCount: 2
Back
Fore
SplineSet
100 500 m 25x3e
 500 500 l 25
 500 400 l 25
 400 400 l 25
 400 300 l 25
 500 300 l 25
 500 400 l 25
 600 400 l 25
 600 200 l 25
 400 200 l 25
 400 100 l 25
 600 100 l 25
 600 0 l 25
 400 0 l 25
 400 100 l 1
 300 100 l 29
 300 0 l 1
 100 0 l 25
 100 100 l 1
 200 100 l 1
 200 200 l 1xbe
 100 200 l 1x5e
 100 100 l 25x9e
 0 100 l 25
 0 200 l 25
 100 200 l 25x5e
 100 300 l 1
 200 300 l 1
 200 400 l 1
 100 400 l 1
 100 500 l 25x3e
EndSplineSet
EndChar

StartChar: ccedilla
Encoding: 231 231 165
Width: 600
VWidth: 0
Flags: W
HStem: 0 100<312 521> 400 100<312 521>
VStem: 100 200<104 417> 200 300<0 104 417 521>
LayerCount: 2
Back
Fore
SplineSet
200 -200 m 29
 200 -100 l 25
 300 -100 l 25
 300 0 l 25
 400 0 l 25
 400 -100 l 25
 300 -100 l 25
 300 -200 l 25
 200 -200 l 29
100 400 m 25xe0
 200 400 l 25
 200 500 l 25
 500 500 l 25
 500 400 l 25xd0
 300 400 l 25
 300 100 l 25xe0
 500 100 l 25
 500 0 l 25
 200 0 l 25
 200 100 l 25xd0
 100 100 l 25
 100 400 l 25xe0
EndSplineSet
EndChar

StartChar: egrave
Encoding: 232 232 166
Width: 600
VWidth: 0
Flags: W
HStem: 0 100<312 521> 200 100<312 417> 400 100<312 417>
VStem: 100 200<104 209 312 417> 400 100<312 417>
LayerCount: 2
Back
Fore
SplineSet
200 700 m 1
 200 800 l 29
 300 800 l 29
 300 700 l 1
 400 700 l 25
 400 600 l 25
 300 600 l 25
 300 700 l 25
 200 700 l 1
200 500 m 25
 400 500 l 25
 400 400 l 25
 300 400 l 25
 300 300 l 25
 400 300 l 25
 400 400 l 25
 500 400 l 25
 500 200 l 25
 300 200 l 25
 300 100 l 25
 500 100 l 25
 500 0 l 25
 200 0 l 25
 200 100 l 25
 100 100 l 25
 100 400 l 25
 200 400 l 25
 200 500 l 25
EndSplineSet
EndChar

StartChar: eacute
Encoding: 233 233 167
Width: 600
VWidth: 0
Flags: W
HStem: 0 100<312 521> 200 100<312 417> 400 100<312 417>
VStem: 100 200<104 209 312 417> 400 100<312 417>
LayerCount: 2
Back
Fore
SplineSet
200 600 m 25
 200 700 l 25
 300 700 l 1
 300 800 l 29
 400 800 l 29
 400 700 l 1
 300 700 l 25
 300 600 l 25
 200 600 l 25
200 500 m 25
 400 500 l 25
 400 400 l 25
 300 400 l 25
 300 300 l 25
 400 300 l 25
 400 400 l 25
 500 400 l 25
 500 200 l 25
 300 200 l 25
 300 100 l 25
 500 100 l 25
 500 0 l 25
 200 0 l 25
 200 100 l 25
 100 100 l 25
 100 400 l 25
 200 400 l 25
 200 500 l 25
EndSplineSet
EndChar

StartChar: ecircumflex
Encoding: 234 234 168
Width: 600
VWidth: 0
Flags: W
HStem: 0 100<312 521> 200 100<312 417> 400 100<312 417>
VStem: 100 200<104 209 312 417> 400 100<312 417>
LayerCount: 2
Back
Fore
SplineSet
100 600 m 25
 100 700 l 25
 200 700 l 1
 200 800 l 29
 400 800 l 29
 400 700 l 1
 500 700 l 25
 500 600 l 25
 400 600 l 25
 400 700 l 25
 200 700 l 25
 200 600 l 25
 100 600 l 25
200 500 m 25
 400 500 l 25
 400 400 l 25
 300 400 l 25
 300 300 l 25
 400 300 l 25
 400 400 l 25
 500 400 l 25
 500 200 l 25
 300 200 l 25
 300 100 l 25
 500 100 l 25
 500 0 l 25
 200 0 l 25
 200 100 l 25
 100 100 l 25
 100 400 l 25
 200 400 l 25
 200 500 l 25
EndSplineSet
EndChar

StartChar: edieresis
Encoding: 235 235 169
Width: 600
VWidth: 0
Flags: W
HStem: 0 100<312 521> 200 100<312 417> 400 100<312 417>
VStem: 100 200<104 209 312 417> 400 100<312 417>
LayerCount: 2
Back
Fore
SplineSet
400 600 m 29
 400 700 l 25
 500 700 l 25
 500 600 l 25
 400 600 l 29
200 600 m 25
 200 700 l 25
 300 700 l 25
 300 600 l 25
 200 600 l 25
200 500 m 25
 400 500 l 25
 400 400 l 25
 300 400 l 25
 300 300 l 25
 400 300 l 25
 400 400 l 25
 500 400 l 25
 500 200 l 25
 300 200 l 25
 300 100 l 25
 500 100 l 25
 500 0 l 25
 200 0 l 25
 200 100 l 25
 100 100 l 25
 100 400 l 25
 200 400 l 25
 200 500 l 25
EndSplineSet
EndChar

StartChar: igrave
Encoding: 236 236 170
Width: 600
VWidth: 0
Flags: W
HStem: 0 0G<209 417> 500 0G<209 417> 600 100<209 417>
VStem: 200 200<0 521 625 729>
LayerCount: 2
Back
Fore
SplineSet
200 700 m 1
 200 800 l 29
 300 800 l 29
 300 700 l 1
 400 700 l 25
 400 600 l 25
 300 600 l 25
 300 700 l 25
 200 700 l 1
200 500 m 25
 400 500 l 25
 400 0 l 25
 200 0 l 25
 200 500 l 25
EndSplineSet
EndChar

StartChar: iacute
Encoding: 237 237 171
Width: 600
VWidth: 0
Flags: W
HStem: 0 0G<209 417> 500 0G<209 417> 600 100<209 417>
VStem: 200 200<0 521 625 729>
LayerCount: 2
Back
Fore
SplineSet
200 600 m 25
 200 700 l 25
 300 700 l 1
 300 800 l 29
 400 800 l 29
 400 700 l 1
 300 700 l 25
 300 600 l 25
 200 600 l 25
200 500 m 25
 400 500 l 25
 400 0 l 25
 200 0 l 25
 200 500 l 25
EndSplineSet
EndChar

StartChar: icircumflex
Encoding: 238 238 172
Width: 600
VWidth: 0
Flags: W
HStem: 0 0G<209 417> 500 0G<209 417> 600 100<209 417>
VStem: 200 200<0 521 625 729>
LayerCount: 2
Back
Fore
SplineSet
100 600 m 25
 100 700 l 25
 200 700 l 1
 200 800 l 5
 400 800 l 1
 400 700 l 1
 500 700 l 25
 500 600 l 25
 400 600 l 25
 400 700 l 25
 200 700 l 25
 200 600 l 25
 100 600 l 25
200 500 m 25
 400 500 l 25
 400 0 l 25
 200 0 l 25
 200 500 l 25
EndSplineSet
EndChar

StartChar: idieresis
Encoding: 239 239 173
Width: 600
VWidth: 0
Flags: W
HStem: 0 0G<209 417> 500 0G<209 417> 600 100<209 417>
VStem: 200 200<0 521 625 729>
LayerCount: 2
Back
Fore
SplineSet
400 600 m 29
 400 700 l 25
 500 700 l 25
 500 600 l 25
 400 600 l 29
100 600 m 25
 100 700 l 25
 200 700 l 25
 200 600 l 25
 100 600 l 25
200 500 m 25
 400 500 l 25
 400 0 l 25
 200 0 l 25
 200 500 l 25
EndSplineSet
EndChar

StartChar: eth
Encoding: 240 240 174
Width: 600
VWidth: 0
Flags: W
HStem: 0 100<104 311> 100 100<-2 104> 200 100<104 311> 400 100<206 311> 500 100<416 519> 600 100<206 311>
VStem: 0 100<104 209> 200 100<625 729> 300 100<104 209 312 417>
LayerCount: 2
Back
Fore
SplineSet
200 700 m 25x37
 300 700 l 25
 300 600 l 1x37
 500 600 l 5
 500 500 l 1
 500 300 l 1
 500 100 l 1x4a80
 300 100 l 1
 300 200 l 1xa280
 100 200 l 25x4280
 100 100 l 1
 400 100 l 1
 400 0 l 1
 100 0 l 1
 100 100 l 25x8280
 0 100 l 25
 0 200 l 25
 100 200 l 25x4280
 100 300 l 25
 300 300 l 1
 300 400 l 25x3280
 200 400 l 1
 200 500 l 25x33
 300 500 l 25x3280
 300 600 l 25
 200 600 l 25
 200 700 l 25x37
EndSplineSet
EndChar

StartChar: ntilde
Encoding: 241 241 175
Width: 600
VWidth: 0
Flags: W
HStem: 0 0G<104 312 417 521> 400 100<312 417>
VStem: 100 200<0 417> 400 100<0 417>
LayerCount: 2
Back
Fore
SplineSet
100 600 m 25
 100 700 l 25
 200 700 l 1
 200 800 l 29
 300 800 l 29
 300 700 l 1
 400 700 l 1
 400 800 l 29
 500 800 l 29
 500 700 l 1
 400 700 l 25
 400 600 l 25
 300 600 l 25
 300 700 l 25
 200 700 l 25
 200 600 l 25
 100 600 l 25
100 500 m 25
 400 500 l 25
 400 400 l 25
 500 400 l 25
 500 0 l 25
 400 0 l 25
 400 400 l 25
 300 400 l 25
 300 0 l 25
 100 0 l 25
 100 500 l 25
EndSplineSet
EndChar

StartChar: ograve
Encoding: 242 242 176
Width: 600
VWidth: 0
Flags: W
HStem: 0 100<312 417> 100 300<104 209 417 521> 400 100<312 417>
VStem: 100 200<104 417> 200 200<0 104 417 521> 400 100<104 417>
LayerCount: 2
Back
Fore
SplineSet
200 700 m 1
 200 800 l 29
 300 800 l 29
 300 700 l 1
 400 700 l 25
 400 600 l 25
 300 600 l 25
 300 700 l 25
 200 700 l 1
100 400 m 25x50
 200 400 l 25x48
 200 500 l 25
 400 500 l 25x28
 400 400 l 25x48
 300 400 l 25
 300 100 l 25xb0
 400 100 l 25xa8
 400 400 l 25x48
 500 400 l 25
 500 100 l 25x44
 400 100 l 25
 400 0 l 25
 200 0 l 25x88
 200 100 l 25x48
 100 100 l 25
 100 400 l 25x50
EndSplineSet
EndChar

StartChar: oacute
Encoding: 243 243 177
Width: 600
VWidth: 0
Flags: W
HStem: 0 100<312 417> 100 300<104 209 417 521> 400 100<312 417>
VStem: 100 200<104 417> 200 200<0 104 417 521> 400 100<104 417>
LayerCount: 2
Back
Fore
SplineSet
200 600 m 25
 200 700 l 25
 300 700 l 1
 300 800 l 29
 400 800 l 29
 400 700 l 1
 300 700 l 25
 300 600 l 25
 200 600 l 25
100 400 m 25x50
 200 400 l 25x48
 200 500 l 25
 400 500 l 25x28
 400 400 l 25x48
 300 400 l 25
 300 100 l 25xb0
 400 100 l 25xa8
 400 400 l 25x48
 500 400 l 25
 500 100 l 25x44
 400 100 l 25
 400 0 l 25
 200 0 l 25x88
 200 100 l 25x48
 100 100 l 25
 100 400 l 25x50
EndSplineSet
EndChar

StartChar: ocircumflex
Encoding: 244 244 178
Width: 600
VWidth: 0
Flags: W
HStem: 0 100<312 417> 100 300<104 209 417 521> 400 100<312 417>
VStem: 100 200<104 417> 200 200<0 104 417 521> 400 100<104 417>
LayerCount: 2
Back
Fore
SplineSet
100 600 m 25
 100 700 l 25
 200 700 l 1
 200 800 l 29
 400 800 l 29
 400 700 l 1
 500 700 l 25
 500 600 l 25
 400 600 l 25
 400 700 l 25
 200 700 l 25
 200 600 l 25
 100 600 l 25
100 400 m 25x50
 200 400 l 25x48
 200 500 l 25
 400 500 l 25x28
 400 400 l 25x48
 300 400 l 25
 300 100 l 25xb0
 400 100 l 25xa8
 400 400 l 25x48
 500 400 l 25
 500 100 l 25x44
 400 100 l 25
 400 0 l 25
 200 0 l 25x88
 200 100 l 25x48
 100 100 l 25
 100 400 l 25x50
EndSplineSet
EndChar

StartChar: otilde
Encoding: 245 245 179
Width: 600
VWidth: 0
Flags: W
HStem: 0 100<312 417> 100 300<104 209 417 521> 400 100<312 417>
VStem: 100 200<104 417> 200 200<0 104 417 521> 400 100<104 417>
LayerCount: 2
Back
Fore
SplineSet
100 600 m 25
 100 700 l 25
 200 700 l 1
 200 800 l 29
 300 800 l 29
 300 700 l 1
 400 700 l 1
 400 800 l 29
 500 800 l 29
 500 700 l 1
 400 700 l 25
 400 600 l 25
 300 600 l 25
 300 700 l 25
 200 700 l 25
 200 600 l 25
 100 600 l 25
100 400 m 25x50
 200 400 l 25x48
 200 500 l 25
 400 500 l 25x28
 400 400 l 25x48
 300 400 l 25
 300 100 l 25xb0
 400 100 l 25xa8
 400 400 l 25x48
 500 400 l 25
 500 100 l 25x44
 400 100 l 25
 400 0 l 25
 200 0 l 25x88
 200 100 l 25x48
 100 100 l 25
 100 400 l 25x50
EndSplineSet
EndChar

StartChar: odieresis
Encoding: 246 246 180
Width: 600
VWidth: 0
Flags: W
HStem: 0 100<312 417> 100 300<104 209 417 521> 400 100<312 417>
VStem: 100 200<104 417> 200 200<0 104 417 521> 400 100<104 417>
LayerCount: 2
Back
Fore
SplineSet
400 600 m 29
 400 700 l 25
 500 700 l 25
 500 600 l 25
 400 600 l 29
200 600 m 25
 200 700 l 25
 300 700 l 25
 300 600 l 25
 200 600 l 25
100 400 m 25x50
 200 400 l 25x48
 200 500 l 25
 400 500 l 25x28
 400 400 l 25x48
 300 400 l 25
 300 100 l 25xb0
 400 100 l 25xa8
 400 400 l 25x48
 500 400 l 25
 500 100 l 25x44
 400 100 l 25
 400 0 l 25
 200 0 l 25x88
 200 100 l 25x48
 100 100 l 25
 100 400 l 25x50
EndSplineSet
EndChar

StartChar: divide
Encoding: 247 247 181
Width: 600
VWidth: 0
Flags: W
HStem: 100 100<312 417> 300 100<104 625> 500 100<312 417>
VStem: 300 100<104 209 521 625>
LayerCount: 2
Back
Fore
SplineSet
300 200 m 25
 400 200 l 25
 400 100 l 25
 300 100 l 25
 300 200 l 25
100 400 m 25
 600 400 l 25
 600 300 l 25
 100 300 l 25
 100 400 l 25
300 600 m 25
 400 600 l 25
 400 500 l 25
 300 500 l 25
 300 600 l 25
EndSplineSet
EndChar

StartChar: oslash
Encoding: 248 248 182
Width: 600
VWidth: 0
Flags: W
HStem: 0 100<312 417> 100 300<104 209 417 521> 400 100<312 417>
VStem: 100 200<104 417> 200 200<0 104 417 521> 400 100<104 417>
LayerCount: 2
Back
Fore
SplineSet
0 0 m 29
 0 100 l 25
 100 100 l 25
 100 400 l 25
 200 400 l 25
 200 500 l 25
 400 500 l 25
 400 400 l 25
 300 400 l 25
 300 300 l 25
 400 300 l 25
 400 400 l 25
 500 400 l 25
 500 500 l 25
 600 500 l 25
 600 400 l 25
 500 400 l 25
 500 100 l 25
 400 100 l 25
 400 200 l 25
 300 200 l 25
 300 100 l 25
 400 100 l 25
 400 0 l 25
 200 0 l 25
 200 100 l 25
 100 100 l 25
 100 0 l 25
 0 0 l 29
EndSplineSet
EndChar

StartChar: ugrave
Encoding: 249 249 183
Width: 600
VWidth: 0
Flags: W
HStem: 0 100<209 312> 500 0G<104 209 312 521>
VStem: 100 100<104 521> 300 200<104 521>
LayerCount: 2
Back
Fore
SplineSet
200 700 m 1
 200 800 l 1
 300 800 l 5
 300 700 l 1
 400 700 l 25
 400 600 l 25
 300 600 l 25
 300 700 l 25
 200 700 l 1
100 500 m 25
 200 500 l 25
 200 100 l 25
 300 100 l 25
 300 500 l 25
 500 500 l 25
 500 0 l 25
 200 0 l 25
 200 100 l 25
 100 100 l 25
 100 500 l 25
EndSplineSet
EndChar

StartChar: uacute
Encoding: 250 250 184
Width: 600
VWidth: 0
Flags: W
HStem: 0 100<209 312> 500 0G<104 209 312 521>
VStem: 100 100<104 521> 300 200<104 521>
LayerCount: 2
Back
Fore
SplineSet
200 600 m 25
 200 700 l 25
 300 700 l 1
 300 800 l 1
 400 800 l 5
 400 700 l 1
 300 700 l 25
 300 600 l 25
 200 600 l 25
100 500 m 25
 200 500 l 25
 200 100 l 25
 300 100 l 25
 300 500 l 25
 500 500 l 25
 500 0 l 25
 200 0 l 25
 200 100 l 25
 100 100 l 25
 100 500 l 25
EndSplineSet
EndChar

StartChar: ucircumflex
Encoding: 251 251 185
Width: 600
VWidth: 0
Flags: W
HStem: 0 100<209 312> 500 0G<104 209 312 521>
VStem: 100 100<104 521> 300 200<104 521>
LayerCount: 2
Back
Fore
SplineSet
100 600 m 25
 100 700 l 25
 200 700 l 1
 200 800 l 1
 400 800 l 5
 400 700 l 1
 500 700 l 25
 500 600 l 25
 400 600 l 25
 400 700 l 25
 200 700 l 25
 200 600 l 25
 100 600 l 25
100 500 m 25
 200 500 l 25
 200 100 l 25
 300 100 l 25
 300 500 l 25
 500 500 l 25
 500 0 l 25
 200 0 l 25
 200 100 l 25
 100 100 l 25
 100 500 l 25
EndSplineSet
EndChar

StartChar: udieresis
Encoding: 252 252 186
Width: 600
VWidth: 0
Flags: W
HStem: 0 100<209 312> 500 0G<104 209 312 521>
VStem: 100 100<104 521> 300 200<104 521>
LayerCount: 2
Back
Fore
SplineSet
300 600 m 29
 300 700 l 25
 400 700 l 25
 400 600 l 25
 300 600 l 29
100 600 m 25
 100 700 l 25
 200 700 l 25
 200 600 l 25
 100 600 l 25
100 500 m 25
 200 500 l 25
 200 100 l 25
 300 100 l 25
 300 500 l 25
 500 500 l 25
 500 0 l 25
 200 0 l 25
 200 100 l 25
 100 100 l 25
 100 500 l 25
EndSplineSet
EndChar

StartChar: yacute
Encoding: 253 253 187
Width: 600
VWidth: 0
Flags: W
HStem: -100 100<209 312> 100 100<209 312> 500 0G<104 209 312 521>
VStem: 100 100<209 521> 300 200<0 104 209 521>
LayerCount: 2
Back
Fore
SplineSet
200 600 m 25
 200 700 l 25
 300 700 l 1
 300 800 l 1
 400 800 l 5
 400 700 l 1
 300 700 l 25
 300 600 l 25
 200 600 l 25
100 500 m 25
 200 500 l 25
 200 200 l 25
 300 200 l 25
 300 500 l 25
 500 500 l 25
 500 0 l 25
 400 0 l 25
 400 -100 l 25
 200 -100 l 25
 200 0 l 25
 300 0 l 25
 300 100 l 25
 200 100 l 25
 200 200 l 25
 100 200 l 25
 100 500 l 25
EndSplineSet
EndChar

StartChar: thorn
Encoding: 254 254 188
Width: 600
VWidth: 0
Flags: W
HStem: -100 0G<104 209> 100 100<209 417> 200 100<417 521> 600 0G<104 209>
VStem: 100 300<104 209 312 417> 100 100<-104 104 209 312 417 625> 400 100<209 312>
LayerCount: 2
Back
Fore
SplineSet
100 600 m 1xd4
 300 600 l 1
 300 400 l 1xd4
 400 400 l 1
 400 300 l 1xb8
 300 300 l 1xb4
 300 200 l 1xd4
 400 200 l 1xd8
 400 300 l 25xb8
 500 300 l 25
 500 200 l 25xb2
 400 200 l 25
 400 100 l 1xd8
 300 100 l 1
 300 -100 l 5
 100 -100 l 1
 100 600 l 1xd4
EndSplineSet
EndChar

StartChar: ydieresis
Encoding: 255 255 189
Width: 600
VWidth: 0
Flags: W
HStem: -100 100<209 312> 100 100<209 312> 500 0G<104 209 312 521>
VStem: 100 100<209 521> 300 200<0 104 209 521>
LayerCount: 2
Back
Fore
SplineSet
300 600 m 29
 300 700 l 25
 400 700 l 25
 400 600 l 25
 300 600 l 29
100 600 m 25
 100 700 l 25
 200 700 l 25
 200 600 l 25
 100 600 l 25
100 500 m 25
 200 500 l 25
 200 200 l 25
 300 200 l 25
 300 500 l 25
 500 500 l 25
 500 0 l 25
 400 0 l 25
 400 -100 l 25
 200 -100 l 25
 200 0 l 25
 300 0 l 25
 300 100 l 25
 200 100 l 25
 200 200 l 25
 100 200 l 25
 100 500 l 25
EndSplineSet
EndChar

StartChar: Euro
Encoding: 164 8364 256
Width: 600
VWidth: 0
Flags: W
HStem: 0 0<31 62> 0 0<11 21 31 52>
VStem: 0 0<11 21 42 52> 0 0<0 11 52 62>
LayerCount: 2
Fore
SplineSet
0 0 m 25xd0
 0 0 l 25
 0 0 l 25
 0 0 l 25
 0 0 l 25
 0 0 l 25
 0 0 l 25
 0 0 l 25
 0 0 l 25xe0
 0 100 l 25
 100 100 l 25
 100 0 l 25xd0
 0 0 l 25
 0 0 l 25
 0 0 l 25
 0 0 l 25
 0 0 l 25
 0 0 l 25xe0
 100 0 l 25
 100 0 l 25
 0 0 l 25xd0
EndSplineSet
EndChar

StartChar: uni0185
Encoding: 270 389 270
Width: 600
VWidth: 0
Flags: W
LayerCount: 2
Back
SplineSet
0 8.10546875 m 29
 6.0546875 8.10546875 l 25
 6.0546875 -2.05078125 l 25
 0 -2.05078125 l 25
 0 8.10546875 l 29
EndSplineSet
EndChar

StartChar: pi
Encoding: 401 960 401
Width: 600
VWidth: 0
Flags: W
HStem: 0 100<418 521> 400 100<0 104 209 312 418 521>
VStem: 100 100<0 418> 300 100<104 418> 400 100<0 104>
LayerCount: 2
Back
Fore
SplineSet
0 500 m 25xf0
 500 500 l 25
 500 400 l 25xe8
 400 400 l 25
 400 100 l 25xf0
 500 100 l 25
 500 0 l 25
 400 0 l 25xe8
 400 100 l 25
 300 100 l 25
 300 400 l 25
 200 400 l 25
 200 0 l 25
 100 0 l 25
 100 400 l 25
 0 400 l 25
 0 500 l 25xf0
EndSplineSet
EndChar

StartChar: arrowup
Encoding: 402 8593 402
Width: 600
VWidth: 0
Flags: W
HStem: 0 0G<312 418> 400 100<104 209 521 625> 500 100<209 312 418 521> 700 0G<312 418>
VStem: 100 100<418 521> 300 100<0 521 625 729> 500 100<418 521>
CounterMasks: 1 0e
LayerCount: 2
Back
Fore
SplineSet
100 500 m 25xde
 200 500 l 25xde
 200 600 l 25
 300 600 l 25
 300 700 l 25
 400 700 l 25
 400 600 l 25
 500 600 l 25xbe
 500 500 l 25
 600 500 l 25
 600 400 l 25
 500 400 l 25
 500 500 l 25xde
 400 500 l 25
 400 0 l 25
 300 0 l 25
 300 500 l 25xbe
 200 500 l 25
 200 400 l 25
 100 400 l 25
 100 500 l 25xde
EndSplineSet
EndChar

StartChar: arrowdown
Encoding: 403 8595 403
Width: 600
VWidth: 0
Flags: W
HStem: 0 0G<312 418> 100 100<209 312 418 521> 200 100<104 209 521 625> 700 0G<312 418>
VStem: 100 100<209 312> 300 100<0 104 209 729> 500 100<209 312>
CounterMasks: 1 0e
LayerCount: 2
Back
Fore
SplineSet
300 700 m 25xde
 400 700 l 25
 400 200 l 25
 500 200 l 25xde
 500 300 l 25
 600 300 l 25
 600 200 l 25xbe
 500 200 l 25
 500 100 l 25
 400 100 l 25
 400 0 l 25
 300 0 l 25
 300 100 l 25
 200 100 l 25
 200 200 l 25xde
 100 200 l 25
 100 300 l 25
 200 300 l 25xbe
 200 200 l 25
 300 200 l 25
 300 700 l 25xde
EndSplineSet
EndChar

StartChar: lessequal
Encoding: 404 8804 404
Width: 600
VWidth: 0
Flags: W
HStem: -200 100<209 312> -100 100<104 209> 0 100<0 104 312 418> 100 100<209 312> 200 100<104 209> 400 100<104 209> 500 100<209 312> 600 100<312 418>
VStem: 0 100<0 104 312 418> 100 100<-104 0 209 312 418 521> 200 100<-209 -104 104 209 521 625> 300 100<0 104 625 729>
LayerCount: 2
Back
Fore
SplineSet
0 100 m 25x2080
 100 100 l 25x2080
 100 0 l 25x4080
 200 0 l 25x4040
 200 -100 l 25x8040
 300 -100 l 25
 300 -200 l 25
 200 -200 l 25x8020
 200 -100 l 25x8040
 100 -100 l 25x4040
 100 0 l 25x4080
 0 0 l 25
 0 100 l 25x2080
300 700 m 25x0110
 400 700 l 25
 400 600 l 25x0110
 300 600 l 25
 300 500 l 25x0220
 200 500 l 25
 200 400 l 25x0440
 100 400 l 25
 100 300 l 25x0c80
 200 300 l 25x0c40
 200 200 l 25x1040
 300 200 l 25x1020
 300 100 l 25x2020
 400 100 l 25
 400 0 l 25
 300 0 l 25x2010
 300 100 l 25x2020
 200 100 l 25x1020
 200 200 l 25x1040
 100 200 l 25x0840
 100 300 l 25
 0 300 l 25
 0 400 l 25
 100 400 l 25x0c80
 100 500 l 25
 200 500 l 25x0c40
 200 600 l 25
 300 600 l 25x0220
 300 700 l 25x0110
EndSplineSet
EndChar

StartChar: greaterequal
Encoding: 405 8805 405
Width: 600
VWidth: 0
Flags: W
HStem: -200 100<209 312> -100 100<312 418> 0 100<104 209 418 521> 100 100<209 312> 200 100<312 418> 400 100<312 418> 500 100<209 312> 600 100<104 209>
VStem: 100 100<0 104 625 729> 200 100<-209 -104 104 209 521 625> 300 100<-104 0 209 312 418 521> 400 100<0 104 312 418>
LayerCount: 2
Back
Fore
SplineSet
400 100 m 25x2010
 500 100 l 25
 500 0 l 25x2010
 400 0 l 25
 400 -100 l 25x4020
 300 -100 l 25
 300 -200 l 25
 200 -200 l 25
 200 -100 l 25
 300 -100 l 25x8040
 300 0 l 25
 400 0 l 25x4020
 400 100 l 25x2010
100 700 m 25x0180
 200 700 l 25x0180
 200 600 l 25x0280
 300 600 l 25x0240
 300 500 l 25x0440
 400 500 l 25
 400 400 l 25x0420
 500 400 l 25
 500 300 l 25x0c10
 400 300 l 25
 400 200 l 25x0c20
 300 200 l 25
 300 100 l 25x1040
 200 100 l 25
 200 0 l 25
 100 0 l 25
 100 100 l 25
 200 100 l 25x2080
 200 200 l 25
 300 200 l 25x1040
 300 300 l 25
 400 300 l 25
 400 400 l 25
 300 400 l 25x0c20
 300 500 l 25x0c40
 200 500 l 25x0240
 200 600 l 25x0280
 100 600 l 25
 100 700 l 25x0180
EndSplineSet
EndChar

StartChar: SF100000
Encoding: 406 9472 406
Width: 600
VWidth: 0
Flags: W
HStem: 300 100<0 625>
LayerCount: 2
Back
Fore
SplineSet
0 400 m 25
 600 400 l 25
 600 300 l 25
 0 300 l 25
 0 400 l 25
EndSplineSet
EndChar

StartChar: uni2501
Encoding: 407 9473 407
Width: 600
VWidth: 0
Flags: W
HStem: 200 200<0 625>
LayerCount: 2
Back
Fore
SplineSet
0 400 m 25
 600 400 l 25
 600 200 l 25
 0 200 l 25
 0 400 l 25
EndSplineSet
EndChar

StartChar: SF110000
Encoding: 408 9474 408
Width: 600
VWidth: 0
Flags: W
VStem: 200 100<-209 834>
LayerCount: 2
Back
Fore
SplineSet
200 800 m 1
 300 800 l 5
 300 -200 l 1
 200 -200 l 1
 200 800 l 1
EndSplineSet
EndChar

StartChar: uni2503
Encoding: 409 9475 409
Width: 600
VWidth: 0
Flags: W
VStem: 200 200<-209 834>
LayerCount: 2
Back
Fore
SplineSet
200 800 m 1
 400 800 l 5
 400 -200 l 1
 200 -200 l 1
 200 800 l 1
EndSplineSet
EndChar

StartChar: uni2504
Encoding: 410 9476 410
Width: 600
VWidth: 0
Flags: W
HStem: 300 100<0 104 209 312 418 521>
VStem: 0 100<312 418> 200 100<312 418> 400 100<312 418>
CounterMasks: 1 70
LayerCount: 2
Back
Fore
SplineSet
500 300 m 25
 400 300 l 25
 400 400 l 25
 500 400 l 25
 500 300 l 25
300 400 m 25
 300 300 l 25
 200 300 l 25
 200 400 l 25
 300 400 l 25
0 400 m 25
 100 400 l 25
 100 300 l 25
 0 300 l 25
 0 400 l 25
EndSplineSet
EndChar

StartChar: uni2505
Encoding: 411 9477 411
Width: 600
VWidth: 0
Flags: W
HStem: 200 200<0 104 209 312 418 521>
VStem: 0 100<209 418> 200 100<209 418> 400 100<209 418>
CounterMasks: 1 70
LayerCount: 2
Back
Fore
SplineSet
400 400 m 25
 500 400 l 25
 500 200 l 25
 400 200 l 25
 400 400 l 25
200 400 m 25
 300 400 l 25
 300 200 l 25
 200 200 l 25
 200 400 l 25
0 400 m 25
 100 400 l 25
 100 200 l 25
 0 200 l 25
 0 400 l 25
EndSplineSet
EndChar

StartChar: uni2506
Encoding: 412 9478 412
Width: 600
VWidth: 0
Flags: W
HStem: 0 0G<209 312> 500 0G<209 312> 600 0G<209 312>
VStem: 200 100<-209 0 104 521 625 834>
LayerCount: 2
Back
Fore
SplineSet
200 0 m 25
 300 0 l 25
 300 -200 l 25
 200 -200 l 25
 200 0 l 25
200 500 m 25
 300 500 l 25
 300 100 l 25
 200 100 l 25
 200 500 l 25
200 800 m 1
 300 800 l 5
 300 600 l 1
 200 600 l 1
 200 800 l 1
EndSplineSet
EndChar

StartChar: uni2507
Encoding: 413 9479 413
Width: 600
VWidth: 0
Flags: W
HStem: -200 200<209 418> 500 0G<209 418> 600 200<209 418>
VStem: 200 200<-209 0 104 521 625 834>
LayerCount: 2
Back
Fore
SplineSet
200 0 m 25
 400 0 l 25
 400 -200 l 25
 200 -200 l 25
 200 0 l 25
200 500 m 25
 400 500 l 25
 400 100 l 25
 200 100 l 25
 200 500 l 25
200 800 m 1
 400 800 l 5
 400 600 l 1
 200 600 l 1
 200 800 l 1
EndSplineSet
EndChar

StartChar: uni2508
Encoding: 414 9480 414
Width: 600
VWidth: 0
Flags: W
HStem: 300 100<0 104 209 312 418 521>
VStem: 0 100<312 418> 200 100<312 418> 400 100<312 418>
CounterMasks: 1 70
LayerCount: 2
Back
Fore
SplineSet
400 400 m 25
 500 400 l 25
 500 300 l 25
 400 300 l 25
 400 400 l 25
200 400 m 25
 300 400 l 25
 300 300 l 25
 200 300 l 25
 200 400 l 25
0 400 m 25
 100 400 l 25
 100 300 l 25
 0 300 l 25
 0 400 l 25
EndSplineSet
EndChar

StartChar: uni2509
Encoding: 415 9481 415
Width: 600
VWidth: 0
Flags: W
HStem: 200 200<0 104 209 312 418 521>
VStem: 0 100<209 418> 200 100<209 418> 400 100<209 418>
CounterMasks: 1 70
LayerCount: 2
Back
Fore
SplineSet
400 400 m 25
 500 400 l 25
 500 200 l 25
 400 200 l 25
 400 400 l 25
200 400 m 25
 300 400 l 25
 300 200 l 25
 200 200 l 25
 200 400 l 25
0 400 m 25
 100 400 l 25
 100 200 l 25
 0 200 l 25
 0 400 l 25
EndSplineSet
EndChar

StartChar: uni250A
Encoding: 416 9482 416
Width: 600
VWidth: 0
Flags: W
HStem: -200 100<209 312> 0 0G<209 312> 500 0G<209 312> 600 0G<209 312>
VStem: 200 100<-209 -104 0 209 312 521 625 834>
LayerCount: 2
Back
Fore
SplineSet
200 -100 m 25
 300 -100 l 25
 300 -200 l 25
 200 -200 l 25
 200 -100 l 25
200 200 m 25
 300 200 l 25
 300 0 l 25
 200 0 l 25
 200 200 l 25
200 500 m 25
 300 500 l 25
 300 300 l 25
 200 300 l 25
 200 500 l 25
200 800 m 1
 300 800 l 5
 300 600 l 1
 200 600 l 1
 200 800 l 1
EndSplineSet
EndChar

StartChar: uni250B
Encoding: 417 9483 417
Width: 600
VWidth: 0
Flags: W
HStem: -200 100<209 418> 0 200<209 418> 300 200<209 418> 600 200<209 418>
VStem: 200 200<-209 -104 0 209 312 521 625 834>
LayerCount: 2
Back
Fore
SplineSet
200 -100 m 25
 400 -100 l 25
 400 -200 l 25
 200 -200 l 25
 200 -100 l 25
200 200 m 25
 400 200 l 25
 400 0 l 25
 200 0 l 25
 200 200 l 25
200 500 m 25
 400 500 l 25
 400 300 l 25
 200 300 l 25
 200 500 l 25
200 800 m 1
 400 800 l 5
 400 600 l 1
 200 600 l 1
 200 800 l 1
EndSplineSet
EndChar

StartChar: SF010000
Encoding: 418 9484 418
Width: 600
VWidth: 0
Flags: W
HStem: 300 100<312 625>
VStem: 200 100<-209 312>
LayerCount: 2
Back
Fore
SplineSet
200 400 m 25
 600 400 l 25
 600 300 l 25
 300 300 l 25
 300 -200 l 25
 200 -200 l 25
 200 400 l 25
EndSplineSet
EndChar

StartChar: uni250D
Encoding: 419 9485 419
Width: 600
VWidth: 0
Flags: W
HStem: 200 200<312 625>
VStem: 200 100<-209 209>
LayerCount: 2
Back
Fore
SplineSet
200 400 m 25
 600 400 l 25
 600 200 l 25
 300 200 l 25
 300 -200 l 25
 200 -200 l 25
 200 400 l 25
EndSplineSet
EndChar

StartChar: uni250E
Encoding: 420 9486 420
Width: 600
VWidth: 0
Flags: W
HStem: 300 100<418 625>
VStem: 200 200<-209 312>
LayerCount: 2
Back
Fore
SplineSet
200 400 m 25
 600 400 l 25
 600 300 l 25
 400 300 l 25
 400 -200 l 25
 200 -200 l 25
 200 400 l 25
EndSplineSet
EndChar

StartChar: uni250F
Encoding: 421 9487 421
Width: 600
VWidth: 0
Flags: W
HStem: 200 200<418 625>
VStem: 200 200<-209 209>
LayerCount: 2
Back
Fore
SplineSet
200 400 m 25
 600 400 l 25
 600 200 l 25
 400 200 l 25
 400 -200 l 25
 200 -200 l 25
 200 400 l 25
EndSplineSet
EndChar

StartChar: SF030000
Encoding: 422 9488 422
Width: 600
VWidth: 0
Flags: W
HStem: 300 100<0 209>
VStem: 200 100<-209 312>
LayerCount: 2
Back
Fore
SplineSet
0 400 m 25
 300 400 l 25
 300 -200 l 25
 200 -200 l 25
 200 300 l 25
 0 300 l 25
 0 400 l 25
EndSplineSet
EndChar

StartChar: uni2511
Encoding: 423 9489 423
Width: 600
VWidth: 0
Flags: W
HStem: 200 200<0 209>
VStem: 0 300<209 418> 200 100<-209 209>
LayerCount: 2
Back
Fore
SplineSet
0 400 m 25xc0
 300 400 l 25xc0
 300 -200 l 25
 200 -200 l 25
 200 200 l 25xa0
 0 200 l 25
 0 400 l 25xc0
EndSplineSet
EndChar

StartChar: uni2512
Encoding: 424 9490 424
Width: 600
VWidth: 0
Flags: W
HStem: 300 100<0 209>
VStem: 200 200<-209 312>
LayerCount: 2
Back
Fore
SplineSet
0 400 m 25
 400 400 l 25
 400 -200 l 25
 200 -200 l 25
 200 300 l 25
 0 300 l 25
 0 400 l 25
EndSplineSet
EndChar

StartChar: uni2513
Encoding: 425 9491 425
Width: 600
VWidth: 0
Flags: W
HStem: 200 200<0 209>
VStem: 200 200<-209 209>
LayerCount: 2
Back
Fore
SplineSet
0 400 m 25
 400 400 l 25
 400 -200 l 25
 200 -200 l 25
 200 200 l 25
 0 200 l 25
 0 400 l 25
EndSplineSet
EndChar

StartChar: SF020000
Encoding: 426 9492 426
Width: 600
VWidth: 0
Flags: W
HStem: 300 100<312 625>
VStem: 200 100<418 834>
LayerCount: 2
Back
Fore
SplineSet
200 800 m 5
 300 800 l 1
 300 400 l 1
 600 400 l 25
 600 300 l 25
 200 300 l 1
 200 800 l 5
EndSplineSet
EndChar

StartChar: uni2515
Encoding: 427 9493 427
Width: 600
VWidth: 0
Flags: W
HStem: 200 200<312 625>
VStem: 200 100<418 834>
LayerCount: 2
Back
Fore
SplineSet
200 800 m 1
 300 800 l 5
 300 400 l 1
 600 400 l 25
 600 200 l 25
 200 200 l 1
 200 800 l 1
EndSplineSet
EndChar

StartChar: uni2516
Encoding: 428 9494 428
Width: 600
VWidth: 0
Flags: W
HStem: 300 100<418 625>
VStem: 200 200<418 834>
LayerCount: 2
Back
Fore
SplineSet
200 800 m 1
 400 800 l 5
 400 400 l 1
 600 400 l 25
 600 300 l 25
 200 300 l 1
 200 800 l 1
EndSplineSet
EndChar

StartChar: uni2517
Encoding: 429 9495 429
Width: 600
VWidth: 0
Flags: W
HStem: 200 200<418 625>
VStem: 200 200<418 834>
LayerCount: 2
Back
Fore
SplineSet
200 800 m 1
 400 800 l 5
 400 400 l 1
 600 400 l 25
 600 200 l 25
 200 200 l 1
 200 800 l 1
EndSplineSet
EndChar

StartChar: SF040000
Encoding: 430 9496 430
Width: 600
VWidth: 0
Flags: W
HStem: 300 100<0 209>
VStem: 200 100<418 834>
LayerCount: 2
Back
Fore
SplineSet
200 800 m 1
 300 800 l 5
 300 300 l 1
 0 300 l 25
 0 400 l 25
 200 400 l 1
 200 800 l 1
EndSplineSet
EndChar

StartChar: uni2519
Encoding: 431 9497 431
Width: 600
VWidth: 0
Flags: W
HStem: 200 200<0 209>
VStem: 0 300<209 418> 200 100<418 834>
LayerCount: 2
Back
Fore
SplineSet
200 800 m 1xa0
 300 800 l 5xa0
 300 200 l 1
 0 200 l 25
 0 400 l 25xc0
 200 400 l 1
 200 800 l 1xa0
EndSplineSet
EndChar

StartChar: uni251A
Encoding: 432 9498 432
Width: 600
VWidth: 0
Flags: W
HStem: 300 100<0 209>
VStem: 200 200<418 834>
LayerCount: 2
Back
Fore
SplineSet
200 800 m 1
 400 800 l 5
 400 300 l 1
 0 300 l 25
 0 400 l 25
 200 400 l 1
 200 800 l 1
EndSplineSet
EndChar

StartChar: uni251B
Encoding: 433 9499 433
Width: 600
VWidth: 0
Flags: W
HStem: 200 200<0 209>
VStem: 200 200<418 834>
LayerCount: 2
Back
Fore
SplineSet
200 800 m 5
 400 800 l 1
 400 200 l 1
 0 200 l 25
 0 400 l 25
 200 400 l 1
 200 800 l 5
EndSplineSet
EndChar

StartChar: SF080000
Encoding: 434 9500 434
Width: 600
VWidth: 0
Flags: W
HStem: 300 100<312 625>
VStem: 200 100<-209 312 418 834>
LayerCount: 2
Back
Fore
SplineSet
200 800 m 1
 300 800 l 5
 300 400 l 1
 600 400 l 25
 600 300 l 25
 300 300 l 25
 300 -200 l 25
 200 -200 l 1
 200 800 l 1
EndSplineSet
EndChar

StartChar: uni251D
Encoding: 435 9501 435
Width: 600
VWidth: 0
Flags: W
HStem: 200 200<312 625>
VStem: 200 100<-209 209 418 834>
LayerCount: 2
Back
Fore
SplineSet
200 800 m 1
 300 800 l 5
 300 400 l 1
 600 400 l 25
 600 200 l 25
 300 200 l 25
 300 -200 l 25
 200 -200 l 1
 200 800 l 1
EndSplineSet
EndChar

StartChar: uni251E
Encoding: 436 9502 436
Width: 600
VWidth: 0
Flags: W
HStem: 300 100<418 625>
VStem: 200 200<418 834> 200 100<-209 312>
LayerCount: 2
Back
Fore
SplineSet
200 800 m 1xc0
 400 800 l 5
 400 400 l 1xc0
 600 400 l 25
 600 300 l 25
 300 300 l 25
 300 -200 l 25
 200 -200 l 1xa0
 200 800 l 1xc0
EndSplineSet
EndChar

StartChar: uni251F
Encoding: 437 9503 437
Width: 600
VWidth: 0
Flags: W
HStem: 300 100<418 625>
VStem: 200 200<-209 312> 200 100<418 834>
LayerCount: 2
Back
Fore
SplineSet
200 800 m 1xa0
 300 800 l 5
 300 400 l 1xa0
 600 400 l 25
 600 300 l 25
 400 300 l 25
 400 -200 l 25
 200 -200 l 1xc0
 200 800 l 1xa0
EndSplineSet
EndChar

StartChar: uni2520
Encoding: 438 9504 438
Width: 600
VWidth: 0
Flags: W
HStem: 300 100<418 625>
VStem: 200 200<-209 312 418 834>
LayerCount: 2
Back
Fore
SplineSet
200 800 m 1
 400 800 l 5
 400 400 l 1
 600 400 l 25
 600 300 l 25
 400 300 l 25
 400 -200 l 25
 200 -200 l 1
 200 800 l 1
EndSplineSet
EndChar

StartChar: uni2521
Encoding: 439 9505 439
Width: 600
VWidth: 0
Flags: W
HStem: 200 200<418 625>
VStem: 200 200<418 834> 200 100<-209 209>
LayerCount: 2
Back
Fore
SplineSet
200 800 m 1xc0
 400 800 l 5
 400 400 l 1xc0
 600 400 l 25
 600 200 l 25
 300 200 l 25
 300 -200 l 25
 200 -200 l 1xa0
 200 800 l 1xc0
EndSplineSet
EndChar

StartChar: uni2522
Encoding: 440 9506 440
Width: 600
VWidth: 0
Flags: W
HStem: 200 200<418 625>
VStem: 200 200<-209 209> 200 100<418 834>
LayerCount: 2
Back
Fore
SplineSet
200 800 m 1xa0
 300 800 l 5
 300 400 l 1xa0
 600 400 l 25
 600 200 l 25
 400 200 l 25
 400 -200 l 25
 200 -200 l 1xc0
 200 800 l 1xa0
EndSplineSet
EndChar

StartChar: uni2523
Encoding: 441 9507 441
Width: 600
VWidth: 0
Flags: W
HStem: 200 200<418 625>
VStem: 200 200<-209 209 418 834>
LayerCount: 2
Back
Fore
SplineSet
200 800 m 29
 400 800 l 29
 400 400 l 1
 600 400 l 25
 600 200 l 25
 400 200 l 25
 400 -200 l 25
 200 -200 l 1
 200 800 l 29
EndSplineSet
EndChar

StartChar: SF090000
Encoding: 442 9508 442
Width: 600
VWidth: 0
Flags: W
HStem: 300 100<0 209>
VStem: 200 100<-209 312 418 834>
LayerCount: 2
Back
Fore
SplineSet
200 800 m 1
 300 800 l 5
 300 -200 l 1
 200 -200 l 25
 200 300 l 25
 0 300 l 25
 0 400 l 25
 200 400 l 1
 200 800 l 1
EndSplineSet
EndChar

StartChar: uni2525
Encoding: 443 9509 443
Width: 600
VWidth: 0
Flags: W
HStem: 200 200<0 209>
VStem: 0 300<209 418> 200 100<-209 209 418 834>
LayerCount: 2
Back
Fore
SplineSet
200 800 m 1xa0
 300 800 l 5
 300 -200 l 1
 200 -200 l 25
 200 200 l 25xa0
 0 200 l 25
 0 400 l 25xc0
 200 400 l 1
 200 800 l 1xa0
EndSplineSet
EndChar

StartChar: uni2526
Encoding: 444 9510 444
Width: 600
VWidth: 0
Flags: W
HStem: 300 100<0 209>
VStem: 200 200<418 834> 200 100<-209 312>
LayerCount: 2
Back
Fore
SplineSet
200 800 m 1xc0
 400 800 l 5
 400 400 l 1xc0
 300 400 l 25
 300 -200 l 25
 200 -200 l 25
 200 300 l 25xa0
 0 300 l 25
 0 400 l 25
 200 400 l 1
 200 800 l 1xc0
EndSplineSet
EndChar

StartChar: uni2527
Encoding: 445 9511 445
Width: 600
VWidth: 0
Flags: W
HStem: 300 100<0 209>
VStem: 200 200<-209 312> 200 100<418 834>
LayerCount: 2
Back
Fore
SplineSet
200 800 m 1xa0
 300 800 l 5
 300 300 l 1xa0
 400 300 l 25
 400 -200 l 25
 200 -200 l 25
 200 300 l 25xc0
 0 300 l 25
 0 400 l 25
 200 400 l 1
 200 800 l 1xa0
EndSplineSet
EndChar

StartChar: uni2528
Encoding: 446 9512 446
Width: 600
VWidth: 0
Flags: W
HStem: 300 100<0 209>
VStem: 200 200<-209 312 418 834>
LayerCount: 2
Back
Fore
SplineSet
200 800 m 1
 400 800 l 5
 400 -200 l 1
 200 -200 l 25
 200 300 l 25
 0 300 l 25
 0 400 l 25
 200 400 l 1
 200 800 l 1
EndSplineSet
EndChar

StartChar: uni2529
Encoding: 447 9513 447
Width: 600
VWidth: 0
Flags: W
HStem: 200 200<0 209>
VStem: 200 200<418 834> 200 100<-209 209>
LayerCount: 2
Back
Fore
SplineSet
200 800 m 1xc0
 400 800 l 5
 400 200 l 1xc0
 300 200 l 25
 300 -200 l 25
 200 -200 l 25
 200 200 l 25xa0
 0 200 l 25
 0 400 l 25
 200 400 l 1
 200 800 l 1xc0
EndSplineSet
EndChar

StartChar: uni252A
Encoding: 448 9514 448
Width: 600
VWidth: 0
Flags: W
HStem: 200 200<0 209>
VStem: 200 200<-209 209> 200 100<418 834>
LayerCount: 2
Back
Fore
SplineSet
200 800 m 29xa0
 300 800 l 29
 300 400 l 1xa0
 400 400 l 25
 400 -200 l 25
 200 -200 l 25
 200 200 l 25xc0
 0 200 l 25
 0 400 l 25
 200 400 l 1
 200 800 l 29xa0
EndSplineSet
EndChar

StartChar: uni252B
Encoding: 449 9515 449
Width: 600
VWidth: 0
Flags: W
HStem: 200 200<0 209>
VStem: 200 200<-209 209 418 834>
LayerCount: 2
Back
Fore
SplineSet
200 800 m 29
 400 800 l 29
 400 -200 l 1
 200 -200 l 25
 200 200 l 25
 0 200 l 25
 0 400 l 25
 200 400 l 1
 200 800 l 29
EndSplineSet
EndChar

StartChar: SF060000
Encoding: 450 9516 450
Width: 600
VWidth: 0
Flags: W
HStem: 300 100<0 209 312 625>
VStem: 200 100<-209 312>
LayerCount: 2
Back
Fore
SplineSet
0 400 m 25
 600 400 l 25
 600 300 l 25
 300 300 l 25
 300 -200 l 25
 200 -200 l 25
 200 300 l 25
 0 300 l 25
 0 400 l 25
EndSplineSet
EndChar

StartChar: uni252D
Encoding: 451 9517 451
Width: 600
VWidth: 0
Flags: W
HStem: 200 200<0 209> 300 100<312 625>
VStem: 200 100<-209 209>
LayerCount: 2
Back
Fore
SplineSet
0 400 m 25xa0
 600 400 l 25
 600 300 l 25
 300 300 l 25x60
 300 -200 l 25
 200 -200 l 25
 200 200 l 25
 0 200 l 25
 0 400 l 25xa0
EndSplineSet
EndChar

StartChar: uni252E
Encoding: 452 9518 452
Width: 600
VWidth: 0
Flags: W
HStem: 200 200<312 625> 300 100<0 209>
VStem: 200 100<-209 209>
LayerCount: 2
Back
Fore
SplineSet
0 400 m 25x60
 600 400 l 25
 600 200 l 25
 300 200 l 25xa0
 300 -200 l 25
 200 -200 l 25
 200 300 l 25
 0 300 l 25
 0 400 l 25x60
EndSplineSet
EndChar

StartChar: uni252F
Encoding: 453 9519 453
Width: 600
VWidth: 0
Flags: W
HStem: 200 200<0 209 312 625>
VStem: 200 100<-209 209>
LayerCount: 2
Back
Fore
SplineSet
0 400 m 25
 600 400 l 25
 600 200 l 25
 300 200 l 25
 300 -200 l 25
 200 -200 l 25
 200 200 l 25
 0 200 l 25
 0 400 l 25
EndSplineSet
EndChar

StartChar: uni2530
Encoding: 454 9520 454
Width: 600
VWidth: 0
Flags: W
HStem: 300 100<0 209 418 625>
VStem: 200 200<-209 312>
LayerCount: 2
Back
Fore
SplineSet
0 400 m 25
 600 400 l 25
 600 300 l 25
 400 300 l 25
 400 -200 l 25
 200 -200 l 25
 200 300 l 25
 0 300 l 25
 0 400 l 25
EndSplineSet
EndChar

StartChar: uni2531
Encoding: 455 9521 455
Width: 600
VWidth: 0
Flags: W
HStem: 200 200<0 209> 300 100<418 625>
VStem: 200 200<-209 209>
LayerCount: 2
Back
Fore
SplineSet
0 400 m 25xa0
 600 400 l 25
 600 300 l 25
 400 300 l 25x60
 400 -200 l 25
 200 -200 l 25
 200 200 l 25
 0 200 l 25
 0 400 l 25xa0
EndSplineSet
EndChar

StartChar: uni2532
Encoding: 456 9522 456
Width: 600
VWidth: 0
Flags: W
HStem: 200 200<418 625> 300 100<0 209>
VStem: 200 200<-209 209>
LayerCount: 2
Back
Fore
SplineSet
0 400 m 1x60
 600 400 l 1
 600 200 l 1
 400 200 l 1xa0
 400 -200 l 1
 200 -200 l 1
 200 300 l 1
 0 300 l 1
 0 400 l 1x60
EndSplineSet
EndChar

StartChar: uni2533
Encoding: 457 9523 457
Width: 600
VWidth: 0
Flags: W
HStem: 200 200<0 209 418 625>
VStem: 200 200<-209 209>
LayerCount: 2
Back
Fore
SplineSet
0 400 m 25
 600 400 l 25
 600 200 l 25
 400 200 l 25
 400 -200 l 25
 200 -200 l 25
 200 200 l 25
 0 200 l 25
 0 400 l 25
EndSplineSet
EndChar

StartChar: SF070000
Encoding: 458 9524 458
Width: 600
VWidth: 0
Flags: W
HStem: 300 100<0 209 312 625>
VStem: 200 100<418 834>
LayerCount: 2
Back
Fore
SplineSet
0 400 m 25
 200 400 l 1
 200 800 l 29
 300 800 l 29
 300 400 l 1
 600 400 l 25
 600 300 l 25
 0 300 l 25
 0 400 l 25
EndSplineSet
EndChar

StartChar: uni2535
Encoding: 459 9525 459
Width: 600
VWidth: 0
Flags: W
HStem: 200 200<0 209> 300 100<312 625>
VStem: 200 100<418 834>
LayerCount: 2
Back
Fore
SplineSet
200 800 m 29xa0
 300 800 l 29
 300 400 l 1
 600 400 l 25
 600 300 l 25
 200 300 l 25x60
 200 200 l 25
 0 200 l 25
 0 400 l 25
 200 400 l 1
 200 800 l 29xa0
EndSplineSet
EndChar

StartChar: uni2536
Encoding: 460 9526 460
Width: 600
VWidth: 0
Flags: W
HStem: 200 200<312 625> 300 100<0 209>
VStem: 200 100<418 834>
LayerCount: 2
Back
Fore
SplineSet
200 800 m 1x60
 300 800 l 5
 300 400 l 1
 600 400 l 25
 600 200 l 25
 300 200 l 25xa0
 300 300 l 25
 0 300 l 25
 0 400 l 25
 200 400 l 1
 200 800 l 1x60
EndSplineSet
EndChar

StartChar: uni2537
Encoding: 461 9527 461
Width: 600
VWidth: 0
Flags: W
HStem: 200 200<0 209 312 625>
VStem: 200 100<418 834>
LayerCount: 2
Back
Fore
SplineSet
200 800 m 29
 300 800 l 29
 300 400 l 1
 600 400 l 25
 600 200 l 25
 0 200 l 25
 0 400 l 25
 200 400 l 1
 200 800 l 29
EndSplineSet
EndChar

StartChar: uni2538
Encoding: 462 9528 462
Width: 600
VWidth: 0
Flags: W
HStem: 300 100<0 209 418 625>
VStem: 200 200<418 834>
LayerCount: 2
Back
Fore
SplineSet
200 800 m 29
 400 800 l 29
 400 400 l 1
 600 400 l 25
 600 300 l 25
 0 300 l 25
 0 400 l 25
 200 400 l 1
 200 800 l 29
EndSplineSet
EndChar

StartChar: uni2539
Encoding: 463 9529 463
Width: 600
VWidth: 0
Flags: W
HStem: 200 200<0 209> 300 100<418 625>
VStem: 200 200<418 834>
LayerCount: 2
Back
Fore
SplineSet
200 800 m 29xa0
 400 800 l 29
 400 400 l 1
 600 400 l 25
 600 300 l 25
 300 300 l 25x60
 300 200 l 25
 0 200 l 25
 0 400 l 25
 200 400 l 1
 200 800 l 29xa0
EndSplineSet
EndChar

StartChar: uni253A
Encoding: 464 9530 464
Width: 600
VWidth: 0
Flags: W
HStem: 200 200<418 625> 300 100<0 209>
VStem: 200 200<418 834>
LayerCount: 2
Back
Fore
SplineSet
200 800 m 1x60
 400 800 l 5
 400 400 l 1
 600 400 l 25
 600 200 l 25
 300 200 l 25xa0
 300 300 l 25
 0 300 l 25
 0 400 l 25
 200 400 l 1
 200 800 l 1x60
EndSplineSet
EndChar

StartChar: uni253B
Encoding: 465 9531 465
Width: 600
VWidth: 0
Flags: W
HStem: 200 200<0 209 418 625>
VStem: 200 200<418 834>
LayerCount: 2
Back
Fore
SplineSet
200 800 m 1
 400 800 l 5
 400 400 l 1
 600 400 l 25
 600 200 l 25
 0 200 l 25
 0 400 l 25
 200 400 l 1
 200 800 l 1
EndSplineSet
EndChar

StartChar: SF050000
Encoding: 466 9532 466
Width: 600
VWidth: 0
Flags: W
HStem: 300 100<0 209 312 625>
VStem: 200 100<-209 312 418 834>
LayerCount: 2
Back
Fore
SplineSet
200 800 m 1
 300 800 l 5
 300 400 l 1
 600 400 l 25
 600 300 l 25
 300 300 l 25
 300 -200 l 25
 200 -200 l 25
 200 300 l 25
 0 300 l 25
 0 400 l 25
 200 400 l 1
 200 800 l 1
EndSplineSet
EndChar

StartChar: uni253D
Encoding: 467 9533 467
Width: 600
VWidth: 0
Flags: W
HStem: 200 200<0 209> 300 100<312 625>
VStem: 200 100<-209 209 418 834>
LayerCount: 2
Back
Fore
SplineSet
200 800 m 1xa0
 300 800 l 5
 300 400 l 1
 600 400 l 25
 600 300 l 25
 300 300 l 25x60
 300 -200 l 25
 200 -200 l 25
 200 200 l 25
 0 200 l 25
 0 400 l 25
 200 400 l 1
 200 800 l 1xa0
EndSplineSet
EndChar

StartChar: uni253E
Encoding: 468 9534 468
Width: 600
VWidth: 0
Flags: W
HStem: 200 200<312 625> 300 100<0 209>
VStem: 200 100<-209 209 418 834>
LayerCount: 2
Back
Fore
SplineSet
200 800 m 1x60
 300 800 l 5
 300 400 l 1
 600 400 l 25
 600 200 l 25
 300 200 l 25xa0
 300 -200 l 25
 200 -200 l 25
 200 300 l 25
 0 300 l 25
 0 400 l 25
 200 400 l 1
 200 800 l 1x60
EndSplineSet
EndChar

StartChar: uni253F
Encoding: 469 9535 469
Width: 600
VWidth: 0
Flags: W
HStem: 200 200<0 209 312 625>
VStem: 200 100<-209 209 418 834>
LayerCount: 2
Back
Fore
SplineSet
200 800 m 1
 300 800 l 5
 300 400 l 1
 600 400 l 25
 600 200 l 25
 300 200 l 25
 300 -200 l 25
 200 -200 l 25
 200 200 l 25
 0 200 l 25
 0 400 l 25
 200 400 l 1
 200 800 l 1
EndSplineSet
EndChar

StartChar: uni2540
Encoding: 470 9536 470
Width: 600
VWidth: 0
Flags: W
HStem: 300 100<0 209 418 625>
VStem: 200 200<418 834> 200 100<-209 312>
LayerCount: 2
Back
Fore
SplineSet
200 800 m 1xc0
 400 800 l 5
 400 400 l 1xc0
 600 400 l 25
 600 300 l 25
 300 300 l 25
 300 -200 l 25
 200 -200 l 25
 200 300 l 25xa0
 0 300 l 25
 0 400 l 25
 200 400 l 1
 200 800 l 1xc0
EndSplineSet
EndChar

StartChar: uni2541
Encoding: 471 9537 471
Width: 600
VWidth: 0
Flags: W
HStem: 300 100<0 209 418 625>
VStem: 200 200<-209 312> 200 100<418 834>
LayerCount: 2
Back
Fore
SplineSet
200 800 m 1xa0
 300 800 l 5
 300 400 l 1xa0
 600 400 l 25
 600 300 l 25
 400 300 l 25
 400 -200 l 25
 200 -200 l 25
 200 300 l 25xc0
 0 300 l 25
 0 400 l 25
 200 400 l 1
 200 800 l 1xa0
EndSplineSet
EndChar

StartChar: uni2542
Encoding: 472 9538 472
Width: 600
VWidth: 0
Flags: W
HStem: 300 100<0 209 418 625>
VStem: 200 200<-209 312 418 834>
LayerCount: 2
Back
Fore
SplineSet
200 800 m 1
 400 800 l 5
 400 400 l 1
 600 400 l 25
 600 300 l 25
 400 300 l 25
 400 -200 l 25
 200 -200 l 25
 200 300 l 25
 0 300 l 25
 0 400 l 25
 200 400 l 1
 200 800 l 1
EndSplineSet
EndChar

StartChar: uni2543
Encoding: 473 9539 473
Width: 600
VWidth: 0
Flags: W
HStem: 200 200<0 209> 300 100<418 625>
VStem: 200 200<418 834> 200 100<-209 209>
LayerCount: 2
Back
Fore
SplineSet
200 800 m 1xa0
 400 800 l 5
 400 400 l 1x60
 600 400 l 25
 600 300 l 25
 300 300 l 25x50
 300 -200 l 25
 200 -200 l 25
 200 200 l 25x90
 0 200 l 25
 0 400 l 25
 200 400 l 1
 200 800 l 1xa0
EndSplineSet
EndChar

StartChar: uni2544
Encoding: 474 9540 474
Width: 600
VWidth: 0
Flags: W
HStem: 200 200<418 625> 300 100<0 209>
VStem: 200 200<418 834> 200 100<-209 209>
LayerCount: 2
Back
Fore
SplineSet
200 800 m 1x60
 400 800 l 5
 400 400 l 1xa0
 600 400 l 25
 600 200 l 25
 300 200 l 25x90
 300 -200 l 25
 200 -200 l 25
 200 300 l 25x50
 0 300 l 25
 0 400 l 25
 200 400 l 1
 200 800 l 1x60
EndSplineSet
EndChar

StartChar: uni2545
Encoding: 475 9541 475
Width: 600
VWidth: 0
Flags: W
HStem: 200 200<0 209> 300 100<418 625>
VStem: 200 200<-209 209> 200 100<418 834>
LayerCount: 2
Back
Fore
SplineSet
200 800 m 1x90
 300 800 l 5
 300 400 l 1x50
 600 400 l 25
 600 300 l 25
 400 300 l 25x60
 400 -200 l 25
 200 -200 l 25
 200 200 l 25xa0
 0 200 l 25
 0 400 l 25
 200 400 l 1
 200 800 l 1x90
EndSplineSet
EndChar

StartChar: uni2546
Encoding: 476 9542 476
Width: 600
VWidth: 0
Flags: W
HStem: 200 200<418 625> 300 100<0 209>
VStem: 200 200<-209 209> 200 100<418 834>
LayerCount: 2
Back
Fore
SplineSet
200 800 m 1x50
 300 800 l 5
 300 400 l 1x50
 600 400 l 25
 600 200 l 25
 400 200 l 25
 400 -200 l 25
 200 -200 l 25xa0
 200 300 l 25
 0 300 l 25
 0 400 l 25
 200 400 l 1
 200 800 l 1x50
EndSplineSet
EndChar

StartChar: uni2547
Encoding: 477 9543 477
Width: 600
VWidth: 0
Flags: W
HStem: 200 200<0 209 418 625>
VStem: 200 200<418 834> 200 100<-209 209>
LayerCount: 2
Back
Fore
SplineSet
200 800 m 1xc0
 400 800 l 5
 400 400 l 1xc0
 600 400 l 25
 600 200 l 25
 300 200 l 25
 300 -200 l 25
 200 -200 l 25
 200 200 l 25xa0
 0 200 l 25
 0 400 l 25
 200 400 l 1
 200 800 l 1xc0
EndSplineSet
EndChar

StartChar: uni2548
Encoding: 478 9544 478
Width: 600
VWidth: 0
Flags: W
HStem: 200 200<0 209 418 625>
VStem: 200 200<-209 209> 200 100<418 834>
LayerCount: 2
Back
Fore
SplineSet
200 800 m 1xa0
 300 800 l 5
 300 400 l 1xa0
 600 400 l 25
 600 200 l 25
 400 200 l 25
 400 -200 l 25
 200 -200 l 25
 200 200 l 25xc0
 0 200 l 25
 0 400 l 25
 200 400 l 1
 200 800 l 1xa0
EndSplineSet
EndChar

StartChar: uni2549
Encoding: 479 9545 479
Width: 600
VWidth: 0
Flags: W
HStem: 200 200<0 209> 300 100<418 625>
VStem: 200 200<-209 209 418 834>
LayerCount: 2
Back
Fore
SplineSet
200 800 m 1xa0
 400 800 l 5
 400 400 l 1
 600 400 l 25
 600 300 l 25
 400 300 l 25x60
 400 -200 l 25
 200 -200 l 25
 200 200 l 25
 0 200 l 25
 0 400 l 25
 200 400 l 1
 200 800 l 1xa0
EndSplineSet
EndChar

StartChar: uni254A
Encoding: 480 9546 480
Width: 600
VWidth: 0
Flags: W
HStem: 200 200<418 625> 300 100<0 209>
VStem: 200 200<-209 209 418 834>
LayerCount: 2
Back
Fore
SplineSet
200 800 m 1x60
 400 800 l 5
 400 400 l 1
 600 400 l 25
 600 200 l 25
 400 200 l 25xa0
 400 -200 l 25
 200 -200 l 25
 200 300 l 25
 0 300 l 25
 0 400 l 25
 200 400 l 1
 200 800 l 1x60
EndSplineSet
EndChar

StartChar: uni254B
Encoding: 481 9547 481
Width: 600
VWidth: 0
Flags: W
HStem: 200 200<0 209 418 625>
VStem: 200 200<-209 209 418 834>
LayerCount: 2
Back
Fore
SplineSet
200 800 m 1
 400 800 l 5
 400 400 l 1
 600 400 l 25
 600 200 l 25
 400 200 l 25
 400 -200 l 25
 200 -200 l 25
 200 200 l 25
 0 200 l 25
 0 400 l 25
 200 400 l 1
 200 800 l 1
EndSplineSet
EndChar

StartChar: uni254C
Encoding: 482 9548 482
Width: 600
VWidth: 0
Flags: W
HStem: 300 100<0 209 418 625>
LayerCount: 2
Back
Fore
SplineSet
400 400 m 25
 600 400 l 25
 600 300 l 25
 400 300 l 25
 400 400 l 25
0 400 m 25
 200 400 l 25
 200 300 l 25
 0 300 l 25
 0 400 l 25
EndSplineSet
EndChar

StartChar: uni254D
Encoding: 483 9549 483
Width: 600
VWidth: 0
Flags: W
HStem: 200 200<0 209 418 625>
VStem: 0 200<209 418> 400 200<209 418>
LayerCount: 2
Back
Fore
SplineSet
400 400 m 25
 600 400 l 25
 600 200 l 25
 400 200 l 25
 400 400 l 25
0 400 m 25
 200 400 l 25
 200 200 l 25
 0 200 l 25
 0 400 l 25
EndSplineSet
EndChar

StartChar: uni254E
Encoding: 484 9550 484
Width: 600
VWidth: 0
Flags: W
VStem: 200 100<-209 209 418 834>
LayerCount: 2
Back
Fore
SplineSet
200 200 m 25
 300 200 l 25
 300 -200 l 25
 200 -200 l 25
 200 200 l 25
200 800 m 1
 300 800 l 5
 300 400 l 1
 200 400 l 1
 200 800 l 1
EndSplineSet
EndChar

StartChar: uni254F
Encoding: 485 9551 485
Width: 600
VWidth: 0
Flags: W
VStem: 200 200<-209 209 418 834>
LayerCount: 2
Back
Fore
SplineSet
200 200 m 25
 400 200 l 25
 400 -200 l 25
 200 -200 l 25
 200 200 l 25
200 800 m 1
 400 800 l 5
 400 400 l 1
 200 400 l 1
 200 800 l 1
EndSplineSet
EndChar

StartChar: SF430000
Encoding: 486 9552 486
Width: 600
VWidth: 0
Flags: W
HStem: 200 100<0 625> 400 100<0 625>
LayerCount: 2
Back
Fore
SplineSet
0 300 m 25
 600 300 l 25
 600 200 l 25
 0 200 l 25
 0 300 l 25
0 500 m 25
 600 500 l 25
 600 400 l 25
 0 400 l 25
 0 500 l 25
EndSplineSet
EndChar

StartChar: SF240000
Encoding: 487 9553 487
Width: 600
VWidth: 0
Flags: W
VStem: 100 100<-209 834> 300 100<-209 834>
LayerCount: 2
Back
Fore
SplineSet
300 800 m 29
 400 800 l 29
 400 -200 l 1
 300 -200 l 1
 300 800 l 29
100 800 m 29
 200 800 l 29
 200 -200 l 1
 100 -200 l 1
 100 800 l 29
EndSplineSet
EndChar

StartChar: SF510000
Encoding: 488 9554 488
Width: 600
VWidth: 0
Flags: W
HStem: 200 100<312 625> 400 100<312 625>
VStem: 200 100<-209 209 312 418>
LayerCount: 2
Back
Fore
SplineSet
200 500 m 25
 600 500 l 25
 600 400 l 25
 300 400 l 25
 300 300 l 25
 600 300 l 25
 600 200 l 25
 300 200 l 25
 300 -200 l 25
 200 -200 l 25
 200 500 l 25
EndSplineSet
EndChar

StartChar: SF520000
Encoding: 489 9555 489
Width: 600
VWidth: 0
Flags: W
HStem: 300 100<209 312 418 625>
VStem: 100 100<-209 312> 300 100<-209 312>
LayerCount: 2
Back
Fore
SplineSet
100 400 m 25
 600 400 l 25
 600 300 l 25
 400 300 l 25
 400 -200 l 25
 300 -200 l 25
 300 300 l 25
 200 300 l 25
 200 -200 l 25
 100 -200 l 25
 100 400 l 25
EndSplineSet
EndChar

StartChar: SF390000
Encoding: 490 9556 490
Width: 600
VWidth: 0
Flags: W
HStem: 200 100<418 625> 400 100<209 625>
VStem: 100 100<-209 418> 300 100<-209 209>
LayerCount: 2
Back
Fore
SplineSet
300 300 m 25
 600 300 l 25
 600 200 l 25
 400 200 l 25
 400 -200 l 25
 300 -200 l 25
 300 300 l 25
100 500 m 25
 600 500 l 25
 600 400 l 25
 200 400 l 25
 200 -200 l 25
 100 -200 l 25
 100 500 l 25
EndSplineSet
EndChar

StartChar: SF220000
Encoding: 491 9557 491
Width: 600
VWidth: 0
Flags: W
HStem: 200 100<0 209> 400 100<0 209>
VStem: 0 300<209 312 418 521> 200 100<-209 209 312 418>
LayerCount: 2
Back
Fore
SplineSet
0 500 m 25xe0
 300 500 l 25xe0
 300 -200 l 25
 200 -200 l 25
 200 200 l 25xd0
 0 200 l 25
 0 300 l 25xe0
 200 300 l 25
 200 400 l 25xd0
 0 400 l 25
 0 500 l 25xe0
EndSplineSet
EndChar

StartChar: SF210000
Encoding: 492 9558 492
Width: 600
VWidth: 0
Flags: W
HStem: 300 100<0 104 209 312>
VStem: 100 100<-209 312> 300 100<-209 312>
LayerCount: 2
Back
Fore
SplineSet
0 400 m 25
 400 400 l 25
 400 -200 l 25
 300 -200 l 25
 300 300 l 25
 200 300 l 25
 200 -200 l 25
 100 -200 l 25
 100 300 l 25
 0 300 l 25
 0 400 l 25
EndSplineSet
EndChar

StartChar: SF250000
Encoding: 493 9559 493
Width: 600
VWidth: 0
Flags: W
HStem: 200 100<0 104> 400 100<0 312>
VStem: 100 100<-209 209> 300 100<-209 418>
LayerCount: 2
Back
Fore
SplineSet
0 300 m 25
 200 300 l 25
 200 -200 l 25
 100 -200 l 25
 100 200 l 25
 0 200 l 25
 0 300 l 25
0 500 m 25
 400 500 l 25
 400 -200 l 25
 300 -200 l 25
 300 400 l 25
 0 400 l 25
 0 500 l 25
EndSplineSet
EndChar

StartChar: SF500000
Encoding: 494 9560 494
Width: 600
VWidth: 0
Flags: W
HStem: 200 100<312 625> 400 100<312 625>
VStem: 200 100<312 418 521 834>
LayerCount: 2
Back
Fore
SplineSet
200 800 m 1
 300 800 l 5
 300 500 l 1
 600 500 l 25
 600 400 l 25
 300 400 l 25
 300 300 l 25
 600 300 l 25
 600 200 l 25
 200 200 l 1
 200 800 l 1
EndSplineSet
EndChar

StartChar: SF490000
Encoding: 495 9561 495
Width: 600
VWidth: 0
Flags: W
HStem: 300 100<209 312 418 625>
VStem: 100 100<418 834> 300 100<418 834>
LayerCount: 2
Back
Fore
SplineSet
100 800 m 1
 200 800 l 1
 200 400 l 1
 300 400 l 1
 300 800 l 1
 400 800 l 5
 400 400 l 1
 600 400 l 25
 600 300 l 25
 100 300 l 1
 100 800 l 1
EndSplineSet
EndChar

StartChar: SF380000
Encoding: 496 9562 496
Width: 600
VWidth: 0
Flags: W
HStem: 200 100<209 625> 400 100<418 625>
VStem: 100 100<312 834> 300 100<521 834>
LayerCount: 2
Back
Fore
SplineSet
300 800 m 29
 400 800 l 29
 400 500 l 1
 600 500 l 25
 600 400 l 25
 300 400 l 1
 300 800 l 29
100 800 m 29
 200 800 l 29
 200 300 l 1
 600 300 l 25
 600 200 l 25
 100 200 l 1
 100 800 l 29
EndSplineSet
EndChar

StartChar: SF280000
Encoding: 497 9563 497
Width: 600
VWidth: 0
Flags: W
HStem: 200 100<0 209> 400 100<0 209>
VStem: 0 300<209 312 418 521> 200 100<312 418 521 834>
LayerCount: 2
Back
Fore
SplineSet
200 800 m 29xd0
 300 800 l 29xd0
 300 200 l 1
 0 200 l 25
 0 300 l 25xe0
 200 300 l 25
 200 400 l 25xd0
 0 400 l 25
 0 500 l 25xe0
 200 500 l 1
 200 800 l 29xd0
EndSplineSet
EndChar

StartChar: SF270000
Encoding: 498 9564 498
Width: 600
VWidth: 0
Flags: W
HStem: 300 100<600 703 809 912>
VStem: 700 100<418 834> 900 100<418 834>
LayerCount: 2
Back
Fore
SplineSet
100 800 m 29
 200 800 l 29
 200 400 l 1
 300 400 l 1
 300 800 l 29
 400 800 l 29
 400 300 l 1
 0 300 l 25
 0 400 l 25
 100 400 l 1
 100 800 l 29
EndSplineSet
EndChar

StartChar: SF260000
Encoding: 499 9565 499
Width: 600
VWidth: 0
Flags: W
HStem: 200 100<0 312> 400 100<0 104>
VStem: 100 100<521 834> 300 100<312 834>
LayerCount: 2
Back
Fore
SplineSet
300 800 m 1
 400 800 l 5
 400 200 l 1
 0 200 l 25
 0 300 l 25
 300 300 l 1
 300 800 l 1
100 800 m 1
 200 800 l 1
 200 400 l 1
 0 400 l 25
 0 500 l 25
 100 500 l 1
 100 800 l 1
EndSplineSet
EndChar

StartChar: SF360000
Encoding: 500 9566 500
Width: 600
VWidth: 0
Flags: W
HStem: 200 100<312 625> 400 100<312 625>
VStem: 200 100<-209 209 312 418 521 834>
LayerCount: 2
Back
Fore
SplineSet
200 800 m 1
 300 800 l 5
 300 500 l 1
 600 500 l 25
 600 400 l 25
 300 400 l 25
 300 300 l 25
 600 300 l 25
 600 200 l 25
 300 200 l 25
 300 -200 l 25
 200 -200 l 1
 200 800 l 1
EndSplineSet
EndChar

StartChar: SF370000
Encoding: 501 9567 501
Width: 600
VWidth: 0
Flags: W
HStem: 300 100<418 625>
VStem: 100 100<-209 834> 300 100<-209 312 418 834>
LayerCount: 2
Back
Fore
SplineSet
300 800 m 1
 400 800 l 5
 400 400 l 1
 600 400 l 25
 600 300 l 25
 400 300 l 25
 400 -200 l 25
 300 -200 l 1
 300 800 l 1
100 800 m 1
 200 800 l 1
 200 -200 l 1
 100 -200 l 1
 100 800 l 1
EndSplineSet
EndChar

StartChar: SF420000
Encoding: 502 9568 502
Width: 600
VWidth: 0
Flags: W
HStem: 200 100<418 625> 400 100<418 625>
VStem: 100 100<-209 834> 300 300<209 312 418 521> 300 100<-209 209 521 834>
LayerCount: 2
Back
Fore
SplineSet
300 300 m 25xf0
 600 300 l 25
 600 200 l 25xf0
 400 200 l 25
 400 -200 l 25
 300 -200 l 25xe8
 300 300 l 25xf0
300 800 m 29xe8
 400 800 l 29
 400 500 l 1xe8
 600 500 l 25
 600 400 l 25
 300 400 l 1xf0
 300 800 l 29xe8
100 800 m 29
 200 800 l 29
 200 -200 l 1
 100 -200 l 1
 100 800 l 29
EndSplineSet
EndChar

StartChar: SF190000
Encoding: 503 9569 503
Width: 600
VWidth: 0
Flags: W
HStem: 200 100<0 209> 400 100<0 209>
VStem: 0 300<209 312 418 521> 200 100<-209 209 312 418 521 834>
LayerCount: 2
Back
Fore
SplineSet
0 500 m 25xe0
 200 500 l 1
 200 800 l 29
 300 800 l 29
 300 -200 l 1
 200 -200 l 25
 200 200 l 25xd0
 0 200 l 25
 0 300 l 25xe0
 200 300 l 25
 200 400 l 25xd0
 0 400 l 25
 0 500 l 25xe0
EndSplineSet
EndChar

StartChar: SF200000
Encoding: 504 9570 504
Width: 600
VWidth: 0
Flags: W
HStem: 300 100<0 104>
VStem: 100 100<-209 312 418 834> 300 100<-209 834>
LayerCount: 2
Back
Fore
SplineSet
300 800 m 29
 400 800 l 29
 400 -200 l 1
 300 -200 l 1
 300 800 l 29
100 800 m 29
 200 800 l 29
 200 -200 l 1
 100 -200 l 25
 100 300 l 25
 0 300 l 25
 0 400 l 25
 100 400 l 1
 100 800 l 29
EndSplineSet
EndChar

StartChar: SF230000
Encoding: 505 9571 505
Width: 600
VWidth: 0
Flags: W
HStem: 200 100<0 104> 400 100<0 104>
VStem: 0 200<209 312 418 521> 100 100<-209 209 521 834> 300 100<-209 834>
LayerCount: 2
Back
Fore
SplineSet
300 800 m 29xc8
 400 800 l 29
 400 -200 l 1
 300 -200 l 1
 300 800 l 29xc8
0 300 m 25xe8
 200 300 l 25xe8
 200 -200 l 25
 100 -200 l 25
 100 200 l 25xd8
 0 200 l 25
 0 300 l 25xe8
100 800 m 29xd8
 200 800 l 29xd8
 200 400 l 1
 0 400 l 25
 0 500 l 25xe8
 100 500 l 1
 100 800 l 29xd8
EndSplineSet
EndChar

StartChar: SF470000
Encoding: 506 9572 506
Width: 600
VWidth: 0
Flags: W
HStem: 200 100<0 209 312 625> 400 100<0 625>
VStem: 200 100<-209 209>
LayerCount: 2
Back
Fore
SplineSet
0 300 m 25
 600 300 l 25
 600 200 l 25
 300 200 l 25
 300 -200 l 25
 200 -200 l 25
 200 200 l 25
 0 200 l 25
 0 300 l 25
0 500 m 25
 600 500 l 25
 600 400 l 25
 0 400 l 25
 0 500 l 25
EndSplineSet
EndChar

StartChar: SF480000
Encoding: 507 9573 507
Width: 600
VWidth: 0
Flags: W
HStem: 300 100<0 104 209 312 418 625>
VStem: 100 100<-209 312> 300 100<-209 312>
LayerCount: 2
Back
Fore
SplineSet
0 400 m 25
 600 400 l 25
 600 300 l 25
 400 300 l 25
 400 -200 l 25
 300 -200 l 25
 300 300 l 25
 200 300 l 25
 200 -200 l 25
 100 -200 l 25
 100 300 l 25
 0 300 l 25
 0 400 l 25
EndSplineSet
EndChar

StartChar: SF410000
Encoding: 508 9574 508
Width: 600
VWidth: 0
Flags: W
HStem: 200 100<0 104 418 625> 400 100<0 625>
VStem: 100 100<-209 209> 300 100<-209 209>
LayerCount: 2
Back
Fore
SplineSet
300 300 m 25
 600 300 l 25
 600 200 l 25
 400 200 l 25
 400 -200 l 25
 300 -200 l 25
 300 300 l 25
0 300 m 25
 200 300 l 25
 200 -200 l 25
 100 -200 l 25
 100 200 l 25
 0 200 l 25
 0 300 l 25
0 500 m 25
 600 500 l 25
 600 400 l 25
 0 400 l 25
 0 500 l 25
EndSplineSet
EndChar

StartChar: SF450000
Encoding: 509 9575 509
Width: 600
VWidth: 0
Flags: W
HStem: 200 100<0 625> 400 100<0 209 312 625>
VStem: 200 100<521 834>
LayerCount: 2
Back
Fore
SplineSet
0 300 m 25
 600 300 l 25
 600 200 l 25
 0 200 l 25
 0 300 l 25
0 500 m 25
 200 500 l 1
 200 800 l 29
 300 800 l 29
 300 500 l 1
 600 500 l 25
 600 400 l 25
 0 400 l 25
 0 500 l 25
EndSplineSet
EndChar

StartChar: SF460000
Encoding: 510 9576 510
Width: 600
VWidth: 0
Flags: W
HStem: 300 100<0 104 209 312 418 625>
VStem: 100 100<418 834> 300 100<418 834>
LayerCount: 2
Back
Fore
SplineSet
0 400 m 25
 100 400 l 1
 100 800 l 29
 200 800 l 29
 200 400 l 1
 300 400 l 1
 300 800 l 29
 400 800 l 29
 400 400 l 1
 600 400 l 25
 600 300 l 25
 0 300 l 25
 0 400 l 25
EndSplineSet
EndChar

StartChar: SF400000
Encoding: 511 9577 511
Width: 600
VWidth: 0
Flags: W
HStem: 200 100<0 625> 400 100<0 104 418 625>
VStem: 100 100<521 834> 300 100<521 834>
LayerCount: 2
Back
Fore
SplineSet
0 300 m 25
 600 300 l 25
 600 200 l 25
 0 200 l 25
 0 300 l 25
300 800 m 29
 400 800 l 29
 400 500 l 1
 600 500 l 25
 600 400 l 25
 300 400 l 1
 300 800 l 29
0 500 m 25
 100 500 l 1
 100 800 l 29
 200 800 l 29
 200 400 l 1
 0 400 l 25
 0 500 l 25
EndSplineSet
EndChar

StartChar: SF540000
Encoding: 512 9578 512
Width: 600
VWidth: 0
Flags: W
HStem: 200 100<0 209 312 625> 400 100<0 209 312 625>
VStem: 200 100<-209 209 312 418 521 834>
LayerCount: 2
Back
Fore
SplineSet
0 500 m 25
 200 500 l 1
 200 800 l 29
 300 800 l 29
 300 500 l 1
 600 500 l 25
 600 400 l 25
 300 400 l 25
 300 300 l 25
 600 300 l 25
 600 200 l 25
 300 200 l 25
 300 -200 l 25
 200 -200 l 25
 200 200 l 25
 0 200 l 25
 0 300 l 25
 200 300 l 25
 200 400 l 25
 0 400 l 25
 0 500 l 25
EndSplineSet
EndChar

StartChar: SF530000
Encoding: 513 9579 513
Width: 600
VWidth: 0
Flags: W
HStem: 300 100<0 104 209 312 418 625>
VStem: 100 100<-209 312 418 834> 300 100<-209 312 418 834>
LayerCount: 2
Back
Fore
SplineSet
0 400 m 25
 100 400 l 1
 100 800 l 29
 200 800 l 29
 200 400 l 1
 300 400 l 1
 300 800 l 29
 400 800 l 29
 400 400 l 1
 600 400 l 25
 600 300 l 25
 400 300 l 25
 400 -200 l 25
 300 -200 l 25
 300 300 l 25
 200 300 l 25
 200 -200 l 25
 100 -200 l 25
 100 300 l 25
 0 300 l 25
 0 400 l 25
EndSplineSet
EndChar

StartChar: SF440000
Encoding: 514 9580 514
Width: 600
VWidth: 0
Flags: W
HStem: 200 100<0 104 418 625> 400 100<0 104 418 625>
VStem: 0 200<209 312 418 521> 100 100<-209 209 521 834> 300 300<209 312 418 521> 300 100<-209 209 521 834>
LayerCount: 2
Back
Fore
SplineSet
300 300 m 25xc8
 600 300 l 25
 600 200 l 25xc8
 400 200 l 25
 400 -200 l 25
 300 -200 l 25xc4
 300 300 l 25xc8
0 300 m 25xe0
 200 300 l 25xe0
 200 -200 l 25
 100 -200 l 25
 100 200 l 25xd0
 0 200 l 25
 0 300 l 25xe0
300 800 m 29xc4
 400 800 l 29
 400 500 l 1xc4
 600 500 l 25
 600 400 l 25
 300 400 l 1xc8
 300 800 l 29xc4
0 500 m 25xe0
 100 500 l 1
 100 800 l 29
 200 800 l 29xd0
 200 400 l 1
 0 400 l 25
 0 500 l 25xe0
EndSplineSet
EndChar

StartChar: uni256D
Encoding: 515 9581 515
Width: 600
VWidth: 0
Flags: W
HStem: 200 100<312 418> 300 100<418 625>
VStem: 200 100<-209 209> 300 100<209 312>
LayerCount: 2
Back
Fore
SplineSet
200 -200 m 25xa0
 200 200 l 25
 300 200 l 25xa0
 300 300 l 25
 400 300 l 25x90
 400 400 l 25
 600 400 l 25
 600 300 l 25x50
 400 300 l 25
 400 200 l 25x90
 300 200 l 25
 300 -200 l 25
 200 -200 l 25xa0
EndSplineSet
EndChar

StartChar: uni256E
Encoding: 516 9582 516
Width: 600
VWidth: 0
Flags: W
HStem: 200 100<104 209> 300 100<0 104>
VStem: 0 100<312 418> 100 100<209 312> 200 100<-209 209>
LayerCount: 2
Back
Fore
SplineSet
0 400 m 25x60
 100 400 l 25x60
 100 300 l 25xa0
 200 300 l 25
 200 200 l 25x90
 300 200 l 25
 300 -200 l 25
 200 -200 l 25x88
 200 200 l 25
 100 200 l 25x90
 100 300 l 25xa0
 0 300 l 25
 0 400 l 25x60
EndSplineSet
EndChar

StartChar: uni256F
Encoding: 517 9583 517
Width: 600
VWidth: 0
Flags: W
HStem: 300 100<0 104> 400 100<104 209>
VStem: 0 100<312 418> 100 100<418 521> 200 100<521 834>
LayerCount: 2
Back
Fore
SplineSet
0 400 m 25xa0
 100 400 l 25xa0
 100 500 l 25
 200 500 l 1x50
 200 800 l 29
 300 800 l 29
 300 500 l 1x48
 200 500 l 25
 200 400 l 25x50
 100 400 l 25
 100 300 l 25
 0 300 l 25
 0 400 l 25xa0
EndSplineSet
EndChar

StartChar: uni2570
Encoding: 518 9584 518
Width: 600
VWidth: 0
Flags: W
HStem: 300 100<418 625> 400 100<312 418>
VStem: 200 100<521 834> 300 100<418 521>
LayerCount: 2
Back
Fore
SplineSet
200 800 m 29x60
 300 800 l 29
 300 500 l 1x60
 400 500 l 25x50
 400 400 l 25
 600 400 l 25
 600 300 l 25
 400 300 l 25
 400 400 l 25x90
 300 400 l 25x50
 300 500 l 25
 200 500 l 1
 200 800 l 29x60
EndSplineSet
EndChar

StartChar: uni2571
Encoding: 519 9585 519
Width: 600
VWidth: 0
Flags: W
HStem: 200 100<209 312> 300 100<312 418>
VStem: 0 100<-209 0> 100 100<0 209> 200 100<209 312> 300 100<312 418> 400 100<418 625> 500 100<625 834>
LayerCount: 2
Back
Fore
SplineSet
500 800 m 1x41
 600 800 l 5
 600 600 l 1x41
 500 600 l 25
 500 400 l 25x42
 400 400 l 25
 400 300 l 25x44
 300 300 l 25
 300 200 l 25x88
 200 200 l 25
 200 0 l 25x90
 100 0 l 25
 100 -200 l 25
 0 -200 l 25
 0 0 l 25
 100 0 l 25xa0
 100 200 l 25
 200 200 l 25x90
 200 300 l 25
 300 300 l 25x88
 300 400 l 25
 400 400 l 25x44
 400 600 l 25
 500 600 l 1x42
 500 800 l 1x41
EndSplineSet
EndChar

StartChar: uni2572
Encoding: 520 9586 520
Width: 600
VWidth: 0
Flags: W
HStem: 200 100<312 418> 300 100<209 312>
VStem: 0 100<625 834> 100 100<418 625> 200 100<312 418> 300 100<209 312> 400 100<0 209> 500 100<-209 0>
LayerCount: 2
Back
Fore
SplineSet
0 800 m 1x60
 100 800 l 5
 100 600 l 1x60
 200 600 l 25
 200 400 l 25x50
 300 400 l 25x48
 300 300 l 25x88
 400 300 l 25
 400 200 l 25x84
 500 200 l 25
 500 0 l 25x82
 600 0 l 25
 600 -200 l 25
 500 -200 l 25x81
 500 0 l 25
 400 0 l 25x82
 400 200 l 25
 300 200 l 25x84
 300 300 l 25x88
 200 300 l 25x48
 200 400 l 25
 100 400 l 25x50
 100 600 l 25
 0 600 l 1
 0 800 l 1x60
EndSplineSet
EndChar

StartChar: uni2573
Encoding: 521 9587 521
Width: 600
VWidth: 0
Flags: W
HStem: -200 200<0 104 521 625> 0 200<104 209 418 521> 400 200<104 209 418 521> 600 200<0 104 521 625>
VStem: 0 100<-209 0 625 834> 100 100<0 209 418 625> 400 100<0 209 418 625> 500 100<-209 0 625 834>
LayerCount: 2
Back
Fore
SplineSet
0 800 m 1x18
 100 800 l 1x18
 100 600 l 1x28
 200 600 l 25
 200 400 l 25
 400 400 l 25
 400 600 l 25
 500 600 l 1x26
 500 800 l 1
 600 800 l 5
 600 600 l 1x11
 500 600 l 25
 500 400 l 25
 400 400 l 25
 400 200 l 25
 500 200 l 25x62
 500 0 l 25x82
 600 0 l 25
 600 -200 l 25
 500 -200 l 25x81
 500 0 l 25x82
 400 0 l 25
 400 200 l 25
 200 200 l 25
 200 0 l 25x46
 100 0 l 25
 100 -200 l 25
 0 -200 l 25
 0 0 l 25
 100 0 l 25x88
 100 200 l 25
 200 200 l 25
 200 400 l 25
 100 400 l 25x64
 100 600 l 25x68
 0 600 l 1
 0 800 l 1x18
EndSplineSet
EndChar

StartChar: uni2574
Encoding: 522 9588 522
Width: 600
VWidth: 0
Flags: W
HStem: 300 100<0 312>
VStem: 0 300<312 418>
LayerCount: 2
Back
Fore
SplineSet
0 400 m 25
 300 400 l 25
 300 300 l 25
 0 300 l 25
 0 400 l 25
EndSplineSet
EndChar

StartChar: uni2575
Encoding: 523 9589 523
Width: 600
VWidth: 0
Flags: W
VStem: 200 100<312 834>
LayerCount: 2
Back
Fore
SplineSet
200 800 m 1
 300 800 l 5
 300 300 l 1
 200 300 l 1
 200 800 l 1
EndSplineSet
EndChar

StartChar: uni2576
Encoding: 524 9590 524
Width: 600
VWidth: 0
Flags: W
HStem: 300 100<209 625>
LayerCount: 2
Back
Fore
SplineSet
200 400 m 25
 600 400 l 25
 600 300 l 25
 200 300 l 25
 200 400 l 25
EndSplineSet
EndChar

StartChar: uni2577
Encoding: 525 9591 525
Width: 600
VWidth: 0
Flags: W
VStem: 200 100<-209 418>
LayerCount: 2
Back
Fore
SplineSet
200 400 m 25
 300 400 l 25
 300 -200 l 25
 200 -200 l 25
 200 400 l 25
EndSplineSet
EndChar

StartChar: uni2578
Encoding: 526 9592 526
Width: 600
VWidth: 0
Flags: W
HStem: 200 200<0 312>
VStem: 0 300<209 418>
LayerCount: 2
Back
Fore
SplineSet
0 400 m 25
 300 400 l 25
 300 200 l 25
 0 200 l 25
 0 400 l 25
EndSplineSet
EndChar

StartChar: uni2579
Encoding: 527 9593 527
Width: 600
VWidth: 0
Flags: W
VStem: 200 200<312 834>
LayerCount: 2
Back
Fore
SplineSet
200 800 m 1
 400 800 l 5
 400 300 l 1
 200 300 l 1
 200 800 l 1
EndSplineSet
EndChar

StartChar: uni257A
Encoding: 528 9594 528
Width: 600
VWidth: 0
Flags: W
HStem: 200 200<209 625>
LayerCount: 2
Back
Fore
SplineSet
200 400 m 25
 600 400 l 25
 600 200 l 25
 200 200 l 25
 200 400 l 25
EndSplineSet
EndChar

StartChar: uni257B
Encoding: 529 9595 529
Width: 600
VWidth: 0
Flags: W
VStem: 200 200<-209 418>
LayerCount: 2
Back
Fore
SplineSet
200 400 m 25
 400 400 l 25
 400 -200 l 25
 200 -200 l 25
 200 400 l 25
EndSplineSet
EndChar

StartChar: uni257C
Encoding: 530 9596 530
Width: 600
VWidth: 0
Flags: W
HStem: 200 200<209 625> 300 100<0 209>
LayerCount: 2
Back
Fore
SplineSet
0 400 m 25x40
 600 400 l 25
 600 200 l 25
 200 200 l 25x80
 200 300 l 25
 0 300 l 25
 0 400 l 25x40
EndSplineSet
EndChar

StartChar: uni257D
Encoding: 531 9597 531
Width: 600
VWidth: 0
Flags: W
VStem: 200 200<-209 418> 200 100<418 834>
LayerCount: 2
Back
Fore
SplineSet
200 800 m 1x40
 300 800 l 5
 300 400 l 1x40
 400 400 l 25
 400 -200 l 25
 200 -200 l 1x80
 200 800 l 1x40
EndSplineSet
EndChar

StartChar: uni257E
Encoding: 532 9598 532
Width: 600
VWidth: 0
Flags: W
HStem: 200 200<0 312> 300 100<312 625>
LayerCount: 2
Back
Fore
SplineSet
0 400 m 25x80
 600 400 l 25
 600 300 l 25
 300 300 l 25x40
 300 200 l 25
 0 200 l 25
 0 400 l 25x80
EndSplineSet
EndChar

StartChar: uni257F
Encoding: 533 9599 533
Width: 600
VWidth: 0
Flags: W
VStem: 200 200<312 834> 200 100<-209 312>
LayerCount: 2
Back
Fore
SplineSet
200 800 m 1x80
 400 800 l 5
 400 300 l 1x80
 300 300 l 25
 300 -200 l 25
 200 -200 l 1x40
 200 800 l 1x80
EndSplineSet
EndChar

StartChar: block
Encoding: 534 9608 534
Width: 600
VWidth: 0
Flags: W
VStem: 0 600<-209 834>
LayerCount: 2
Back
Fore
SplineSet
0 800 m 1
 600 800 l 5
 600 -200 l 1
 0 -200 l 1
 0 800 l 1
EndSplineSet
EndChar

StartChar: ltshade
Encoding: 535 9617 535
Width: 600
VWidth: 0
Flags: W
HStem: -200 100<0 104 312 418> -100 100<209 312 521 625> 0 100<104 209 418 521> 100 100<0 104 312 418> 200 100<209 312 521 625> 300 100<104 209 418 521> 400 100<0 104 312 418> 500 100<209 312 521 625> 600 100<104 209 418 521> 700 100<0 104 312 418>
VStem: 0 100<-209 -104 104 209 418 521 729 834> 100 100<0 104 312 418 625 729> 200 100<-104 0 209 312 521 625> 300 100<-209 -104 104 209 418 521 729 834> 400 100<0 104 312 418 625 729> 500 100<-104 0 209 312 521 625>
LayerCount: 2
Back
Fore
SplineSet
0 -100 m 25x8020
 100 -100 l 25
 100 -200 l 25
 0 -200 l 25
 0 -100 l 25x8020
0 200 m 25x1020
 100 200 l 25x1020
 100 100 l 25x2020
 200 100 l 25x2010
 200 0 l 25x4010
 300 0 l 25x4008
 300 -100 l 25x8008
 400 -100 l 25
 400 -200 l 25
 300 -200 l 25x8004
 300 -100 l 25x8008
 200 -100 l 25x4008
 200 0 l 25x4010
 100 0 l 25x2010
 100 100 l 25x2020
 0 100 l 25
 0 200 l 25x1020
0 500 m 25x0220
 100 500 l 25x0220
 100 400 l 25x0420
 200 400 l 25x0410
 200 300 l 25x0810
 300 300 l 25x0808
 300 200 l 25x1008
 400 200 l 25x1004
 400 100 l 25x2004
 500 100 l 25x2002
 500 0 l 25x4002
 600 0 l 25
 600 -100 l 25
 500 -100 l 25x4001
 500 0 l 25x4002
 400 0 l 25x2002
 400 100 l 25x2004
 300 100 l 25x1004
 300 200 l 25x1008
 200 200 l 25x0808
 200 300 l 25x0810
 100 300 l 25x0410
 100 400 l 25x0420
 0 400 l 25
 0 500 l 25x0220
300 800 m 25x0044
 400 800 l 25x0044
 400 700 l 25x0084
 500 700 l 25x0082
 500 600 l 25x0102
 600 600 l 25
 600 500 l 25
 500 500 l 25x0101
 500 600 l 25x0102
 400 600 l 25x0082
 400 700 l 25x0084
 300 700 l 25
 300 800 l 25x0044
0 800 m 25x0060
 100 800 l 25x0060
 100 700 l 25x00a0
 200 700 l 25x0090
 200 600 l 25x0110
 300 600 l 25x0108
 300 500 l 25x0208
 400 500 l 25x0204
 400 400 l 25x0404
 500 400 l 25x0402
 500 300 l 25x0802
 600 300 l 25
 600 200 l 25
 500 200 l 25x0801
 500 300 l 25x0802
 400 300 l 25x0402
 400 400 l 25x0404
 300 400 l 25x0204
 300 500 l 25x0208
 200 500 l 25x0108
 200 600 l 25x0110
 100 600 l 25x0090
 100 700 l 25x00a0
 0 700 l 25
 0 800 l 25x0060
EndSplineSet
EndChar

StartChar: shade
Encoding: 536 9618 536
Width: 600
VWidth: 0
Flags: W
HStem: -200 100<104 209 312 418 521 625> -100 100<0 104 209 312 418 521> 0 100<104 209 312 418 521 625> 100 100<0 104 209 312 418 521> 200 100<104 209 312 418 521 625> 300 100<0 104 209 312 418 521> 400 100<104 209 312 418 521 625> 500 100<0 104 209 312 418 521> 600 100<104 209 312 418 521 625> 700 100<0 104 209 312 418 521>
VStem: 0 100<-104 0 104 209 312 418 521 625 729 834> 100 100<-209 -104 0 104 209 312 418 521 625 729> 200 100<-104 0 104 209 312 418 521 625 729 834> 300 100<-209 -104 0 104 209 312 418 521 625 729> 400 100<-104 0 104 209 312 418 521 625 729 834> 500 100<-209 -104 0 104 209 312 418 521 625 729>
LayerCount: 2
Back
Fore
SplineSet
0 800 m 25x0060
 100 800 l 25x0060
 100 700 l 25x00a0
 200 700 l 25x0090
 200 800 l 25
 300 800 l 25x0048
 300 700 l 25x0088
 400 700 l 25x0084
 400 800 l 25
 500 800 l 25x0042
 500 700 l 25x0082
 600 700 l 25
 600 600 l 25x0081
 500 600 l 25x0102
 500 700 l 25x0082
 400 700 l 25x0084
 400 600 l 25x0104
 300 600 l 25x0108
 300 700 l 25x0088
 200 700 l 25x0090
 200 600 l 25x0110
 300 600 l 25x0108
 300 500 l 25x0208
 400 500 l 25x0204
 400 600 l 25x0104
 500 600 l 25x0102
 500 500 l 25x0202
 600 500 l 25
 600 400 l 25x0201
 500 400 l 25x0402
 500 500 l 25x0202
 400 500 l 25x0204
 400 400 l 25x0404
 300 400 l 25x0408
 300 500 l 25x0208
 200 500 l 25x0210
 200 400 l 25x0410
 300 400 l 25x0408
 300 300 l 25x0808
 400 300 l 25x0804
 400 400 l 25x0404
 500 400 l 25x0402
 500 300 l 25x0802
 600 300 l 25
 600 200 l 25x0801
 500 200 l 25x1002
 500 300 l 25x0802
 400 300 l 25x0804
 400 200 l 25x1004
 300 200 l 25x1008
 300 300 l 25x0808
 200 300 l 25x0810
 200 200 l 25x1010
 300 200 l 25x1008
 300 100 l 25x2008
 400 100 l 25x2004
 400 200 l 25x1004
 500 200 l 25x1002
 500 100 l 25x2002
 600 100 l 25
 600 0 l 25x2001
 500 0 l 25x4002
 500 100 l 25x2002
 400 100 l 25x2004
 400 0 l 25x4004
 300 0 l 25x4008
 300 100 l 25x2008
 200 100 l 25x2010
 200 0 l 25x4010
 300 0 l 25x4008
 300 -100 l 25x8008
 400 -100 l 25x8004
 400 0 l 25x4004
 500 0 l 25x4002
 500 -100 l 25x8002
 600 -100 l 25
 600 -200 l 25
 500 -200 l 25x8001
 500 -100 l 25x8002
 400 -100 l 25
 400 -200 l 25
 300 -200 l 25x8004
 300 -100 l 25x8008
 200 -100 l 25x8010
 200 0 l 25x4010
 100 0 l 25x4020
 100 -100 l 25x8020
 200 -100 l 25
 200 -200 l 25
 100 -200 l 25x8010
 100 -100 l 25x8020
 0 -100 l 25
 0 0 l 25
 100 0 l 25x4020
 100 100 l 25x2020
 200 100 l 25x2010
 200 200 l 25x1010
 100 200 l 25x1020
 100 100 l 25x2020
 0 100 l 25
 0 200 l 25
 100 200 l 25x1020
 100 300 l 25x0820
 200 300 l 25x0810
 200 400 l 25x0410
 100 400 l 25x0420
 100 300 l 25x0820
 0 300 l 25
 0 400 l 25
 100 400 l 25x0420
 100 500 l 25x0220
 200 500 l 25x0210
 200 600 l 25x0110
 100 600 l 25x0120
 100 500 l 25x0220
 0 500 l 25
 0 600 l 25
 100 600 l 25x0120
 100 700 l 25x00a0
 0 700 l 25
 0 800 l 25x0060
EndSplineSet
EndChar

StartChar: filledbox
Encoding: 537 9632 537
Width: 600
VWidth: 0
Flags: W
HStem: -200 500<0 625>
VStem: 0 600<-209 312>
LayerCount: 2
Back
Fore
SplineSet
0 300 m 25
 600 300 l 25
 600 -200 l 25
 0 -200 l 25
 0 300 l 25
EndSplineSet
EndChar

StartChar: uni25B6
Encoding: 538 9654 538
Width: 600
VWidth: 0
Flags: W
HStem: 0 0G<104 209> 300 100<418 521> 700 0G<104 209>
VStem: 100 300<209 312 418 521> 100 200<104 209 521 625> 100 100<0 104 625 729>
LayerCount: 2
Back
Fore
SplineSet
100 700 m 25xe4
 200 700 l 25
 200 600 l 25xe4
 300 600 l 25
 300 500 l 25xe8
 400 500 l 25
 400 400 l 25
 500 400 l 25
 500 300 l 25
 400 300 l 25
 400 200 l 25xf0
 300 200 l 25
 300 100 l 25xe8
 200 100 l 25
 200 0 l 25
 100 0 l 25
 100 700 l 25xe4
EndSplineSet
EndChar

StartChar: uni25C0
Encoding: 539 9664 539
Width: 600
VWidth: 0
Flags: W
HStem: 0 0G<418 521> 300 100<104 209> 700 0G<418 521>
VStem: 200 300<209 312 418 521> 300 200<104 209 521 625> 400 100<0 104 625 729>
LayerCount: 2
Back
Fore
SplineSet
400 700 m 25xe4
 500 700 l 25
 500 0 l 25
 400 0 l 25
 400 100 l 25xe4
 300 100 l 25
 300 200 l 25xe8
 200 200 l 25
 200 300 l 25
 100 300 l 25
 100 400 l 25
 200 400 l 25
 200 500 l 25xf0
 300 500 l 25
 300 600 l 25xe8
 400 600 l 25
 400 700 l 25xe4
EndSplineSet
EndChar

StartChar: diamond
Encoding: 540 9830 540
Width: 600
VWidth: 0
Flags: W
HStem: 0 0G<209 312> 200 300<0 104 418 521> 700 0G<209 312>
VStem: 100 300<104 209 521 625> 200 100<0 104 625 729>
LayerCount: 2
Back
Fore
SplineSet
100 600 m 25xf0
 200 600 l 25
 200 700 l 25
 300 700 l 25
 300 600 l 25xe8
 400 600 l 25
 400 500 l 25
 500 500 l 25
 500 200 l 25
 400 200 l 25
 400 100 l 25xf0
 300 100 l 25
 300 0 l 25
 200 0 l 25
 200 100 l 25xe8
 100 100 l 25
 100 200 l 25
 0 200 l 25
 0 500 l 25
 100 500 l 25
 100 600 l 25xf0
EndSplineSet
EndChar

StartChar: uni2714
Encoding: 541 10004 541
Width: 600
VWidth: 0
Flags: W
HStem: 0 100<209 312> 100 100<104 209> 500 100<521 625>
VStem: 100 100<104 209> 300 100<104 312> 400 100<312 521> 500 100<521 625>
LayerCount: 2
Back
Fore
SplineSet
100 200 m 25x78
 200 200 l 25x78
 200 100 l 25
 300 100 l 25
 300 300 l 25
 400 300 l 25xb8
 400 500 l 25
 500 500 l 25xb4
 500 600 l 25
 600 600 l 25
 600 500 l 25xb2
 500 500 l 25
 500 300 l 25xb4
 400 300 l 25
 400 100 l 25x78
 300 100 l 25
 300 0 l 25
 200 0 l 25
 200 100 l 25xb8
 100 100 l 25
 100 200 l 25x78
EndSplineSet
EndChar

StartChar: uni271A
Encoding: 542 10010 542
Width: 600
VWidth: 0
Flags: W
HStem: 0 0G<209 418> 200 200<0 209 418 625> 600 0G<209 418>
VStem: 200 200<0 209 418 625>
LayerCount: 2
Back
Fore
SplineSet
0 400 m 25
 200 400 l 25
 200 600 l 25
 400 600 l 25
 400 400 l 25
 600 400 l 25
 600 200 l 25
 400 200 l 25
 400 0 l 25
 200 0 l 25
 200 200 l 25
 0 200 l 25
 0 400 l 25
EndSplineSet
EndChar

StartChar: H18533
Encoding: 543 9679 543
Width: 600
VWidth: 0
Flags: W
HStem: 200 300<0 104 418 521> 600 0G<104 418>
VStem: 100 300<104 209 521 625>
LayerCount: 2
Back
Fore
SplineSet
100 600 m 25
 400 600 l 25
 400 500 l 25
 500 500 l 25
 500 200 l 25
 400 200 l 25
 400 100 l 25
 100 100 l 25
 100 200 l 25
 0 200 l 25
 0 500 l 25
 100 500 l 25
 100 600 l 25
EndSplineSet
EndChar

